<svg height="512" viewBox="0 0 58 59" width="512" xmlns="http://www.w3.org/2000/svg"><g id="Page-1" fill="none" fill-rule="evenodd"><g id="002---Full-Bin" fill-rule="nonzero"><path id="Shape" d="m33 22c-9.517 0-18.244 2-29 2l8 29c6.312 0 14.71 2 21 2 9.256 0 2.791-2 13-2l8-29c-7.037 0-12.542-2-21-2z" fill="#95a5a5"/><path id="Shape" d="m28 18-10 2-10-2v-5.292c-.00032828-.4656013.10822866-.924828.317-1.341l1.683-3.367 8-2 8 2 1.683 3.367c.2087713.416172.3173283.8753987.317 1.341z" fill="#2fa8cc"/><path id="Shape" d="m24 13h-12c-.5522847 0-1-.4477153-1-1s.4477153-1 1-1h12c.5522847 0 1 .4477153 1 1s-.4477153 1-1 1z" fill="#2980ba"/><path id="Shape" d="m15.231 6.846c-.3341138-.000507-.6459012-.16784416-.831-.446l-3.23-4.846c-.276927-.4577864-.144467-1.05244438.3005811-1.34941091s1.0449978-.19102232 1.3614189.24041091l3.23 4.847c.2040789.30667613.2230279.70071746.0493181 1.02556105s-.5119458.52788053-.8803181.52843895z" fill="#f0c419"/><path id="Shape" d="m46 13h-3v-4h-2v4h-3c-.5522847 0-1 .4477153-1 1s.4477153 1 1 1h3v4h2v-4h3c.5522847 0 1-.4477153 1-1s-.4477153-1-1-1z" fill="#d1d4d1"/><rect id="Rectangle-path" fill="#547580" height="6" rx="3" width="58" y="18"/><rect id="Rectangle-path" fill="#547580" height="6" rx="3" width="40" x="9" y="53"/><g fill="#7f8c8d"><path id="Shape" d="m54 24-.36 1.32-.01.01-8.13 7.86-5.5-5.32 4-3.87z"/><path id="Shape" d="m18 27.87-5.5 5.32-8.13-7.86-.01-.01-.36-1.32h10z"/><path id="Shape" d="m50.21 37.74-.57 2.08-.01.01-4.13 3.99-5.5-5.32 5.5-5.31z"/><path id="Shape" d="m49.63 39.83-3.63 13.17h-2l-4-3.87 5.5-5.31z"/><path id="Shape" d="m18 38.5-5.5 5.32-4.13-3.99-.01-.01-.57-2.08 4.71-4.55z"/><path id="Shape" d="m40 49.13-4 3.87h-3l-4-3.87 5.5-5.31z"/><path id="Shape" d="m29 49.13-4 3.87h-3l-4-3.87 5.5-5.31z"/><path id="Shape" d="m18 49.13-4 3.87h-2l-3.63-13.17 4.13 3.99z"/><path id="Shape" d="m29 27.87-5.5 5.31-5.5-5.31 4-3.87h3z"/><path id="Shape" d="m40 38.5-5.5 5.32-5.5-5.32 5.5-5.32z"/><path id="Shape" d="m40 27.87-5.5 5.31-5.5-5.31 4-3.87h3z"/><path id="Shape" d="m29 38.5-5.5 5.32-5.5-5.32 5.5-5.32z"/></g><rect id="Rectangle-path" fill="#67b9cc" height="4" rx="2" width="20" x="8" y="4"/><path id="Shape" d="m50 8.731c.0009718-.33662628-.13091-.66004223-.367-.9l-6.117-6.196c-.3999624-.40605953-.9460401-.63479261-1.516-.635-.5692661.00074235-1.1145245.22943394-1.514.635l-6.119 6.193c-.23609.23995777-.3679718.56337372-.367.9-.0029287.33495772.1275351.65731666.3626061.89595214.2350709.23863548.55543.37393555.8903939.37604786h13.494c.3344401-.00211501.6543415-.13700269.889326-.37498782s.3658025-.55957217.363674-.89401218z" fill="#ecf0f1"/><circle id="Oval" cx="43" cy="6" fill="#3f5c6c" r="1"/></g></g></svg>