<svg height="512" viewBox="0 0 48 58" width="512" xmlns="http://www.w3.org/2000/svg"><g id="Page-1" fill="none" fill-rule="evenodd"><g id="003---Dog-Waste-bin" fill-rule="nonzero"><path id="Rectangle-path" d="m35 15h8v5h-8z" fill="#3f5c6c"/><path id="Rectangle-path" d="m35 37h8v5h-8z" fill="#3f5c6c"/><path id="Rectangle-path" d="m3 9h30v43h-30z" fill="#e64c3c"/><rect id="Rectangle-path" fill="#547580" height="58" rx="1" width="6" x="42"/><path id="Shape" d="m0 9h4v43h-2c-1.1045695 0-2-.8954305-2-2z" fill="#c03a2b"/><path id="Shape" d="m32 9h4v41c0 1.1045695-.8954305 2-2 2h-2z" fill="#c03a2b"/><path id="Rectangle-path" d="m4 10h28v13h-28z" fill="#802f34"/><rect id="Rectangle-path" fill="#2c3e50" height="5" rx="2" width="16" x="10" y="28"/><path id="Shape" d="m5 0h26c1.3260824 0 2.597852.5267842 3.5355339 1.46446609.9376819.9376819 1.4644661 2.20945146 1.4644661 3.53553391v5h-36v-5c0-2.76142375 2.23857625-5 5-5z" fill="#e64c3c"/></g></g></svg>