<svg height="512" viewBox="0 0 58 58" width="512" xmlns="http://www.w3.org/2000/svg"><g id="Page-1" fill="none" fill-rule="evenodd"><g id="004---Large-Bin" fill-rule="nonzero"><circle id="Oval" cx="5" cy="54" fill="#35495e" r="4"/><circle id="Oval" cx="53" cy="54" fill="#35495e" r="4"/><path id="Shape" d="m5 55c-.55228475 0-1-.4477153-1-1v-8c0-.5522847.44771525-1 1-1s1 .4477153 1 1v8c0 .5522847-.44771525 1-1 1z" fill="#3f5c6c"/><path id="Shape" d="m53 55c-.5522847 0-1-.4477153-1-1v-8c0-.5522847.4477153-1 1-1s1 .4477153 1 1v8c0 .5522847-.4477153 1-1 1z" fill="#3f5c6c"/><path id="Shape" d="m56 13-2 33h-50l-2-33 11.99-.44 2-.08 12.01-.44 1-.04 1 .04 12.01.44 2 .08z" fill="#95a5a5"/><path id="Shape" d="m47 46-1.447 2.894c-.3386882.677781-1.0313083 1.1059743-1.789 1.106h-29.528c-.7576917-.0000257-1.4503118-.428219-1.789-1.106l-1.447-2.894z" fill="#547580"/><g fill="#7f8c8d"><path id="Shape" d="m17 46h-2l-1.01-33.44 2-.08z"/><path id="Shape" d="m44.01 12.56-1.01 33.44h-2l1.01-33.52z"/><path id="Rectangle-path" d="m28 12h2v34h-2z"/><path id="Shape" d="m57 10v-5c0-1.1045695-.8954305-2-2-2h-52c-1.1045695 0-2 .8954305-2 2v5z"/></g><path id="Shape" d="m15 0h28c1.1045695 0 2 .8954305 2 2v7h-32v-7c0-1.1045695.8954305-2 2-2z" fill="#95a5a5"/><rect id="Rectangle-path" fill="#547580" height="4" rx="1" width="58" y="9"/></g></g></svg>