<svg height="512" viewBox="0 0 58 58" width="512" xmlns="http://www.w3.org/2000/svg"><g id="Page-1" fill="none" fill-rule="evenodd"><g id="005---Over-Full-Bin" fill-rule="nonzero"><path id="Shape" d="m54.236 18c.931409-1.0249246 1.0367756-2.5554391.2546076-3.698333-.7821681-1.1428939-2.2469957-1.5988067-3.5396076-1.101667-.3940421-3.40677429-3.2001425-6.02526489-6.626-6.183-1.0359826-2.19716239-3.1369938-3.70015565-5.551-3.971-1.2357117-1.80437308-3.2442019-2.92697186-5.4285232-3.0341465-2.1843212-.10717464-4.2930611.81341051-5.6994768 2.4881465-.8170662-.53984883-1.8467575-.64520804-2.7562234-.28201998-.909466.36318805-1.5833348 1.14885053-1.8037766 2.10301998-3.3411512-1.03897233-6.936299.54871735-8.419 3.718-.22-.026-.442-.039-.667-.039-3.5552792.00159253-6.5446827 2.6680149-6.951 6.2-1.0894651-.4050146-2.31484324-.1442723-3.14502904.6692156-.83018581.8134879-1.11576873 2.033316-.73297096 3.1307844l25.829 2z" fill="#a56a43"/><g fill="#805333"><circle id="Oval" cx="35" cy="8" r="1"/><circle id="Oval" cx="17" cy="13" r="1"/><circle id="Oval" cx="22" cy="9" r="1"/><circle id="Oval" cx="28" cy="14" r="1"/><circle id="Oval" cx="28" cy="8" r="1"/><circle id="Oval" cx="38" cy="14" r="1"/><circle id="Oval" cx="43" cy="12" r="1"/></g><path id="Shape" d="m4 8c-.26519481-.00005664-.51950727-.10545063-.707-.293l-1-1c-.37897221-.39237889-.37355237-1.01608478.01218142-1.40181858.3857338-.38573379 1.00943969-.39115363 1.40181858-.01218142l.293.293.293-.293c.39237889-.37897221 1.01608478-.37355237 1.40181858.01218142.38573379.3857338.39115363 1.00943969.01218142 1.40181858l-1 1c-.18749273.18754937-.44180519.29294336-.707.293z" fill="#547580"/><path id="Shape" d="m10 3c-.26519481-.00005664-.51950727-.10545063-.707-.293l-1-1c-.37897221-.39237889-.37355237-1.01608478.01218142-1.40181857.3857338-.3857338 1.00943969-.39115364 1.40181858-.01218143l.293.293.293-.293c.3923789-.37897221 1.0160848-.37355237 1.4018186.01218143.3857338.38573379.3911536 1.00943968.0121814 1.40181857l-1 1c-.1874927.18754937-.4418052.29294336-.707.293z" fill="#547580"/><path id="Shape" d="m51 6c-.2651948-.00005664-.5195073-.10545063-.707-.293l-1-1c-.3789722-.39237889-.3735524-1.01608478.0121814-1.40181858.3857338-.38573379 1.0094397-.39115363 1.4018186-.01218142l.293.293.293-.293c.2510745-.25995658.6228779-.3642126.9725073-.27269716.3496295.09151544.6226744.3645604.7141899.71418984.0915154.34962943-.0127406.72143285-.2726972.97250732l-1 1c-.1874927.18754937-.4418052.29294336-.707.293z" fill="#547580"/><circle id="Oval" cx="5" cy="54" fill="#547580" r="4"/><circle id="Oval" cx="53" cy="54" fill="#547580" r="4"/><path id="Shape" d="m5 55c-.55228475 0-1-.4477153-1-1v-8c0-.5522847.44771525-1 1-1s1 .4477153 1 1v8c0 .5522847-.44771525 1-1 1z" fill="#2c3e50"/><path id="Shape" d="m53 55c-.5522847 0-1-.4477153-1-1v-8c0-.5522847.4477153-1 1-1s1 .4477153 1 1v8c0 .5522847-.4477153 1-1 1z" fill="#2c3e50"/><path id="Shape" d="m47 46-1.447 2.894c-.3386882.677781-1.0313083 1.1059743-1.789 1.106h-29.528c-.7576917-.0000257-1.4503118-.428219-1.789-1.106l-1.447-2.894 18-1z" fill="#3f5c6c"/><path id="Shape" d="m56 22-2 24h-50l-2-24 11.98-.44 2-.08 12.02-.44 1-.04 1 .04 12.02.44 2 .08z" fill="#35495e"/><path id="Shape" d="m17 46h-2l-1.02-24.44 2-.08z" fill="#2c3e50"/><path id="Shape" d="m44.02 21.56-1.02 24.44h-2l1.02-24.52z" fill="#2c3e50"/><path id="Shape" d="m30 21.04v24.96h-2v-24.96l1-.04z" fill="#2c3e50"/><rect id="Rectangle-path" fill="#3f5c6c" height="4" rx="1" width="58" y="18"/></g></g></svg>