<svg height="512" viewBox="0 0 44 58" width="512" xmlns="http://www.w3.org/2000/svg"><g id="Page-1" fill="none" fill-rule="evenodd"><g id="006---Street-Bin" fill-rule="nonzero"><path id="Shape" d="m41 19-4.552 35.509c-.2560972 1.9961914-1.9554479 3.4912603-3.968 3.491h-20.96c-2.01255207.0002603-3.71190276-1.4948086-3.968-3.491l-4.552-35.509 20-2z" fill="#2fa8cc"/><g fill="#67b9cc"><path id="Shape" d="m3 13 2.463-10.675c.31435906-1.36132699 1.52684839-2.32543017 2.924-2.325h27.226c1.3971516-.00043017 2.6096409.96367301 2.924 2.325l2.463 10.675-19 2z"/><path id="Shape" d="m12 49c-.502841-.0004539-.9271394-.3742305-.991-.873l-3.077-24c-.07014015-.5478665.31713354-1.0488598.865-1.119.54786647-.0701401 1.04885983.3171335 1.119.865l3.077 24c.0337089.2630993-.0384921.5288124-.2007159.7386718s-.4011783.3466701-.6642841.3803282c-.0424305.0056217-.0851997.0082947-.128.008z"/><path id="Shape" d="m32 49c-.0428003.0002947-.0855695-.0023783-.128-.008-.2631058-.0336581-.5020603-.1704688-.6642841-.3803282s-.2344248-.4755725-.2007159-.7386718l3.077-24c.0453727-.3544075.276373-.6576874.6059852-.7955972.3296123-.1379098.7077605-.0894977.992.127s.4313875.5681897.3860148.9225972l-3.077 24c-.0638606.4987695-.488159.8725461-.991.873z"/></g><path id="Shape" d="m35.98 9h-27.96l.8-3.45c.20962868-.9077944 1.01831631-1.55059739 1.95-1.55h22.46c.9316837-.00059739 1.7403713.6422056 1.95 1.55z" fill="#35495e"/><path id="Shape" d="m36.9 13h-29.8l.92-4h27.96z" fill="#2c3e50"/><rect id="Rectangle-path" fill="#9fc9d3" height="6" rx="1" width="44" y="13"/></g></g></svg>