<svg height="512" viewBox="0 0 58 58" width="512" xmlns="http://www.w3.org/2000/svg"><g id="Page-1" fill="none" fill-rule="evenodd"><g id="007---Toxic-Waste" fill-rule="nonzero"><path id="Shape" d="m2 6 3.913 20 1.174 6 3.913 20 18 2 18-2 3.913-20 1.174-6 3.913-20-28-2z" fill="#f29c1f"/><g fill="#f0c419"><rect id="Rectangle-path" height="6" rx="2" width="58"/><path id="Shape" d="m45.73 26h7.27c.5522847 0 1 .4477153 1 1v4c0 .5522847-.4477153 1-1 1h-7.27z"/><path id="Shape" d="m12.27 32h-7.27c-.55228475 0-1-.4477153-1-1v-4c0-.5522847.44771525-1 1-1h7.27z"/><path id="Shape" d="m11 52h36v3c0 1.6568542-1.3431458 3-3 3h-30c-1.6568542 0-3-1.3431458-3-3z"/></g><circle id="Oval" cx="29" cy="29" fill="#f3d55b" r="17"/><circle id="Oval" cx="29" cy="29" fill="#35495e" r="2"/><path id="Shape" d="m35.023 18.682-2.536 4.339c-.254982.4318465-.790398.6080377-1.252.412-1.4340818-.5772978-3.0359182-.5772978-4.47 0-.461602.1960377-.997018.0198465-1.252-.412l-2.536-4.339c-.1412548-.2438904-.1740635-.5357448-.0904837-.8049099.0835799-.2691651.2759293-.4911045.5304837-.6120901 3.5309296-1.686611 7.6350704-1.686611 11.166 0 .2545544.1209856.4469038.342925.5304837.6120901.0835798.2691651.0507711.5610195-.0904837.8049099z" fill="#35495e"/><path id="Shape" d="m17.053 28.943 5.028.027c.4926106-.0000102.9094851.3639006.976.852.2117021 1.5413824 1.0146435 2.9399851 2.239 3.9.4003622.3017712.5153844.8533646.269 1.29l-2.489 4.366c-.1404953.2443192-.3767715.4187424-.6516331.4810469-.2748617.0623045-.5632544.0068111-.7953669-.1530469-3.2259818-2.2152696-5.2782415-5.7696042-5.584-9.671-.0232352-.2814947.072582-.5598408.2641635-.7673875.1915816-.2075467.4613853-.3252899.7438365-.3246125z" fill="#35495e"/><path id="Shape" d="m34.924 39.375-2.489-4.366c-.2463844-.4366354-.1313622-.9882288.269-1.29 1.2243565-.9600149 2.0272979-2.3586176 2.239-3.9.0665149-.4880994.4833894-.8520102.976-.852l5.028-.027c.2818852-.0006081.5511727.1167287.7426541.323597.1914815.2068683.2876963.4844046.2653459.765403-.3057585 3.9013958-2.3580182 7.4557304-5.584 9.671-.2317346.1601074-.5198441.2160638-.7946628.1543388s-.5113273-.235512-.6523372-.4793388z" fill="#35495e"/></g></g></svg>