<svg height="512" viewBox="0 0 58 58" width="512" xmlns="http://www.w3.org/2000/svg"><g id="Page-1" fill="none" fill-rule="evenodd"><g id="008---Swinging-Bin" fill-rule="nonzero"><path id="Rectangle-path" d="m43 3h7v2h-7z" fill="#7f8c8d"/><path id="Rectangle-path" d="m8 18h7v4h-7z" fill="#35495e"/><path id="Shape" d="m2 18h4v4h-4c-1.1045695 0-2-.8954305-2-2s.8954305-2 2-2z" fill="#35495e"/><path id="Rectangle-path" d="m43 18h7v4h-7z" fill="#35495e" transform="matrix(-1 0 0 -1 93 40)"/><path id="Shape" d="m54 18h4v4h-4c-1.1045695 0-2-.8954305-2-2s.8954305-2 2-2z" fill="#35495e" transform="matrix(-1 0 0 -1 110 40)"/><path id="Shape" d="m7 0c1.1045695 0 2 .8954305 2 2v53h-4v-53c0-1.1045695.8954305-2 2-2z" fill="#3f5c6c"/><path id="Shape" d="m51 0c1.1045695 0 2 .8954305 2 2v53h-4v-53c0-1.1045695.8954305-2 2-2z" fill="#3f5c6c"/><rect id="Rectangle-path" fill="#35495e" height="4" rx="2" width="14" y="54"/><rect id="Rectangle-path" fill="#35495e" height="4" rx="2" width="14" x="44" y="54"/><path id="Shape" d="m15 10h28c.5522847 0 1 .4477153 1 1v33c0 3.3137085-2.6862915 6-6 6h-18c-3.3137085 0-6-2.6862915-6-6v-33c0-.5522847.4477153-1 1-1z" fill="#95a5a5"/><rect id="Rectangle-path" fill="#95a5a5" height="4" rx="2" width="30" x="14" y="2"/><g fill="#7f8c8d"><path id="Shape" d="m19 44c-.5522847 0-1-.4477153-1-1v-29c0-.5522847.4477153-1 1-1s1 .4477153 1 1v29c0 .5522847-.4477153 1-1 1z"/><path id="Shape" d="m24 44c-.5522847 0-1-.4477153-1-1v-29c0-.5522847.4477153-1 1-1s1 .4477153 1 1v29c0 .5522847-.4477153 1-1 1z"/><path id="Shape" d="m34 44c-.5522847 0-1-.4477153-1-1v-29c0-.5522847.4477153-1 1-1s1 .4477153 1 1v29c0 .5522847-.4477153 1-1 1z"/><path id="Shape" d="m39 44c-.5522847 0-1-.4477153-1-1v-29c0-.5522847.4477153-1 1-1s1 .4477153 1 1v29c0 .5522847-.4477153 1-1 1z"/><path id="Shape" d="m29 44c-.5522847 0-1-.4477153-1-1v-29c0-.5522847.4477153-1 1-1s1 .4477153 1 1v29c0 .5522847-.4477153 1-1 1z"/></g><path id="Shape" d="m44 11v3h-30v-3c0-.5522847.4477153-1 1-1h28c.5522847 0 1 .4477153 1 1z" fill="#547580"/></g></g></svg>