<svg height="512" viewBox="0 0 48 58" width="512" xmlns="http://www.w3.org/2000/svg"><g id="Page-1" fill="none" fill-rule="evenodd"><g id="009---Old-Food-Tin" fill-rule="nonzero"><path id="Rectangle-path" d="m3 32h42v22h-42z" fill="#955ba5"/><path id="Shape" d="m12 27.953c-4.98466909-7.5146714-3.6395022-17.5581705 3.1469538-23.49628699 6.7864559-5.93811651 16.9196365-5.93811651 23.7060924 0 6.786456 5.93811649 8.1316229 15.98161559 3.1469538 23.49628699l-14.5 1.5z" fill="#95a5a5"/><rect id="Rectangle-path" fill="#b49aca" height="5" rx="2.5" width="48" y="53"/><rect id="Rectangle-path" fill="#b49aca" height="5" rx="2.5" width="48" y="28"/><g fill="#894b9d"><path id="Shape" d="m45 37v2h-37c-.55228475 0-1-.4477153-1-1s.44771525-1 1-1z"/><path id="Shape" d="m41 43c0 .5522847-.4477153 1-1 1h-37v-2h37c.5522847 0 1 .4477153 1 1z"/><path id="Shape" d="m45 47v2h-37c-.55228475 0-1-.4477153-1-1s.44771525-1 1-1z"/></g><path id="Shape" d="m17.22 28c-4.0707171-3.9781521-5.3277855-10.024827-3.1799051-15.2957892 2.1478803-5.27096217 7.2731187-8.71689151 12.9649051-8.71689151s10.8170248 3.44592934 12.9649051 8.71689151c2.1478804 5.2709622.890812 11.3176371-3.1799051 15.2957892z" fill="#7f8c8d"/><circle id="Oval" cx="27" cy="18" fill="#95a5a5" r="10"/><circle id="Oval" cx="27" cy="18" fill="#7f8c8d" r="6"/><circle id="Oval" cx="27" cy="18" fill="#95a5a5" r="2"/></g></g></svg>