<svg height="512" viewBox="0 0 46 59" width="512" xmlns="http://www.w3.org/2000/svg"><g id="Page-1" fill="none" fill-rule="evenodd"><g id="011---Apple-Core" fill-rule="nonzero" transform="translate(0 -1)"><path id="Shape" d="m22.732 14.953c-.2952503.0002152-.5755047-.1300539-.7656741-.3559042s-.2708138-.5241942-.2203259-.8150958c1.481-8.509-4.061-10.831-4.118-10.854-.3389423-.12775814-.5822999-.42881658-.636171-.78700919s.0901673-.71751423.3765367-.93931735.6702945-.27140774 1.0036343-.12967346c.071.028 7.1 2.965 5.344 13.053-.0835077.4782759-.4984889.8274674-.984.828z" fill="#805333"/><path id="Shape" d="m39.406 48.78c-2.078-3.832-3.406-9.922-3.406-16.78 0-6.406 1.174-12.17 3-16l-31.623.841c1.83540457 4.8388459 2.7258183 9.9847785 2.623 15.159 0 6.858-1.328 12.948-3.406 16.78z" fill="#f9eab0"/><path id="Shape" d="m23.019 11s2.015-3 10.072-3c7.131 0 11.9 4.673 12.9 11.3.0558756.3934081-.1264748.782573-.4645362.9913947-.3380613.2088218-.7676853.1976756-1.0944638-.0283947-1.2735627-.8361358-2.766542-1.2756773-4.29-1.263-1.7813796-.0180668-3.5121203.5923663-4.888 1.724-.374224.3200877-.925776.3200877-1.3 0-1.3770642-1.1322945-3.1092928-1.7427529-4.892-1.724h-.038c-1.9985423-.0294146-3.9251259.7452543-5.347 2.15-.3850054.3829019-1.0069946.3829019-1.392 0-1.4219371-1.4046498-3.3484787-2.1793019-5.347-2.15-1.7816795-.0180453-3.5127281.5923715-4.889 1.724-.374224.3200877-.925776.3200877-1.3 0-1.37667182-1.1322999-3.10859268-1.7427745-4.891-1.724-1.52285027-.0108959-3.01473424.4300224-4.287 1.267-.32738832.22687-.7581962.2378152-1.09668251.0278625-.33848632-.2099527-.52009769-.6007628-.46231749-.9948625 1-6.631 5.766-11.3 12.9-11.3 8.057 0 10.072 3 10.072 3z" fill="#e64c3c"/><path id="Shape" d="m6.205 16c-.38670883-.000198-.73864186-.2233434-.90375441-.5730312-.16511256-.3496879-.11380578-.7632315.13175441-1.0619688 1.86823813-2.2288451 4.6606431-3.470611 7.567-3.365.5522847 0 1 .4477153 1 1s-.4477153 1-1 1c-2.3064159-.0958134-4.5281945.877091-6.022 2.637-.19044704.2304704-.47402467.3636381-.773.363z" fill="#fb7b76"/><path id="Shape" d="m29 47c1.7711492.0175138 3.491106-.5937193 4.854-1.725.3711591-.3201745.9208409-.3201745 1.292 0 1.362894 1.1312807 3.0828508 1.7425138 4.854 1.725 1.4323645.0072983 2.8358479-.4027315 4.039-1.18.3465339-.2172515.7904371-.2015766 1.120784.0395767s.4805411.6591693.379216 1.0554233c-1.246 4.615-5.804 13.085-22.539 13.085s-21.293-8.47-22.535-13.085c-.10132505-.396254.04886907-.81427.379216-1.0554233s.77425005-.2568282 1.120784-.0395767c1.20201047.7765228 2.60399536 1.1865208 4.035 1.18 1.77114918.0175138 3.49110599-.5937193 4.854-1.725.3711591-.3201745.9208409-.3201745 1.292 0 1.362894 1.1312807 3.0828508 1.7425138 4.854 1.725 1.9871432.0283355 3.9015329-.7469401 5.309-2.15.1793345-.1905066.4293636-.2985233.691-.2985233s.5116655.1080167.691.2985233c1.4074671 1.4030599 3.3218568 2.1783355 5.309 2.15z" fill="#e64c3c"/><path id="Shape" d="m14.182 42c-.0637525-.0001355-.1273562-.0061611-.19-.018-.2604455-.0501204-.4903124-.2016525-.6390298-.4212591-.1487173-.2196066-.2041023-.4892976-.1539702-.7497409.5449409-2.9050739.8131416-5.8552822.801-8.811.0039919-2.2943198-.1544038-4.5860454-.474-6.858-.0613424-.35848.0767773-.7220011.3606873-.9493026.2839099-.2273015.6688426-.2825419 1.0052169-.1442555.3363743.1382865.5711501.4482945.6130958.8095581.3335952 2.365975.49901 4.7526262.495 7.142.0122227 3.0825771-.268033 6.1593618-.837 9.189-.0905386.4704077-.5019588.8105319-.981.811z" fill="#fac176"/><path id="Shape" d="m31.818 42c-.4790412-.0004681-.8904614-.3405923-.981-.811-.568967-3.0296382-.8492227-6.1064229-.837-9.189-.00401-2.3893738.1614048-4.776025.495-7.142.0419457-.3612636.2767215-.6712716.6130958-.8095581.3363743-.1382864.721307-.083046 1.0052169.1442555.28391.2273015.4220297.5908226.3606873.9493026-.3195962 2.2719546-.4779919 4.5636802-.474 6.858-.0124713 2.9556861.2553946 5.905894.8 8.811.0501321.2604433-.0052529.5301343-.1539702.7497409-.1487174.2196066-.3785843.3711387-.6390298.4212591-.0623155.0117777-.1255816.0178031-.189.018z" fill="#fac176"/><g fill="#805333"><path id="Shape" d="m21 31c-.2651948-.0000566-.5195073-.1054506-.707-.293l-1-1c-.3789722-.3923789-.3735524-1.0160848.0121814-1.4018186s1.0094397-.3911536 1.4018186-.0121814l1 1c.2859079.2859943.3714219.7160366.216678 1.0896546-.1547439.3736179-.5192821.6172591-.923678.6173454z"/><path id="Shape" d="m20 36c-.4043959-.0000863-.7689341-.2437275-.923678-.6173454-.1547439-.373618-.0692299-.8036603.216678-1.0896546l1-1c.3923789-.3789722 1.0160848-.3735524 1.4018186.0121814s.3911536 1.0094397.0121814 1.4018186l-1 1c-.1874927.1875494-.4418052.2929434-.707.293z"/><path id="Shape" d="m26 36c-.2651948-.0000566-.5195073-.1054506-.707-.293l-1-1c-.3789722-.3923789-.3735524-1.0160848.0121814-1.4018186s1.0094397-.3911536 1.4018186-.0121814l1 1c.2859079.2859943.3714219.7160366.216678 1.0896546-.1547439.3736179-.5192821.6172591-.923678.6173454z"/><path id="Shape" d="m25 31c-.4043959-.0000863-.7689341-.2437275-.923678-.6173454-.1547439-.373618-.0692299-.8036603.216678-1.0896546l1-1c.3923789-.3789722 1.0160848-.3735524 1.4018186.0121814s.3911536 1.0094397.0121814 1.4018186l-1 1c-.1874927.1875494-.4418052.2929434-.707.293z"/></g><circle id="Oval" cx="17" cy="12" fill="#fb7b76" r="1"/></g></g></svg>