<svg height="512" viewBox="0 0 58 30" width="512" xmlns="http://www.w3.org/2000/svg"><g id="Page-1" fill="none" fill-rule="evenodd"><g id="013---Cracked-Glasses" fill-rule="nonzero"><path id="Shape" d="m2.9 22.51-2.5 3.75c-.70204278 1.0643522-.45698461 2.4909409.56 3.26.55180673.413238 1.25436601.5699238 1.92946985.4303131s1.25788948-.5621043 1.60053015-1.1603131l2-3.5z" fill="#f29c1f"/><path id="Shape" d="m55.1 22.51 2.5 3.75c.7020428 1.0643522.4569846 2.4909409-.56 3.26-.5518067.413238-1.254366.5699238-1.9294698.4303131-.6751039-.1396107-1.2578895-.5621043-1.6005302-1.1603131l-2-3.5z" fill="#f29c1f"/><path id="Shape" d="m57 0h-21c-1.7805433.00000494-3.4267428.94689339-4.322 2.486-.5601567.94474143-1.5797009 1.52113792-2.678 1.514-1.0982991.00713792-2.1178433-.56925857-2.678-1.514-.8952572-1.53910661-2.5414567-2.48599506-4.322-2.486h-21c-.55228475 0-1 .44771525-1 1v2.586c.00005664.26519481.10545063.51950727.293.707l.414.414c.18754938.18749273.29294336.44180519.293.707v11.586c0 4.9705627 4.02943725 9 9 9h4c3.4478144 0 6.7544152-1.3696389 9.1923882-3.8076118 2.4379729-2.437973 3.8076118-5.7445738 3.8076118-9.1923882v-2.893c-.0222852-1.0048321.6787841-1.88116875 1.664-2.08.5810531-.09902451 1.1761996.06330397 1.6265064.44363588.4503068.38033192.7099139.93993353.7094936 1.52936412v3c0 7.1797017 5.8202983 13 13 13h4c4.9705627 0 9-4.0294373 9-9v-11.586c.0000566-.26519481.1054506-.51950727.293-.707l.414-.414c.1875494-.18749273.2929434-.44180519.293-.707v-2.586c0-.55228475-.4477153-1-1-1z" fill="#f0c419"/><path id="Shape" d="m53 5v12c-.0001542.7292768-.1606066 1.4496058-.47 2.11-.2848976.6219774-.6971084 1.1772696-1.21 1.63-.9164364.8100629-2.0968672 1.2580577-3.32 1.26h-4c-1.0872466.0003837-2.1652529-.1996237-3.18-.59-.18-.06-.36-.14-.54-.22-.4302118-.1982637-.8447382-.4289276-1.24-.69-2.0024991-1.3110421-3.3935505-3.3723929-3.86-5.72-.1207365-.585613-.1810525-1.1820712-.18-1.78v-8c0-.55228475.4477153-1 1-1h16c.1095007-.00041109.218086.01994865.32.06.4038376.13638721.6768343.51376497.68.94z" fill="#67b9cc"/><path id="Shape" d="m53 5v12c0 2.7614237-2.2385763 5-5 5h-4c-1.2839942.0022756-2.553193-.2740822-3.72-.81 1.546632-6.4756303 4.8112919-12.41420212 9.45-17.19h2.27c.5522847 0 1 .44771525 1 1z" fill="#2fa8cc"/><path id="Shape" d="m23 5v8c0 4.9705627-4.0294373 9-9 9h-4.07c-2.73404847-.0382804-4.93026798-2.2656836-4.93-5v-12c0-.55228475.44771525-1 1-1h16c.5522847 0 1 .44771525 1 1z" fill="#67b9cc"/><path id="Shape" d="m53 6.08-7.5 6 7.03 7.03c-.2848976.6219774-.6971084 1.1772696-1.21 1.63l-7.01-7.01-3.49 7.68c-.18-.06-.36-.14-.54-.22-.4302118-.1982637-.8447382-.4289276-1.24-.69l3.24-7.14-7.1 1.42c-.1207365-.585613-.1810525-1.1820712-.18-1.78v-.22l6.84-1.37-6.84-6.07v-.34c0-.55228475.4477153-1 1-1h.51l6.73 5.99.75-5.99h2.02l-.71 5.68 7.02-5.62c.4038376.13638721.6768343.51376497.68.94z" fill="#2980ba"/><path id="Shape" d="m23 5v8c0 4.9705627-4.0294373 9-9 9h-4.07c-.51459566-6.9520292 2.4708217-13.70297302 7.96-18h4.11c.5522847 0 1 .44771525 1 1z" fill="#2fa8cc"/></g></g></svg>