<svg height="512" viewBox="0 0 34 58" width="512" xmlns="http://www.w3.org/2000/svg"><g id="Page-1" fill="none" fill-rule="evenodd"><g id="014---Smashed-Bottle" fill-rule="nonzero"><path id="Shape" d="m24 6 2.555 13.627c.2857361 1.5225934 1.1493179 2.8756576 2.41 3.776l2.522 1.8c1.5776858 1.1267088 2.5137407 2.9462983 2.513 4.885v26.912c0 .5522847-.4477153 1-1 1h-19c-1.1045695 0-2-.8954305-2-2s-.8954305-2-2-2h-1c-1.1045695 0-2-.8954305-2-2v-1c0-1.1045695-.8954305-2-2-2h-3c-1.1045695 0-2-.8954305-2-2v-16.912c-.00009453-1.937996.93588878-3.7567013 2.513-4.883l2.522-1.8c1.26068213-.9003424 2.12426386-2.2534066 2.41-3.776l2.555-13.629 7-1z" fill="#14a085"/><path id="Shape" d="m11.633 20c-.062068.0002531-.1240176-.0054396-.185-.017-.2609012-.0485511-.4918042-.1988173-.641855-.4177039-.1500509-.2188867-.2069425-.4884409-.158145-.7492961l1.688-9c.1016204-.54289591.6241041-.90062039 1.167-.799s.9006204.62410409.799 1.167l-1.688 9c-.0884296.4723951-.5004003.8150741-.981.816z" fill="#26b99a"/><path id="Shape" d="m34 52h-16.382c-.3464401-.000185-.6681037-.1796678-.8501945-.4743943-.1820909-.2947265-.1986643-.6627032-.0438055-.9726057l.881-1.763c.2259277-.4513309.0801147-1.0002741-.34-1.28l-4.25-2.833c-.2495126-.1662282-.4112774-.435637-.4407264-.734001-.0294489-.2983641.0765257-.5941991.2887264-.805999l1.43-1.43c.2859079-.2859943.3714219-.7160366.216678-1.0896546-.1547439-.3736179-.5192821-.6172591-.923678-.6173454h-13.586v-7h34z" fill="#f0c419"/><circle id="Oval" cx="11" cy="23" fill="#26b99a" r="1"/><rect id="Rectangle-path" fill="#35495e" height="6" rx="3" width="20" x="7"/></g></g></svg>