<svg height="512" viewBox="0 0 44 59" width="512" xmlns="http://www.w3.org/2000/svg"><g id="Page-1" fill="none" fill-rule="evenodd"><g id="015---Crushed-Can" fill-rule="nonzero"><path id="Shape" d="m40 9 3.562 4.452c.283309.3542886.437759.7943654.438 1.248v2.38c-.0002537.5842743-.2559899 1.1392217-.7 1.519l-6.3 5.401 4.305 5.166c.450847.538353.698562 1.2178.7 1.92v2.828c-.001438.7022-.249153 1.381647-.7 1.92l-4.305 5.166 5.488 3.136c.9349695.5340699 1.5120116 1.5282463 1.512 2.605v7.259l-2.8 3.5c-.7590076.9480002-1.9075879 1.4998485-3.122 1.5h-32.156c-1.21441212-.0001515-2.36299243-.5519998-3.122-1.5l-2.8-3.5v-7.259c.00178083-1.0749659.57858079-2.0668177 1.512-2.6l5.488-3.141-4.3-5.166c-.45084696-.538353-.698562-1.2178-.7-1.92v-2.828c.001438-.7022.24915304-1.381647.7-1.92l4.3-5.166-6.3-5.4c-.4442755-.3800054-.70003846-.9353764-.7-1.52v-2.38c-.000213-.4543206.1542626-.8951756.438-1.25l3.562-4.45 18-1z" fill="#7f8c8d"/><path id="Shape" d="m43.3 18.6-6.3 5.4.01.01 1.28 1.54 3.01 3.62c.453566.53678.7016554 1.2172539.7 1.92v2.82c.0016554.7027461-.246434 1.38322-.7 1.92l-4.3 5.17.01.01 1.76 1 3.72 2.13c.9338636.53247 1.5102944 1.5249998 1.51 2.6l.0000908 7.26h-44.00018158l.00009078-7.26c-.00029437-1.0750002.57613641-2.06753 1.51-2.6l3.71-2.12h.01l1.76-1.02h.01l-4.3-5.17c-.45356598-.53678-.70165543-1.2172539-.7-1.92v-2.82c-.00165543-.7027461.24643402-1.38322.7-1.92l3.02-3.63 1.28-1.54-.14-.12-6.16-5.28c-.44188541-.3818078-.69711512-.9360209-.7-1.52v-2.38c-.00237244-.2395473.04177745-.4772775.13-.7h43.74c.0882226.2227225.1323724.4604527.13.7v2.38c-.0028849.5839791-.2581146 1.1381922-.7 1.52z" fill="#e64c3c"/><g fill="#c03a2b"><path id="Shape" d="m12.21 29.64c-.1695482.2045071-.4135008.3331478-.6780285.3575369s-.5278889-.057478-.7319715-.2275369l-5.08-4.23 1.28-1.54 5.08 4.23c.4206973.3558517.4785403.9832257.13 1.41z"/><path id="Shape" d="m9.7 45.71c-.1694984.1350669-.37434749.2183953-.59.24-.31263156.0157466-.61509682-.1133544-.82-.35l-3.06-3.58 1.76-1.02 2.82 3.3c.3545274.4211785.3055563 1.048899-.11 1.41z"/><path id="Shape" d="m38.29 25.55-5.06 4.22c-.1799121.1490812-.4063478.2304565-.64.23-.294885.0017626-.5745588-.1307145-.76-.36-.1712242-.2028225-.2547874-.4653978-.2322787-.7298748s.1492423-.5091546.3522787-.6801252l5.06-4.22z"/><path id="Shape" d="m38.77 42.01-2.93 3.57c-.1997258.244635-.5047336.3785409-.82.36-.2145554-.0111838-.420503-.0879778-.59-.22-.421212-.3555833-.4790954-.9833954-.13-1.41l2.71-3.3z"/></g><path id="Shape" d="m13.8 8.244c-.2270338.00015684-.4472658-.07748907-.624-.22l-7.8-6.243c-.4272994-.34605791-.49504464-.97217923-.15165335-1.40162454.34339129-.42944532.96907876-.50108682 1.40065335-.16037546l7.8 6.244c.3317791.26530889.4597225.71128175.3190546 1.1121292-.140668.40084745-.5192416.66907009-.9440546.6688708z" fill="#7f8c8d"/><rect id="Rectangle-path" fill="#95a5a5" height="4" rx="2" width="40" x="2" y="5"/></g></g></svg>