<svg height="512" viewBox="0 0 58 59" width="512" xmlns="http://www.w3.org/2000/svg"><g id="Page-1" fill="none" fill-rule="evenodd"><g id="018---Bin-And-Trash-Pile" fill-rule="nonzero"><path id="Shape" d="m30.994 59 3.006-38-16-2-16 2 2.78 35.24c.12509117 1.5586281 1.42636026 2.7597995 2.99 2.76z" fill="#95a5a5"/><path id="Shape" d="m55 54c-.05 0-.1.013-.146.016.3356322-1.1986862.0867418-2.485451-.6716672-3.4725241-.758409-.987073-1.9376417-1.5590174-3.1823328-1.5434759-.03 0-.058.008-.089.009-.2954583-1.7888071-1.3859888-3.3472028-2.9653515-4.2375622s-3.4772303-1.0166613-5.1606485-.3434378c-.7957296-2.8921395-3.6050706-4.7522617-6.5783451-4.3556569s-5.196823 2.9280636-5.2066549 5.9276569c-2.9875889.0030832-5.5177348 2.203692-5.935 5.162-.3459307-.1024065-.7042656-.1569138-1.065-.162-1.9057537.0004837-3.5465194 1.3454011-3.921 3.214-.7277516-.3051163-1.5514469-.2832676-2.262.06-1.1310819.5623969-1.8380539 1.7249904-1.817 2.988v.738c0 .5522847.4477153 1 1 1h40c.5522847 0 1-.4477153 1-1v-1c0-1.6568542-1.3431458-3-3-3z" fill="#a56a43"/><path id="Shape" d="m24 13-6 1-6-1v-2c0-1.1045695.8954305-2 2-2h8c1.1045695 0 2 .8954305 2 2z" fill="#547580"/><path id="Shape" d="m2 17v-2c0-1.1045695.8954305-2 2-2h28c1.1045695 0 2 .8954305 2 2v2l-16 1z" fill="#95a5a5"/><circle id="Oval" cx="30" cy="53" fill="#805333" r="1"/><circle id="Oval" cx="34" cy="50" fill="#805333" r="1"/><circle id="Oval" cx="39" cy="54" fill="#805333" r="1"/><circle id="Oval" cx="40" cy="48" fill="#805333" r="1"/><circle id="Oval" cx="45" cy="52" fill="#805333" r="1"/><g fill="#2fa8cc"><path id="Shape" d="m2 3c-.26519481-.00005664-.51950727-.10545063-.707-.293l-1-1c-.37897221-.39237889-.37355237-1.01608478.01218143-1.40181857.38573379-.3857338 1.00943968-.39115364 1.40181857-.01218143l.293.293.293-.293c.39237889-.37897221 1.01608478-.37355237 1.40181858.01218143.38573379.38573379.39115363 1.00943968.01218142 1.40181857l-1 1c-.18749273.18754937-.44180519.29294336-.707.293z"/><path id="Shape" d="m14 5c-.2651948-.00005664-.5195073-.10545063-.707-.293l-1-1c-.3789722-.39237889-.3735524-1.01608478.0121814-1.40181858.3857338-.38573379 1.0094397-.39115363 1.4018186-.01218142l.293.293.293-.293c.2510745-.25995658.6228779-.3642126.9725073-.27269716.3496295.09151544.6226744.3645604.7141899.71418984.0915154.34962943-.0127406.72143285-.2726972.97250732l-1 1c-.1874927.18754937-.4418052.29294336-.707.293z"/><path id="Shape" d="m30 3c-.2651948-.00005664-.5195073-.10545063-.707-.293l-1-1c-.3789722-.39237889-.3735524-1.01608478.0121814-1.40181857.3857338-.3857338 1.0094397-.39115364 1.4018186-.01218143l.293.293.293-.293c.3923789-.37897221 1.0160848-.37355237 1.4018186.01218143.3857338.38573379.3911536 1.00943968.0121814 1.40181857l-1 1c-.1874927.18754937-.4418052.29294336-.707.293z"/><path id="Shape" d="m40 33c-.2651948-.0000566-.5195073-.1054506-.707-.293l-1-1c-.3789722-.3923789-.3735524-1.0160848.0121814-1.4018186s1.0094397-.3911536 1.4018186-.0121814l.293.293.293-.293c.3923789-.3789722 1.0160848-.3735524 1.4018186.0121814s.3911536 1.0094397.0121814 1.4018186l-1 1c-.1874927.1875494-.4418052.2929434-.707.293z"/><path id="Shape" d="m49 38c-.2651948-.0000566-.5195073-.1054506-.707-.293l-1-1c-.3789722-.3923789-.3735524-1.0160848.0121814-1.4018186s1.0094397-.3911536 1.4018186-.0121814l.293.293.293-.293c.3923789-.3789722 1.0160848-.3735524 1.4018186.0121814s.3911536 1.0094397.0121814 1.4018186l-1 1c-.1874927.1875494-.4418052.2929434-.707.293z"/><path id="Shape" d="m51 25c-.2651948-.0000566-.5195073-.1054506-.707-.293l-1-1c-.3789722-.3923789-.3735524-1.0160848.0121814-1.4018186s1.0094397-.3911536 1.4018186-.0121814l.293.293.293-.293c.3923789-.3789722 1.0160848-.3735524 1.4018186.0121814s.3911536 1.0094397.0121814 1.4018186l-1 1c-.1874927.1875494-.4418052.2929434-.707.293z"/></g><rect id="Rectangle-path" fill="#7f8c8d" height="4" rx="1" width="36" y="17"/><path id="Shape" d="m11 54c-.5235604.0015542-.959688-.4009915-1-.923l-2-26c-.02750946-.3572656.13766968-.7020687.43331604-.9045254.29564635-.2024567.6768442-.2318089 1.00000001-.077.3231558.1548089.53917451.4702598.56668395.8275254l2 26c.0212271.2653964-.0642565.5283008-.2375103.7304615s-.4199721.3268853-.6854897.3465385c-.026 0-.053 0-.077 0z" fill="#7f8c8d"/><path id="Shape" d="m25.924 42c-.026 0-.052 0-.078 0-.5506195-.0425424-.9625083-.5233779-.92-1.074l1.077-14c.0159841-.2666166.1391271-.5154328.341415-.6898448.2022878-.1744121.4665197-.2595895.732585-.2361552.2655176.0196532.5122359.1443778.6854897.3465385s.2587374.4650651.2375103.7304615l-1.077 14c-.0402836.521624-.4758239.92403-.999.923z" fill="#7f8c8d"/><path id="Shape" d="m18 48c-.5522847 0-1-.4477153-1-1v-20c0-.5522847.4477153-1 1-1s1 .4477153 1 1v20c0 .5522847-.4477153 1-1 1z" fill="#7f8c8d"/></g></g></svg>