<svg height="512" viewBox="0 0 58 58" width="512" xmlns="http://www.w3.org/2000/svg"><g id="Page-1" fill="none" fill-rule="evenodd"><g id="019---Bottle-Bank" fill-rule="nonzero"><g fill="#f29c1f"><path id="Shape" d="m8 7h-6c-.55228475 0-1-.44771525-1-1s.44771525-1 1-1h6c.55228475 0 1 .44771525 1 1s-.44771525 1-1 1z"/><path id="Shape" d="m56 7h-5c-.5522847 0-1-.44771525-1-1s.4477153-1 1-1h5c.5522847 0 1 .44771525 1 1s-.4477153 1-1 1z"/><path id="Shape" d="m15 55c0 1.6568542-1.3431458 3-3 3s-3-1.3431458-3-3l3-1z"/><path id="Shape" d="m49 55c-.0000001 1.6568542-1.3431458 2.9999999-3 2.9999999s-2.9999999-1.3431457-3-2.9999999l3-1z"/></g><path id="Shape" d="m56 17-2.855 36.157c-.0819039 1.0401437-.9496367 1.8425679-1.993 1.843h-44.304c-1.04336329-.0004321-1.91109606-.8028563-1.993-1.843l-2.855-36.157 28-1z" fill="#f0c419"/><path id="Shape" d="m48.784 0h-39.568c-1.31732979-.00025632-2.48070506.85888901-2.868 2.118l-3.348 10.882 26 1 26-1-3.348-10.882c-.3872949-1.25911099-1.5506702-2.11825632-2.868-2.118z" fill="#f0c419"/><rect id="Rectangle-path" fill="#f3d55b" height="4" rx="2" width="58" y="13"/><circle id="Oval" cx="23" cy="27" fill="#35495e" r="4"/><circle id="Oval" cx="11" cy="27" fill="#35495e" r="4"/><circle id="Oval" cx="35" cy="27" fill="#35495e" r="4"/><circle id="Oval" cx="47" cy="27" fill="#35495e" r="4"/><path id="Shape" d="m37.687 46.94-7.02-11.022c-.3617079-.5713237-.9908023-.9176138-1.667-.9176138s-1.3052921.3462901-1.667.9176138l-7.02 11.022c-.389985.6149888-.4148831 1.3933442-.065 2.032.3464258.6331091 1.0103094 1.0271463 1.732 1.028h4.02c.5522847 0 1-.4477153 1-1s-.4477153-1-1-1l-4 .014 6.978-11.023 7.042 11.009h-3.606l.293-.293c.3789722-.3923789.3735524-1.0160848-.0121814-1.4018186s-1.0094397-.3911536-1.4018186-.0121814l-2 2c-.3903819.3904999-.3903819 1.0235001 0 1.414l2 2c.3923789.3789722 1.0160848.3735524 1.4018186-.0121814s.3911536-1.0094397.0121814-1.4018186l-.293-.293h3.606c.7216906-.0008537 1.3855742-.3948909 1.732-1.028.3498831-.6386558.324985-1.4170112-.065-2.032z" fill="#14a085"/></g></g></svg>