<svg height="512" viewBox="0 0 58 58" width="512" xmlns="http://www.w3.org/2000/svg"><g id="Page-1" fill="none" fill-rule="evenodd"><g id="020---Dustpan-And-Brush" fill-rule="nonzero"><path id="Shape" d="m15 0c1.1045695 0 2 .8954305 2 2v36h-4v-36c0-1.1045695.8954305-2 2-2z" fill="#603e26"/><path id="Shape" d="m12 36h6c1.1045695 0 2 .8954305 2 2v3h-10v-3c0-1.1045695.8954305-2 2-2z" fill="#805333"/><path id="Shape" d="m28 44-8-4h-10l-8 4 13 1z" fill="#a56a43"/><path id="Shape" d="m27 48v9c0 .5522847-.4477153 1-1 1h-22c-.55228475 0-1-.4477153-1-1v-9l12-1z" fill="#f9eab0"/><g fill="#fac176"><path id="Shape" d="m8 52v6h-2v-6c0-.5522847.44771525-1 1-1s1 .4477153 1 1z"/><path id="Shape" d="m12 52v6h-2v-6c0-.5522847.4477153-1 1-1s1 .4477153 1 1z"/><path id="Shape" d="m16 52v6h-2v-6c0-.5522847.4477153-1 1-1s1 .4477153 1 1z"/><path id="Shape" d="m20 52v6h-2v-6c0-.5522847.4477153-1 1-1s1 .4477153 1 1z"/><path id="Shape" d="m24 52v6h-2v-6c0-.5522847.4477153-1 1-1s1 .4477153 1 1z"/></g><path id="Shape" d="m50 24.64v7.86c0 1.5737865.7409708 3.0557281 2 4l4 3c1.2590292.9442719 2 2.4262135 2 4v12.5c-.0032948 1.1032019-.8967981 1.9967052-2 2h-18c-1.1032019-.0032948-1.9967052-.8967981-2-2v-12.5c0-1.5737865.7409708-3.0557281 2-4l4-3c1.2590292-.9442719 2-2.4262135 2-4v-7.86z" fill="#3f5c6c"/><rect id="Rectangle-path" fill="#547580" height="12" rx="4" width="8" x="43" y="14"/><circle id="Oval" cx="47" cy="18" fill="#3f5c6c" r="1"/><rect id="Rectangle-path" fill="#cb8252" height="4" rx="2" width="30" y="44"/><path id="Shape" d="m58 43.5v9.5h-22v-9.5c0-1.5737865.7409708-3.0557281 2-4l4-3c.2025456-.1479808.3901079-.3154472.56-.5h8.88c.1698921.1845528.3574544.3520192.56.5l4 3c1.2590292.9442719 2 2.4262135 2 4z" fill="#35495e"/></g></g></svg>