<svg height="512" viewBox="0 0 46 58" width="512" xmlns="http://www.w3.org/2000/svg"><g id="Page-1" fill="none" fill-rule="evenodd"><g id="021---Paper-Waste" fill-rule="nonzero"><path id="Shape" d="m32 5h-18v-3c0-1.1045695.8954305-2 2-2h14c1.1045695 0 2 .8954305 2 2z" fill="#35495e"/><path id="Shape" d="m3 9v-3c0-1.1045695.8954305-2 2-2h36c1.1045695 0 2 .8954305 2 2v3z" fill="#3f5c6c"/><path id="Shape" d="m44 12-4 42-17 1-17-1-4-42 21-1z" fill="#3f5c6c"/><path id="Shape" d="m6 54h34v3c0 .5522847-.4477153 1-1 1h-32c-.55228475 0-1-.4477153-1-1z" fill="#35495e"/><rect id="Rectangle-path" fill="#547580" height="4" rx="1" width="46" y="8"/><path id="Shape" d="m14 45h-3c-.5522847 0-1-.4477153-1-1v-26c0-.5522847.4477153-1 1-1h20c.5522847 0 1 .4477153 1 1v3z" fill="#f29c1f"/><path id="Shape" d="m36 22v20l-7 7h-14c-.5522847 0-1-.4477153-1-1v-26c0-.5522847.4477153-1 1-1h20c.5522847 0 1 .4477153 1 1z" fill="#f0c419"/><path id="Shape" d="m29 49v-6c0-.5522847.4477153-1 1-1h6z" fill="#f29c1f"/><g fill="#547580"><path id="Shape" d="m31 28h-12c-.5522847 0-1-.4477153-1-1s.4477153-1 1-1h12c.5522847 0 1 .4477153 1 1s-.4477153 1-1 1z"/><path id="Shape" d="m31 32h-12c-.5522847 0-1-.4477153-1-1s.4477153-1 1-1h12c.5522847 0 1 .4477153 1 1s-.4477153 1-1 1z"/><path id="Shape" d="m31 36h-12c-.5522847 0-1-.4477153-1-1s.4477153-1 1-1h12c.5522847 0 1 .4477153 1 1s-.4477153 1-1 1z"/><path id="Shape" d="m27 40h-8c-.5522847 0-1-.4477153-1-1s.4477153-1 1-1h8c.5522847 0 1 .4477153 1 1s-.4477153 1-1 1z"/><path id="Shape" d="m25 44h-6c-.5522847 0-1-.4477153-1-1s.4477153-1 1-1h6c.5522847 0 1 .4477153 1 1s-.4477153 1-1 1z"/></g></g></g></svg>