<svg height="512" viewBox="0 0 46 58" width="512" xmlns="http://www.w3.org/2000/svg"><g id="Page-1" fill="none" fill-rule="evenodd"><g id="022---Glass-Waste" fill-rule="nonzero"><path id="Shape" d="m32 5h-18v-3c0-1.1045695.8954305-2 2-2h14c1.1045695 0 2 .8954305 2 2z" fill="#35495e"/><path id="Shape" d="m3 9v-3c0-1.1045695.8954305-2 2-2h36c1.1045695 0 2 .8954305 2 2v3z" fill="#3f5c6c"/><path id="Shape" d="m44 12-4 42-17 1-17-1-4-42 21-1z" fill="#3f5c6c"/><path id="Shape" d="m6 54h34v3c0 .5522847-.4477153 1-1 1h-32c-.55228475 0-1-.4477153-1-1z" fill="#35495e"/><rect id="Rectangle-path" fill="#547580" height="4" rx="1" width="46" y="8"/><path id="Shape" d="m37.05 28.77-1.89 9.43c-.0950537.4656663-.5047314.800097-.98.8h-4.36c-.4752686.000097-.8849463-.3343337-.98-.8l-1.89-9.47c.4345505.1903783.9057426.2825681 1.38.27 2.5 0 2.5-2 5-2 1.98 0 2.39 1.26 3.72 1.77z" fill="#2fa8cc"/><path id="Shape" d="m21 25.77v1.23c0 2.7614237-2.2385763 5-5 5s-5-2.2385763-5-5v-1.23c.4063066.1638861.8420556.2421848 1.28.23 2.5 0 2.5-2 5-2 1.98 0 2.39 1.26 3.72 1.77z" fill="#802d40"/><g fill="#67b9cc"><path id="Shape" d="m38.2 23.02c-.5411704-.1079009-1.0674584.2429578-1.176.784l-2.844 14.196h-4.36l-2.84-14.2c-.0593016-.3606322-.3106176-.6601885-.6554537-.7812685s-.728259-.0443954-1 .2-.388511.6175689-.3045463.9732685l2.839 14.2c.1868611.9348813 1.007627 1.6079009 1.961 1.608h4.36c.9530648-.0000036 1.7737228-.6725163 1.961-1.607l2.839-14.193c.0530985-.2599175.0007425-.5302825-.1455449-.751589-.1462873-.2213065-.3745164-.3754164-.6344551-.428411z"/><path id="Shape" d="m21 21c-.5522847 0-1 .4477153-1 1v5c0 2.209139-1.790861 4-4 4s-4-1.790861-4-4v-5c0-.5522847-.4477153-1-1-1s-1 .4477153-1 1v5c.0054296 2.9246159 2.1166966 5.4201335 5 5.91v5.09h-3c-.5522847 0-1 .4477153-1 1s.4477153 1 1 1h8c.5522847 0 1-.4477153 1-1s-.4477153-1-1-1h-3v-5.09c2.8833034-.4898665 4.9945704-2.9853841 5-5.91v-5c0-.5522847-.4477153-1-1-1z"/></g></g></g></svg>