<svg height="512" viewBox="0 0 58 59" width="512" xmlns="http://www.w3.org/2000/svg"><g id="Page-1" fill="none" fill-rule="evenodd"><g id="023---Can-in-Ocean" fill-rule="nonzero"><path id="Shape" d="m11.62 33.74c-4.27-.82-5.35-3.4-10.55-3.71-.27615256-.0155809-.54666696.0824345-.74874517.2712927-.20207821.1888581-.31814448.452133-.32125483.7287073v26.97c0 .5522847.44771525 1 1 1h56c.5522847 0 1-.4477153 1-1v-26.968c-.001705-.2766744-.1170607-.5404847-.3190267-.7295915s-.4727845-.2868828-.7489733-.2704085c-6.201.368-6.557 3.968-13.432 3.968-.5845594.002835-1.1688155-.0272124-1.75-.09z" fill="#3b97d3"/><path id="Shape" d="m46.54 22.04-8.28 20.5c-3.29-1.05-4.33-3.54-9.27-3.54-6.24 0-6.24 4-12.49 4-3.94 0-5.39-1.59-7.5-2.76l11.58-28.68c.05-.13.11-.25.17-.37.3335714-.6478751.8430658-1.188563 1.47-1.56.03-.02.07-.04.1-.06l4.36-2.45 9.32 1.88 9.23 5.6 1.43 4.79c.2612333.8714367.2189252 1.8057403-.12 2.65z" fill="#e64c3c"/><path id="Shape" d="m41.5 53c-2.438556.0413451-4.8236311-.7165686-6.791-2.158-1.6430323-1.2411412-3.6574435-1.8902919-5.716-1.842-2.0559366-.0471868-4.0674634.6019429-5.708 1.842-1.9651511 1.4413102-4.3483035 2.1992826-6.785 2.158-2.4379181.0412014-4.8223141-.7167197-6.789-2.158-1.64142194-1.2405608-3.65406518-1.8897096-5.711-1.842-.55228475 0-1-.4477153-1-1s.44771525-1 1-1c2.43791813-.0412014 4.82231405.7167197 6.789 2.158 1.6414219 1.2405608 3.6540652 1.8897096 5.711 1.842 2.0559595.0473444 4.0675369-.6018016 5.708-1.842 1.9652525-1.4411108 4.3483359-2.1990613 6.785-2.158 2.4386099-.0417137 4.8237998.7162365 6.791 2.158 3.4123696 2.4559819 8.0126304 2.4559819 11.425 0 1.9673689-1.4414314 4.352444-2.1993451 6.791-2.158.5522847 0 1 .4477153 1 1s-.4477153 1-1 1c-2.0572064-.0474635-4.070087.6016482-5.712 1.842-1.9665468 1.4408065-4.3504656 2.1986876-6.788 2.158z" fill="#2980ba"/><path id="Shape" d="m32.813 8.08c-.4012802-.00032704-.7635008-.24049505-.92-.61l-2.583-6.079c-.2159433-.50837811.0211219-1.09555666.5295-1.3115s1.0955567.02112189 1.3115.5295l2.582 6.079c.1316255.30890525.0994321.6632504-.0857087.94337646-.1851407.28012606-.498512.44863522-.8342913.44862354z" fill="#7f8c8d"/><path id="Shape" d="m31.19 39.19c.8939253-1.0338701 1.5828559-2.2284691 2.03-3.52 1.61-4.56.1-9.25-3.37-10.48s-7.59 1.48-9.21 6.04c-1.39 3.94-.45 7.98 2.08 9.79l4.28-2.02z" fill="#f0c419"/><path id="Shape" d="m42.43 18.87c-.1571899.3748188-.5235558.6190627-.93.62-.1267195.0010343-.2524161-.0227462-.37-.07l-20.38-8.23c.3335714-.6478751.8430658-1.188563 1.47-1.56l19.66 7.93c.247471.0997768.4448032.2943172.5480958.5403415.1032926.2460242.1039782.5231262.0019042.7696585z" fill="#c03a2b"/><rect id="Rectangle-path" fill="#95a5a5" height="4" rx="2" transform="matrix(.927 .374 -.374 .927 6.04 -13.084)" width="24" x="24.704" y="7.006"/><path id="Shape" d="m41.5 44c-2.438556.0413451-4.8236311-.7165686-6.791-2.158-1.6430323-1.2411412-3.6574435-1.8902919-5.716-1.842-2.0559366-.0471868-4.0674634.6019429-5.708 1.842-1.9651511 1.4413102-4.3483035 2.1992826-6.785 2.158-2.4379181.0412014-4.8223141-.7167197-6.789-2.158-1.64142194-1.2405608-3.65406518-1.8897096-5.711-1.842-.55228475 0-1-.4477153-1-1s.44771525-1 1-1c2.43791813-.0412014 4.82231405.7167197 6.789 2.158 1.6414219 1.2405608 3.6540652 1.8897096 5.711 1.842 2.0559595.0473444 4.0675369-.6018016 5.708-1.842 1.9652525-1.4411108 4.3483359-2.1990613 6.785-2.158 2.4386099-.0417137 4.8237998.7162365 6.791 2.158 3.4123696 2.4559819 8.0126304 2.4559819 11.425 0 1.9673689-1.4414314 4.352444-2.1993451 6.791-2.158.5522847 0 1 .4477153 1 1s-.4477153 1-1 1c-2.0572064-.0474635-4.070087.6016482-5.712 1.842-1.9665468 1.4408065-4.3504656 2.1986876-6.788 2.158z" fill="#2980ba"/></g></g></svg>