<svg height="512" viewBox="0 0 58 58" width="512" xmlns="http://www.w3.org/2000/svg"><g id="Page-1" fill="none" fill-rule="evenodd"><g id="024---Bin-With-Bin-Bags" fill-rule="nonzero"><path id="Shape" d="m45 34.25c6.963-1.75 13 6.015 13 12.75-.003127 3.417561-1.5931145 6.6399025-4.3034846 8.7216391-2.7103701 2.0817365-6.23378 2.7868094-9.5365154 1.9083609z" fill="#f0c419"/><path id="Shape" d="m45 33.46c1.2364672.7181764 2.7625302.7205557 4.0012308.0062384 1.2387006-.7143174 2.001028-2.0363351 1.9987692-3.4662384v-1c0-.5522847-.4477153-1-1-1h-5l-1 3z" fill="#f3d55b"/><path id="Shape" d="m13 55v-47c.0032948-1.10320187.8967981-1.9967052 2-2h28c1.1032019.0032948 1.9967052.89679813 2 2v48c-.0032948 1.1032019-.8967981 1.9967052-2 2h-28c-.4161835.0032195-.8225448-.1263957-1.16-.37z" fill="#95a5a5"/><path id="Shape" d="m21 7v-5c0-1.1045695.8954305-2 2-2h12c1.1045695 0 2 .8954305 2 2v5z" fill="#35495e"/><g fill="#7f8c8d"><path id="Shape" d="m22 47v-25c-.0081672-1.1011688-.8988312-1.9918328-2-2-1.1032019.0032948-1.9967052.8967981-2 2v15.32z"/><rect id="Rectangle-path" height="32" rx="2" width="4" x="27" y="20"/><rect id="Rectangle-path" height="32" rx="2" width="4" x="36" y="20"/></g><path id="Shape" d="m22 47c0 6.0751322-4.9248678 11-11 11-6.07513225 0-11-4.9248678-11-11 0-6.075 4.925-13 11-13s11 6.925 11 13z" fill="#f0c419"/><path id="Shape" d="m4 48c-.55228475 0-1-.4477153-1-1 0-3.722 2.5-7.948 5.567-9.421.49110194-.2066464 1.05798061.0080503 1.28897646.4881802.23099584.48013.04497513 1.0570549-.42297646 1.3118198-2.362 1.136-4.433 4.696-4.433 7.621 0 .5522847-.44771525 1-1 1z" fill="#f9eab0"/><path id="Shape" d="m8 28h6c.5522847 0 1 .4477153 1 1v1c0 2.209139-1.790861 4-4 4s-4-1.790861-4-4v-1c0-.5522847.44771525-1 1-1z" fill="#f3d55b"/><path id="Shape" d="m45 8v6h-32v-6c.0032948-1.10320187.8967981-1.9967052 2-2h28c1.1032019.0032948 1.9967052.89679813 2 2z" fill="#547580"/></g></g></svg>