<svg height="512" viewBox="0 0 58 58" width="512" xmlns="http://www.w3.org/2000/svg"><g id="Page-1" fill="none" fill-rule="evenodd"><g id="025---Empty-Dustpan" fill-rule="nonzero" transform="translate(0 -1)"><path id="Shape" d="m14.879 44.913c-.2662786-.0022648-.5294239-.0576817-.774-.163-.4954339-.2007264-.7454008-.7555947-.5674771-1.2596671.1779236-.5040724.720815-.7790836 1.2324771-.6243329.2210811-.5968489.329253-1.2296036.319-1.866 0-.5522847.4477153-1 1-1s1 .4477153 1 1c0 .653-.091 2.846-1.269 3.628-.2784372.1862701-.6060021.2854795-.941.285z" fill="#805333"/><path id="Shape" d="m15.317 49.316c.014.03-1.434.12-4.184 2.855s-2.841 4.173-2.87 4.161l-5.581-5.549c-.009-.029 1.439-.124 4.185-2.855 2.708-2.693 2.838-4.13 2.869-4.16z" fill="#f9eab0"/><path id="Shape" d="m39.788 24.771 16.672-15.431c1.295138-1.19767199 1.8311303-3.0079982 1.3967998-4.71772261s-1.7693528-3.04474665-3.4790772-3.47907719-3.5200506.10166182-4.7177226 1.3967998l-15.431 16.672z" fill="#a56a43"/><path id="Shape" d="m44.51 34.58-11.77 13.73c-.3577601.4161005-.8726524.6644055-1.4210102.6852772-.5483578.0208718-1.0806351-.1875755-1.4689898-.5752772l-2.17-2.17-1.42-1.42-5.58-5.58-1.42-1.42-5.09-5.09-1.42-1.42-2.17-2.17c-.3877017-.3883547-.596149-.920632-.5752772-1.4689898.0208717-.5483578.2691767-1.0632501.6852772-1.4210102l13.73-11.77c2.3426672-2.0109777 5.8395528-1.8758113 8.02.31l11.76 11.76c2.1858113 2.1804472 2.3209777 5.6773328.31 8.02z" fill="#f9eab0"/><path id="Shape" d="m46.252 6.214 6.534 6.534-5.141 4.759-6.152-6.152z" fill="#805333"/><path id="Shape" d="m16.821 50.757-.763.759c-.1245337.1231887-.3044525.172224-.4742701.1292581s-.3047671-.1716667-.3557299-.3392581c-.2560053-.744004-.6847253-1.4167276-1.251-1.963-.6690672-.6993472-1.5350843-1.178569-2.483-1.374-.2046058-.0351358-.3648642-.1953942-.4-.4-.1978027-.9450132-.6804755-1.8067046-1.383-2.469-.5501598-.5627875-1.22500607-.9882489-1.97-1.242-.16863736-.050693-.29817587-.1863568-.34102913-.3571548-.04285327-.1707979.00729745-.3515458.13202913-.4758452l.757-.753c1.57296653-1.5652111 4.1150335-1.5652111 5.688 0l2.844 2.828c.7531444.7485799 1.1766424 1.7666156 1.1766424 2.8285s-.423498 2.0799201-1.1766424 2.8285z" fill="#e64c3c"/><path id="Shape" d="m8.289 55c-.70125584-.6625761-1.18313403-1.5237458-1.381-2.468-.03513582-.2046058-.19539422-.3648642-.4-.4-.94772967-.195334-1.81368268-.6741715-2.483-1.373-.56606762-.5464417-.99475375-1.2191123-1.251-1.963-.05096279-.1675914-.18591229-.2962922-.35572989-.3392581s-.34973645.0060694-.47427011.1292581l-.763.759c-.75308426.7484087-1.17655786 1.766279-1.17655786 2.828s.4234736 2.0795913 1.17655786 2.828l2.844 2.828c1.57341809 1.5641167 4.11458191 1.5641167 5.688 0l.757-.753c.1247317-.1242994.1748824-.3050473.1320291-.4758452-.0428532-.170798-.1723917-.3064618-.3410291-.3571548-.74580769-.2537597-1.42137486-.6795863-1.972-1.243z" fill="#e64c3c"/><g fill="#805333"><circle id="Oval" cx="6" cy="36" r="1"/><circle id="Oval" cx="11" cy="37" r="1"/><circle id="Oval" cx="1" cy="39" r="1"/><circle id="Oval" cx="22" cy="55" r="1"/><circle id="Oval" cx="23" cy="50" r="1"/><circle id="Oval" cx="27" cy="56" r="1"/><circle id="Oval" cx="17" cy="58" r="1"/></g><path id="Shape" d="m27.15 21.76-12.98 10.98-1.42-1.42 13.1-11.08c.2715218-.2322226.6463077-.30195.9831793-.1829165s.5846502.4087439.65.76-.0616575.7106939-.3331793.9429165z" fill="#fac176"/><path id="Shape" d="m39.26 32.65-11.58 13.6-1.42-1.42 11.48-13.48c.2322226-.2715218.5916604-.3985291.9429165-.3331793s.6409665.3131284.76.65.0493061.7116575-.1829165.9831793z" fill="#fac176"/><path id="Shape" d="m33.21 26.71-12.53 12.54-1.42-1.42 12.53-12.54c.3921222-.3921221 1.0278778-.3921221 1.42 0 .3921221.3921222.3921221 1.0278778 0 1.42z" fill="#fac176"/></g></g></svg>