<svg height="512" viewBox="0 0 58 58" width="512" xmlns="http://www.w3.org/2000/svg"><g id="Page-1" fill="none" fill-rule="evenodd"><g id="026---Car-Compactor" fill-rule="nonzero"><path id="Shape" d="m20 16v-6c0-1.1045695.8954305-2 2-2h5v8z" fill="#2c3e50"/><path id="Shape" d="m58 46.74v9.26c-.0032948 1.1032019-.8967981 1.9967052-2 2h-54c-1.10320187-.0032948-1.9967052-.8967981-2-2v-10.65c.00004801-.2319294.04065988-.4620633.12-.68l3.93-11.02c.57049707-1.5911843 2.07963602-2.6519849 3.77-2.65h23.85c.8446523.0010529 1.6500772.3566008 2.22.98l8.3 9.13c.5220078.573131 1.24633.9209491 2.02.97l10.06.67c2.0992038.1420201 3.7295386 1.8859976 3.73 3.99z" fill="#e64c3c"/><path id="Shape" d="m36.549 41.341-5.25-6c-.1900765-.2169421-.4645682-.3412471-.753-.341h-21.853c-.4167554.0001565-.78971887.2587604-.936.649l-2.25 6c-.11508933.3070279-.07235106.650971.11438042.9204948.18673149.2695237.49372983.4303821.82161958.4305052h29.357c.391927-.0012301.7470061-.2313007.9082785-.5885114s.0990046-.7757037-.1592785-1.0704886z" fill="#2fa8cc"/><path id="Shape" d="m27 47v11h-2v-11c0-.5522847.4477153-1 1-1s1 .4477153 1 1z" fill="#c03a2b"/><path id="Shape" d="m15 55c-.5522847 0-1-.4477153-1-1v-7c0-.5522847.4477153-1 1-1s1 .4477153 1 1v7c0 .5522847-.4477153 1-1 1z" fill="#c03a2b"/><path id="Rectangle-path" d="m25 34h2v10h-2z" fill="#e64c3c"/><path id="Rectangle-path" d="m14 34h2v10h-2z" fill="#e64c3c"/><g fill="#35495e"><path id="Shape" d="m51 58c0-3.8659932-3.1340068-7-7-7s-7 3.1340068-7 7z"/><path id="Shape" d="m18 58c-.0000001-3.8659932-3.1340068-6.9999999-7-6.9999999-3.86599321 0-6.99999994 3.1340067-7 6.9999999z"/><path id="Shape" d="m27 0h4c.5522847 0 1 .44771525 1 1v16h-6v-16c0-.55228475.4477153-1 1-1z"/></g><path id="Shape" d="m9 15h40c1.1045695 0 2 .8954305 2 2v6h-44v-6c0-1.1045695.8954305-2 2-2z" fill="#3f5c6c"/><rect id="Rectangle-path" fill="#95a5a5" height="5" rx="1" width="58" y="21"/><path id="Shape" d="m58 46.74v.26h-5.31c-.9753322-.0037257-1.8066402-.7084386-1.97-1.67l-.47-2.85 4.02.27c2.0992038.1420201 3.7295386 1.8859976 3.73 3.99z" fill="#f0c419"/></g></g></svg>