<svg height="512" viewBox="0 0 58 58" width="512" xmlns="http://www.w3.org/2000/svg"><g id="Page-1" fill="none" fill-rule="evenodd"><g id="027---Lorry-At-Landfill" fill-rule="nonzero"><path id="Rectangle-path" d="m33.2 19.139h2v12.522h-2z" fill="#3f5c6c" transform="matrix(.894 -.447 .447 .894 -7.748 17.976)"/><path id="Shape" d="m8.53 12.11c-1.97292901.4386374-3.40962838 2.1413923-3.51 4.16-1.24229195.4195491-2.23568096 1.3666395-2.71399946 2.5875089-.47831851 1.2208694-.39266908 2.5907111.23399946 3.7424911-1.38141576.9337353-1.91234479 2.712329-1.26882767 4.2505283.64351713 1.5381992 2.2827873 2.4088738 3.91756947 2.0807603 1.63478216-.3281136 2.81112677-1.7639041 2.8112582-3.4312886-.00504912-.0937976-.01506315-.1872618-.03-.28.74552341.5088852 1.6273546.7807541 2.53.78 1.1009771.0062204 2.1642806-.4005467 2.98-1.14l-.48-7.86z" fill="#805333"/><path id="Shape" d="m3 54h14v-13h-1c-2.209139 0-4 1.790861-4 4-1.4849662.0043272-2.84480604.8325583-3.53 2.15-.31453507-.0959605-.64117135-.1464713-.97-.15-1.40657365-.0009442-2.6761573.8428163-3.22 2.14-.24988836-.091641-.51383972-.1390169-.78-.14-1.38071187 0-2.5 1.1192881-2.5 2.5-.00049863.5551035.1862308 1.0941526.53 1.53z" fill="#805333"/><path id="Shape" d="m58 24v7c0 .5522847-.4477153 1-1 1h-13v-18c0-.5522847.4477153-1 1-1h5c1.1032019.0032948 1.9967052.8967981 2 2v6c.0032948 1.1032019.8967981 1.9967052 2 2h3c.5522847 0 1 .4477153 1 1z" fill="#e64c3c"/><path id="Shape" d="m28 33h15c.5522847 0 1-.4477153 1-1v-3h-29c-.5522847 0-1 .4477153-1 1v2c0 .5522847.4477153 1 1 1z" fill="#95a5a5"/><path id="Shape" d="m9.9 7.411 18.561-7.274c.4928434-.19245047 1.0420196-.18082204 1.5262749.03231784.4842553.21313987.8637609.61026097 1.0547251 1.10368216l6.52 16.772c.401941 1.0275075-.1041338 2.1864233-1.131 2.59l-21.343 8.365-6.883-17.7c-.60274556-1.54192067.15518134-3.28090457 1.695-3.889z" fill="#e64c3c"/><path id="Shape" d="m30.881 18.434c-.4122736.0000869-.7823447-.2528479-.932-.637l-4.363-11.178c-.1300447-.3327929-.072668-.70968424.1505167-.98870268.2231848-.27901845.5782706-.41777447.9315001-.36400001.3532294.05377446.6509385.29190978.7809832.62470269l4.363 11.178c.1206713.3077969.0814163.655342-.1048698.9284683-.1862861.2731262-.495524.4365292-.8261302.4365317z" fill="#c03a2b"/><path id="Shape" d="m25.292 20.616c-.4122736.0000869-.7823447-.2528479-.932-.637l-4.36-11.179c-.1921253-.51227544.0630988-1.08384559.572784-1.28274049.5096853-.1988949 1.0845864.04873483 1.290216.55574049l4.365 11.178c.120736.3079616.0813711.6557023-.1051514.9288816-.1865224.2731793-.4960655.4364468-.8268486.4361184z" fill="#c03a2b"/><path id="Shape" d="m19.7 22.8c-.411659-.0001642-.7811561-.2525812-.931-.636l-4.362-11.182c-.2010316-.5147294.0532706-1.09496833.568-1.29599998s1.0949683.05327061 1.296.56799998l4.363 11.179c.121721.3085146.0825619.6573068-.1045407.9311496-.1871025.2738429-.4978033.4371047-.8294593.4358504z" fill="#c03a2b"/><path id="Shape" d="m49 23c0 .5522847-.4477153 1-1 1h-4v-2h4c.5522847 0 1 .4477153 1 1z" fill="#c03a2b"/><path id="Shape" d="m48 20c-.5522847 0-1-.4477153-1-1v-2c0-.5522847.4477153-1 1-1s1 .4477153 1 1v2c0 .5522847-.4477153 1-1 1z" fill="#2fa8cc"/><path id="Shape" d="m18 37h38c1.1045695 0 2 .8954305 2 2v18c0 .5522847-.4477153 1-1 1h-56c-.55228475 0-1-.4477153-1-1v-3c0-.5522847.44771525-1 1-1h13c1.1045695 0 2-.8954305 2-2v-12c0-1.1045695.8954305-2 2-2z" fill="#a56a43"/><g fill="#805333"><path id="Shape" d="m54 42h-4c-.5522847 0-1-.4477153-1-1s.4477153-1 1-1h4c.5522847 0 1 .4477153 1 1s-.4477153 1-1 1z"/><path id="Shape" d="m50 46h-4c-.5522847 0-1-.4477153-1-1s.4477153-1 1-1h4c.5522847 0 1 .4477153 1 1s-.4477153 1-1 1z"/><path id="Shape" d="m54 50h-4c-.5522847 0-1-.4477153-1-1s.4477153-1 1-1h4c.5522847 0 1 .4477153 1 1s-.4477153 1-1 1z"/><path id="Shape" d="m50 54h-4c-.5522847 0-1-.4477153-1-1s.4477153-1 1-1h4c.5522847 0 1 .4477153 1 1s-.4477153 1-1 1z"/><path id="Shape" d="m42 42h-4c-.5522847 0-1-.4477153-1-1s.4477153-1 1-1h4c.5522847 0 1 .4477153 1 1s-.4477153 1-1 1z"/><path id="Shape" d="m38 46h-4c-.5522847 0-1-.4477153-1-1s.4477153-1 1-1h4c.5522847 0 1 .4477153 1 1s-.4477153 1-1 1z"/><path id="Shape" d="m42 50h-4c-.5522847 0-1-.4477153-1-1s.4477153-1 1-1h4c.5522847 0 1 .4477153 1 1s-.4477153 1-1 1z"/><path id="Shape" d="m38 54h-4c-.5522847 0-1-.4477153-1-1s.4477153-1 1-1h4c.5522847 0 1 .4477153 1 1s-.4477153 1-1 1z"/><path id="Shape" d="m30 42h-4c-.5522847 0-1-.4477153-1-1s.4477153-1 1-1h4c.5522847 0 1 .4477153 1 1s-.4477153 1-1 1z"/><path id="Shape" d="m26 46h-4c-.5522847 0-1-.4477153-1-1s.4477153-1 1-1h4c.5522847 0 1 .4477153 1 1s-.4477153 1-1 1z"/><path id="Shape" d="m30 50h-4c-.5522847 0-1-.4477153-1-1s.4477153-1 1-1h4c.5522847 0 1 .4477153 1 1s-.4477153 1-1 1z"/><path id="Shape" d="m26 54h-4c-.5522847 0-1-.4477153-1-1s.4477153-1 1-1h4c.5522847 0 1 .4477153 1 1s-.4477153 1-1 1z"/></g><path id="Shape" d="m58 24v3h-2c-1.1032019-.0032948-1.9967052-.8967981-2-2v-2h3c.5522847 0 1 .4477153 1 1z" fill="#f0c419"/><circle id="Oval" cx="24" cy="33" fill="#35495e" r="4"/><circle id="Oval" cx="24" cy="33" fill="#95a5a5" r="1"/><circle id="Oval" cx="51" cy="33" fill="#35495e" r="4"/><circle id="Oval" cx="51" cy="33" fill="#95a5a5" r="1"/></g></g></svg>