<svg height="512" viewBox="0 0 58 58" width="512" xmlns="http://www.w3.org/2000/svg"><g id="Page-1" fill="none" fill-rule="evenodd"><g id="028---Throw-Paper" fill-rule="nonzero" transform="translate(-1)"><path id="Shape" d="m58.68 41.57-3.53 5.42.01.01 1.19 1.79 1.13 1.69c.5680442.852814.3996548 1.9969983-.39 2.65l-5.36 4.41c-.6099369.5058579-1.4610117.603908-2.17.25l-3.98-1.99-2.05-1.02-.02-.01-4.16 2.78c-.5219786.349201-1.1784177.4307923-1.77.22l-7.65-2.68c-.5385598-.1877748-.9690977-.6000696-1.18-1.13l-3.02-7.29c-.3190349-.7845705-.1109404-1.6849794.52-2.25l2.47-2.22 1.74-1.56-.02-.15-.01-.06-.68-5.38c-.0829806-.6635986.1723988-1.3245807.68-1.76l4.04-3.51c.7235901-.6242847 1.7877397-.6494221 2.54-.06l3.7 2.87.01-.01 1.73-1.15 2.36-1.58c.5568943-.3697519 1.2603853-.4408493 1.88-.19l8.31 3.46c.4444115.1817817.807134.5196115 1.02.95l2.77 5.51c.3159037.6365079.2741325 1.3921875-.11 1.99z" fill="#f3d55b"/><g fill="#f0c419"><path id="Shape" d="m47.57 37.08c-.1673106.2052837-.4107197.3339401-.6745808.3565568-.2638612.0226167-.5256143-.0627402-.7254192-.2365568l-5.45-4.62 1.73-1.15 5.01 4.25c.2018949.1700063.3272012.4138605.3478756.6769883.0206743.2631279-.0650095.5235599-.2378756.7230117z"/><path id="Shape" d="m56.35 48.79-2.55 3.73c-.1902735.2697844-.4998673.4301764-.83.43-.1990226-.0023393-.3932639-.0613054-.56-.17-.4555974-.3120654-.571997-.9343558-.26-1.39l3.01-4.39z"/><path id="Shape" d="m31.82 47.91c.0496801.2613069-.0067906.5316395-.1569222.751207-.1501317.2195675-.3815524.3702762-.6430778.418793-.0593483.011603-.1195523.0182924-.18.02-.4842328.0002478-.900078-.3441897-.99-.82l-1.13-6.08 1.74-1.56-.02-.15z"/><path id="Shape" d="m47.17 54.74-1.59 1.06-2.05-1.02c.0078583-.0178689.0221311-.0321417.04-.04l2.49-1.67c.4611578-.306518 1.083482-.1811578 1.39.28s.1811578 1.083482-.28 1.39z"/><path id="Shape" d="m39.62 49.952c-.4041391-.0000856-.7684991-.2434208-.9234088-.616692s-.0699134-.8030919.2154088-1.089308l2.443-2.446c.3373988-.3374828.3893217-.8663427.124-1.263l-2.422-3.627c-.2147151-.296696-.250063-.6870316-.0921398-1.0174727.1579232-.3304412.4838499-.5481178.8495805-.5674094.3657307-.0192915.712749.1628887.9045593.4748821l2.423 3.625c.7909533 1.1900093.6359135 2.7721683-.371 3.786l-2.443 2.449c-.1879015.1874279-.4426023.292474-.708.292z"/><path id="Shape" d="m49.324 48.277c-.4504171-.0002354-.8450899-.3015624-.964-.736l-.455-1.659c-.3413906-1.2460849.1533539-2.5707756 1.228-3.288l1.295-.865c.2967641-.2112181.6849045-.2443645 1.0131856-.0865242.328281.1578403.5447708.481698.5651158.8453848.0203451.3636868-.158673.7096697-.4673014.9031394l-1.3.866c-.3597756.2397096-.5247746.6834722-.409 1.1l.455 1.659c.0701803.2558022.0358538.5290074-.0954261.7594974s-.3487562.3993787-.6045739.4695026c-.0852549.0218832-.1729837.0326392-.261.032z"/></g><path id="Shape" d="m15.53 5.28 17.31-4.12c1.9718358-.46828263 4.0469144.08807904 5.52 1.48l14.49 13.74c.5435784.5102528.8383593 1.2316932.8076414 1.9766038-.030718.7449105-.3838973 1.439631-.9676414 1.9033962-1.6186927 1.300489-3.8744947 1.4599097-5.66.4l-12.66-7.44c-.8574567-.5056171-1.9095227-.5542892-2.81-.13l-4.88 2.32c-.6103385.2288463-1.0708643.740765-1.2341038 1.3718249s-.0087099 1.302078.4141038 1.7981751l2.87 3.02c1.1325385 1.3214601 1.0540345 3.292784-.18 4.52-1.0457031 1.0446474-2.6964867 1.1719572-3.89.3l-13-9.53.34-7.02z" fill="#fdd7ad"/><path id="Shape" d="m15.8 4.483-4.734 14.2c-.340269 1.0275048-1.43621868 1.5978596-2.473 1.287l-6.167-1.85c-.51871117-.1547301-.95255293-.5131053-1.20243614-.993273-.24988321-.4801678-.29446534-1.0411169-.12356386-1.554727l4.735-14.2c.34027514-1.02851511 1.4375941-1.59912097 2.475-1.287l6.167 1.85c.5181599.15536941.9512838.51400893 1.2005629.99410196s.2934504 1.04068869.1224371 1.55389804z" fill="#955ba5"/><circle id="Oval" cx="10" cy="6" fill="#ecf0f1" r="1"/></g></g></svg>