<svg height="512" viewBox="0 0 40 58" width="512" xmlns="http://www.w3.org/2000/svg"><g id="Page-1" fill="none" fill-rule="evenodd"><g id="029---Bin-Man" fill-rule="nonzero"><path id="Shape" d="m29 25s-7 4-7 11c0 4.418 4.029 8 9 8s9-3.582 9-8c0-7-7.5-11.5-7.5-11.5z" fill="#f0c419"/><path id="Shape" d="m33 22.125v-1.125c.1393985-1.4295544.6161322-2.8056045 1.391-4.015.1500311-.2568878.177898-.567237.0760309-.8467433-.101867-.2795063-.3228906-.4991465-.6030309-.5992567-.9195115-.3323588-1.8865765-.5143588-2.864-.539-.9774235.0246412-1.9444885.2066412-2.864.539-.2801403.1001102-.5011639.3197504-.6030309.5992567-.1018671.2795063-.0740002.5898555.0760309.8467433.7748678 1.2093955 1.2516015 2.5854456 1.391 4.015z" fill="#f0c419"/><path id="Shape" d="m4 22 1 17-5-1v-12.66c.00489359-1.3740324.93847747-2.5708294 2.27-2.91z" fill="#3b97d3"/><path id="Shape" d="m5 38-1 4h-2c-1.10320187-.0032948-1.9967052-.8967981-2-2v-2z" fill="#fdd7ad"/><path id="Rectangle-path" d="m14.188 21h15.75v4h-15.75z" fill="#3b97d3"/><path id="Shape" d="m16 38v16.5l-3-.5-1.84-11.01c-.0918536-.5693315-.5833064-.9878503-1.16-.9878503-.57669358 0-1.06814637.4185188-1.16.9878503l-1.84 11.01-3 .5v-16.5l5.687-1z" fill="#285680"/><path id="Shape" d="m3 54h4v3c0 .5522847-.44771525 1-1 1h-4c-.55228475 0-1-.4477153-1-1v-1c0-1.1045695.8954305-2 2-2z" fill="#35495e"/><path id="Shape" d="m14 54h4c.5522847 0 1 .4477153 1 1v3h-4c-1.1045695 0-2-.8954305-2-2v-1c0-.5522847.4477153-1 1-1z" fill="#35495e" transform="matrix(-1 0 0 -1 32 112)"/><path id="Shape" d="m16 21v17h-12v-16l4-1h4z" fill="#2fa8cc"/><path id="Shape" d="m29 21h3c1.1045695 0 2 .8954305 2 2s-.8954305 2-2 2h-3z" fill="#fdd7ad"/><path id="Shape" d="m26 37c-.5522847 0-1-.4477153-1-1 0-3.659 2.748-6.345 4.386-7.621.2811241-.2288659.6640928-.2876708 1.0009316-.1536933s.5747949.439755.621925.7991839c.0471302.3594288-.1039468.7162183-.3948566.9325094-1.349 1.051-3.614 3.234-3.614 6.043 0 .5522847-.4477153 1-1 1z" fill="#f9eab0"/><path id="Shape" d="m12 17.58v3.42l-.96 1.44c-.2324541.3468129-.6224906.5549319-1.04.5549319-.41750937 0-.80754594-.208119-1.04-.5549319l-.96-1.44v-3.42c1.31966516.2699943 2.6803348.2699943 4 0z" fill="#f9c795"/><path id="Shape" d="m15.4 9-.45 4.53c-.2604859 2.5381403-2.398528 4.4679882-4.95 4.4679882-2.55147195 0-4.68951409-1.9298479-4.95-4.4679882l-.45-4.53 5.088-1z" fill="#fdd7ad"/><path id="Shape" d="m4 7.27v-4.27c0-1.65685425 1.34314575-3 3-3h6c1.6568542 0 3 1.34314575 3 3v4.27z" fill="#2fa8cc"/><path id="Rectangle-path" d="m4 28h12v5h-12z" fill="#f3d55b"/><path id="Shape" d="m3 9h14s-1-4-7-4-7 4-7 4z" fill="#67b9cc"/></g></g></svg>