<svg height="512" viewBox="0 0 46 58" width="512" xmlns="http://www.w3.org/2000/svg"><g id="Page-1" fill="none" fill-rule="evenodd"><g id="030---Throw-Paper-in-Bin" fill-rule="nonzero" transform="translate(-1)"><rect id="Rectangle-path" fill="#95a5a5" height="4" rx="2" width="34" x="13" y="18"/><path id="Shape" d="m18 54h24v2c0 1.1045695-.8954305 2-2 2h-20c-1.1045695 0-2-.8954305-2-2z" fill="#547580"/><path id="Shape" d="m45 22-3 32h-24l-3-32z" fill="#547580"/><path id="Shape" d="m29.486.129-2.895 1.922c-.2150935.14193885-.3446606.38229524-.345.64v1.9l-1.717.57c-.3492886.11442047-.5685428.46028038-.523.825l.257 2.044c.0324097.25535671.1904318.47756344.421.592l1.949.971.309 2.154c.0468718.3237969.2929998.5827524.614.646l2.99.595c.2154317.0426622.438856-.0078354.615-.139l2.506-1.871c.1946444-.1449987.3095284-.3732844.31-.616v-1.927l2.27-1.291c.2647483-.14998156.4158037-.44228351.385-.745l-.267-2.657c-.0400972-.39432499-.3726429-.69400525-.769-.693h-1.619l-.985-2.288c-.108665-.25191635-.3427166-.42735985-.615-.461l-2.367-.294c-.1837521-.02291802-.3696371.02071529-.524.123z" fill="#f0c419"/><path id="Shape" d="m30 7c-.4043959-.00008635-.7689341-.2437275-.923678-.61734544s-.0692299-.80366031.216678-1.08965456l1-1c.2510745-.25995658.6228779-.3642126.9725073-.27269716.3496295.09151544.6226744.3645604.7141899.71418984.0915154.34962943-.0127406.72143285-.2726972.97250732l-1 1c-.1874927.18754937-.4418052.29294336-.707.293z" fill="#f29c1f"/><path id="Shape" d="m13.724 51.629-1.33 2.109.92 1.33c.2198909.3294805.1598562.7711647-.14 1.03l-2.04 1.719c-.2339754.2002225-.565558.2396966-.84.1l-2.34-1.14-1.59 1.08c-.20261389.1370752-.45680783.1739149-.69.1l-2.95-1.02c-.21119231-.0685466-.38251452-.2249237-.47-.429l-1.19-2.8c-.1314765-.2987323-.0592217-.6479639.18-.87l1.61-1.469-.3-2.16c-.03799354-.2541653.05625951-.5101565.25-.679l1.54-1.37c.27726743-.2435575.68835402-.2561418.98-.03l1.44 1.09 1.56-1.07c.21710591-.1417037.48992183-.1678642.73-.07l3.22 1.3c.1689414.0693852.3073428.1971403.39.36l1.1 2.119c.1227205.2459006.1075392.5381389-.04.77z" fill="#f0c419"/><path id="Shape" d="m9.106 53.379c-.062068.0002531-.12401756-.0054396-.185-.017l-1.39-.261c-.35119207-.0659155-.64054143-.3141827-.75905297-.6512817s-.04818054-.7118165.1845-.983c.23268053-.2711835.5923609-.3976338.94355297-.3317183l1.39.261c.50785709.0948577.8598509.5609618.8121176 1.0753919s-.47947771.9078121-.9961176.9076081z" fill="#f29c1f"/><path id="Shape" d="m44.16 31-.42 4.42-5.26 6.69-4.59-5.86 4.11-5.25z" fill="#7f8c8d"/><path id="Shape" d="m43.74 35.42-1.12 11.98-4.14-5.29z" fill="#95a5a5"/><path id="Shape" d="m42.62 47.4-.62 6.6h-3l-4.92-6.29 4.4-5.6z" fill="#7f8c8d"/><g fill="#95a5a5"><path id="Shape" d="m39 54h-8.13l-.87-1.11 4.08-5.18z"/><path id="Shape" d="m38.48 42.11-4.4 5.6-4.58-5.85 4.39-5.61z"/><path id="Shape" d="m38 31-4.11 5.25-4.11-5.25z"/></g><path id="Shape" d="m33.89 36.25-4.39 5.61-4.39-5.61 4.11-5.25h.56z" fill="#7f8c8d"/><path id="Shape" d="m34.08 47.71-4.08 5.18-4.56-5.84 4.06-5.19z" fill="#7f8c8d"/><path id="Shape" d="m30.87 54h-10.87l5.44-6.95 4.56 5.84z" fill="#95a5a5"/><path id="Shape" d="m29.5 41.86-4.06 5.19-4.39-5.62 4.06-5.18z" fill="#95a5a5"/><path id="Shape" d="m29.22 31-4.11 5.25-4.11-5.25z" fill="#95a5a5"/><path id="Shape" d="m25.11 36.25-4.06 5.18-4.81-6.15-.4-4.28h5.16z" fill="#7f8c8d"/><path id="Shape" d="m21.05 41.43-3.78 4.83-1.03-10.98z" fill="#95a5a5"/><path id="Shape" d="m25.44 47.05-5.44 6.95h-2l-.73-7.74 3.78-4.83z" fill="#7f8c8d"/></g></g></svg>