<svg height="512" viewBox="0 0 53 58" width="512" xmlns="http://www.w3.org/2000/svg"><g id="Page-1" fill="none" fill-rule="evenodd"><g id="031---Woman-With-Bin" fill-rule="nonzero"><path id="Shape" d="m29.148 28.131-2.615-1.255-1.711 1.5-.012 2.124 2.707 1.3c.5586709.2670417 1.2095275.2602505 1.7625046-.0183905s.945704-.7977036 1.0634954-1.4056095c.1599469-.9332378-.3315153-1.8565287-1.195-2.245z" fill="#fdd7ad"/><path id="Shape" d="m5 38h-5v2c.0032948 1.1032019.89679813 1.9967052 2 2h2.25z" fill="#fdd7ad"/><path id="Shape" d="m4 38 1 16 1.25.5 1.75-.5.917-11c.04533277-.5645829.51660014-.9997328 1.083-1 .5663999.0002672 1.0376672.4354171 1.083 1l.917 11 1.833.5 1.167-.5 1-16-6.083-.5z" fill="#285680"/><path id="Shape" d="m4 54h4v3c0 .5522847-.44771525 1-1 1h-4c-.55228475 0-1-.4477153-1-1v-1c0-1.1045695.8954305-2 2-2z" fill="#35495e"/><path id="Shape" d="m13 54h4c.5522847 0 1 .4477153 1 1v3h-4c-1.1045695 0-2-.8954305-2-2v-1c0-.5522847.4477153-1 1-1z" fill="#35495e" transform="matrix(-1 0 0 -1 30 112)"/><path id="Shape" d="m30 36h20v19c0 1.6568542-1.3431458 3-3 3h-14c-1.6568542 0-3-1.3431458-3-3z" fill="#95a5a5"/><g fill="#7f8c8d"><path id="Shape" d="m40 54c-.5522847 0-1-.4477153-1-1v-12c0-.5522847.4477153-1 1-1s1 .4477153 1 1v12c0 .5522847-.4477153 1-1 1z"/><path id="Shape" d="m35 54c-.5522847 0-1-.4477153-1-1v-12c0-.5522847.4477153-1 1-1s1 .4477153 1 1v12c0 .5522847-.4477153 1-1 1z"/><path id="Shape" d="m45 54c-.5522847 0-1-.4477153-1-1v-12c0-.5522847.4477153-1 1-1s1 .4477153 1 1v12c0 .5522847-.4477153 1-1 1z"/><path id="Shape" d="m52 37h-24c-.5522847 0-1-.4477153-1-1s.4477153-1 1-1h24c.5522847 0 1 .4477153 1 1s-.4477153 1-1 1z"/></g><path id="Shape" d="m26.53 26.88-1.72 3.6-8.81-3.48v11h-16v-12.66c.00489359-1.3740324.93847747-2.5708294 2.27-2.91l5.73-1.43h4l2.61.33c.9195652.1183417 1.8122991.3922487 2.64.81z" fill="#955ba5"/><path id="Shape" d="m4 28v10h-2v-10c0-.5522847.44771525-1 1-1s1 .4477153 1 1z" fill="#894b9d"/><path id="Shape" d="m7 32c-.80261558.0234737-1.5793921-.2850527-2.14716969-.8528303-.56777758-.5677776-.876304-1.3445541-.85283031-2.1471697-.00276141-.5522847.44271526-1.0022386.995-1.005s1.00223856.4427153 1.005.995c-.02884366.2739117.06682243.5463007.26060682.742023.19378438.1957222.46520804.2940938.73939318.267977.55228475 0 1 .4477153 1 1s-.44771525 1-1 1z" fill="#894b9d"/><path id="Shape" d="m13 32c-.5522847 0-1-.4477153-1-1s.4477153-1 1-1c.2744776.0258407.5460566-.0729079.7398336-.2690103.193777-.1961023.2892792-.4688399.2601664-.7429897.0135016-.5434884.4563526-.9779252 1-.981h.013c.5458457.0038438.9864644.447141.987.993.0234737.8026156-.2850527 1.5793921-.8528303 2.1471697s-1.3445541.876304-2.1471697.8528303z" fill="#894b9d"/><path id="Shape" d="m12 17.58v3.42l-.96 1.44c-.2318415.3476939-.6220987.5565305-1.04.5565305-.41790133 0-.80815852-.2088366-1.04-.5565305l-.96-1.44v-3.42z" fill="#f9c795"/><path id="Shape" d="m15 9c0-2.76142375-2.2385763-5-5-5-2.76142375 0-5 2.23857625-5 5v4c-.0035132 1.4776998.647837 2.8810221 1.77870967 3.8321982 1.13087268.951176 2.62504452 1.3524505 4.08029033 1.0958018 2.3883142-.5602623 4.0929568-2.6683218 4.141-5.121z" fill="#fdd7ad"/><ellipse id="Oval" cx="10" cy="2" fill="#cb8252" rx="3" ry="2"/><path id="Shape" d="m15 9v2c-1.8800165.1398669-3.7359098-.4920034-5.14-1.75-.21517589-.2047054-.5086917-.30579481-.80428602-.27700316-.29559432.02879166-.56408548.18462201-.73571398.42700316-.76562092 1.0595776-2.01419668 1.6613009-3.32 1.6v-2c.00000004-2.76142372 2.23857628-4.99999993 5-4.99999993 2.7614237 0 5 2.23857621 5 4.99999993z" fill="#a56a43"/></g></g></svg>