<svg height="512" viewBox="0 0 54 58" width="512" xmlns="http://www.w3.org/2000/svg"><g id="Page-1" fill="none" fill-rule="evenodd"><g id="032---Man-With-Recycle-bin" fill-rule="nonzero"><path id="Shape" d="m32 21h-3l-1-2.167 1-1.833h3c1.1045695 0 2 .8954305 2 2s-.8954305 2-2 2z" fill="#fdd7ad"/><path id="Shape" d="m5 35.5-5 .5v2c.0032948 1.1032019.89679813 1.9967052 2 2h2z" fill="#fdd7ad"/><path id="Shape" d="m4 36v19l3-1 1.836-11.014c.09445364-.5692168.58699993-.9864425 1.164-.986.5770001-.0004425 1.0695464.4167832 1.164.986l1.836 11.014 3 1v-19l-6.333-1z" fill="#285680"/><path id="Shape" d="m3 54h4v3c0 .5522847-.44771525 1-1 1h-4c-.55228475 0-1-.4477153-1-1v-1c0-1.1045695.8954305-2 2-2z" fill="#35495e"/><path id="Shape" d="m14 54h4c.5522847 0 1 .4477153 1 1v3h-4c-1.1045695 0-2-.8954305-2-2v-1c0-.5522847.4477153-1 1-1z" fill="#35495e" transform="matrix(-1 0 0 -1 32 112)"/><path id="Shape" d="m47.18 56h-11.45c-.5014568-.0007593-.9248111-.3727979-.99-.87l-3.73-28c-.0373904-.2851752.0498177-.5726424.2393496-.7889769.189532-.2163344.4630348-.3405877.7506504-.3410231h18l1.85 1.99-1.57 24.03z" fill="#26b99a"/><path id="Shape" d="m51.687 26.726c-.2384716-.0002602-.4690001-.0857331-.65-.241l-13.687-11.726c-.3948857-.36484-.4306334-.9766102-.0809275-1.384959.3497058-.4083488.9596952-.4671163 1.3809275-.133041l13.688 11.725c.3183513.2722414.433291.7140468.2879741 1.1069157-.1453168.3928689-.5200914.6535357-.9389741.6530843z" fill="#33907c"/><circle id="Oval" cx="50" cy="55" fill="#3f5c6c" r="3"/><circle id="Oval" cx="52" cy="26" fill="#14a085" r="2"/><path id="Shape" d="m29 17v4h-12c-.5522847 0-1 .4477153-1 1v14h-16v-14.66c.00489359-1.3740324.93847747-2.5708294 2.27-2.91l5.73-1.43z" fill="#f0c419"/><path id="Shape" d="m4 24v12h-2v-12c0-.5522847.44771525-1 1-1s1 .4477153 1 1z" fill="#f29c1f"/><path id="Shape" d="m47.679 36.557-3.807-6.47c-.3834283-.6723664-1.0979885-1.0874603-1.872-1.0874603s-1.4885717.4150939-1.872 1.0874603l-3.807 6.47c-.4209119.7190201-.4262487 1.6079781-.014 2.332.3805819.6850387 1.102342 1.1102112 1.886 1.111h.807c.5522847 0 1-.4477153 1-1s-.4477153-1-1-1h-.807c-.0646439-.0030342-.1223362-.0414958-.15-.1-.0582627-.1004998-.0582627-.2245002 0-.325l3.809-6.475c.0214056-.0646844.0818658-.1083613.15-.1083613s.1285944.0436769.15.1083613l3.807 6.469c.0582627.1004998.0582627.2245002 0 .325-.0276638.0585042-.0853561.0969658-.15.1h-.809c-.0000863-.4043959-.2437275-.7689341-.6173454-.923678-.373618-.1547439-.8036603-.0692299-1.0896546.216678l-1 1c-.3903819.3904999-.3903819 1.0235001 0 1.414l1 1c.2852204.2851497.7138177.3710518 1.0868966.2178425.373079-.1532094.6176051-.5155377.6201034-.9188425h.807c.783658-.0007888 1.5054181-.4259613 1.886-1.111.4122487-.7240219.4069119-1.6129799-.014-2.332z" fill="#ecf0f1"/><path id="Shape" d="m12 13.58v3.42l-.96 1.44c-.2318415.3476939-.6220987.5565305-1.04.5565305-.41790133 0-.80815852-.2088366-1.04-.5565305l-.96-1.44v-3.42z" fill="#f9c795"/><path id="Shape" d="m15 5c0-1.32608245-.5267842-2.59785201-1.4644661-3.53553391-.9376819-.93768189-2.2094515-1.46446609-3.5355339-1.46446609-2.76142375 0-5 2.23857625-5 5v4c-.0035132 1.4776998.647837 2.8810221 1.77870967 3.8321982 1.13087268.951176 2.62504452 1.3524505 4.08029033 1.0958018 2.3883142-.5602623 4.0929568-2.6683218 4.141-5.121z" fill="#fdd7ad"/></g></g></svg>