<svg height="512" viewBox="0 0 58 58" width="512" xmlns="http://www.w3.org/2000/svg"><g id="Page-1" fill="none" fill-rule="evenodd"><g id="033---Recycle-Plant" fill-rule="nonzero" transform="translate(0 -1)"><path id="Shape" d="m29.722 59.0000002 7.019-44.3000002c.1483437-.977769.9890419-1.7003105 1.978-1.7h10.581c.9806407.0000351 1.8166072.7110725 1.974 1.679l6.691 41.1c.0239426.1474605.0359815.2966084.036.446-.0002652.736241-.2929901 1.4422221-.8137786 1.9626356-.5207886.5204134-1.2269804.8126297-1.9632214.8123644h-25.5z" fill="#547580"/><path id="Rectangle-path" d="m2 29.75h34v26.5h-34z" fill="#f0c419"/><path id="Rectangle-path" d="m9 20.875h4v7.25h-4z" fill="#e57e25"/><path id="Rectangle-path" d="m25 20.75h4v7.5h-4z" fill="#e57e25"/><rect id="Rectangle-path" fill="#f29c1f" height="5" rx="1" width="38" y="54"/><path id="Shape" d="m7 43h4c.5522847 0 1 .4477153 1 1v10h-6v-10c0-.5522847.44771525-1 1-1z" fill="#a56a43"/><rect id="Rectangle-path" fill="#2fa8cc" height="9" rx="1" width="14" x="17" y="41"/><path id="Shape" d="m38.77 13c-.4970501-.547345-.7716714-1.2606472-.77-2 .0051065-1.05004025.5588486-2.02098538 1.46-2.56-.3009459-.60251912-.4583859-1.26650529-.46-1.94-.0015951-1.1939625.4719984-2.33948215 1.3162581-3.18374189.8442597-.84425973 1.9897794-1.31785325 3.1837419-1.31625811.8040938.0017756 1.5924418.22306628 2.28.64.9793366-1.3461915 2.6912504-1.943319 4.2953873-1.49826114 1.6041369.44505785 2.7636813 1.83885366 2.9094294 3.49719295.1457481 1.65833928-.7529024 3.23302571-2.2548167 3.95106819.1767667.44915872.2683281.92731249.27 1.41.0011361 1.1644705-.5066169 2.271299-1.39 3.03l-5.61.984z" fill="#95a5a5"/><path id="Shape" d="m25 50 3-9h-5l-3 9z" fill="#ecf0f1"/><rect id="Rectangle-path" fill="#26b99a" height="21" rx="2" width="26" x="6" y="1"/><g fill="#3f5c6c"><path id="Shape" d="m49 27h-6c-.5522847 0-1-.4477153-1-1s.4477153-1 1-1h6c.5522847 0 1 .4477153 1 1s-.4477153 1-1 1z"/><path id="Shape" d="m47 32h-3c-.5522847 0-1-.4477153-1-1s.4477153-1 1-1h3c.5522847 0 1 .4477153 1 1s-.4477153 1-1 1z"/><path id="Shape" d="m51 37h-3c-.5522847 0-1-.4477153-1-1s.4477153-1 1-1h3c.5522847 0 1 .4477153 1 1s-.4477153 1-1 1z"/><path id="Shape" d="m43 40h-3c-.5522847 0-1-.4477153-1-1s.4477153-1 1-1h3c.5522847 0 1 .4477153 1 1s-.4477153 1-1 1z"/><path id="Shape" d="m51 43h-3c-.5522847 0-1-.4477153-1-1s.4477153-1 1-1h3c.5522847 0 1 .4477153 1 1s-.4477153 1-1 1z"/><path id="Shape" d="m43 48h-3c-.5522847 0-1-.4477153-1-1s.4477153-1 1-1h3c.5522847 0 1 .4477153 1 1s-.4477153 1-1 1z"/><path id="Shape" d="m51 52h-3c-.5522847 0-1-.4477153-1-1s.4477153-1 1-1h3c.5522847 0 1 .4477153 1 1s-.4477153 1-1 1z"/></g><path id="Rectangle-path" d="m2 29.75h34v7.25h-34z" fill="#2fa8cc"/><path id="Rectangle-path" d="m18 32h2v5.75h-2z" fill="#f0c419"/><path id="Shape" d="m52.14 20h-16.24l.84-5.3c.1484567-.9785195.9902838-1.7013004 1.98-1.7h10.58c.9809924-.0021164 1.817184.7109809 1.97 1.68z" fill="#35495e"/><rect id="Rectangle-path" fill="#f29c1f" height="5" rx="1" width="38" y="27"/><path id="Shape" d="m26.7 14.162-6.144-9.328c-.3465027-.52073141-.9305199-.8336136-1.556-.8336136s-1.2094973.31288219-1.556.8336136l-6.144 9.327c-.3698226.5589636-.4021039 1.2760687-.084 1.866.3260255.6023152.9571164.9762808 1.642.973h2.142c.5522847 0 1-.4477153 1-1s-.4477153-1-1-1h-1.855l5.855-8.892 5.855 8.892h-3.441l.293-.293c.3789722-.3923789.3735524-1.0160848-.0121814-1.4018186s-1.0094397-.3911536-1.4018186-.0121814l-2 2c-.3903819.3904999-.3903819 1.0235001 0 1.414l2 2c.3923789.3789722 1.0160848.3735524 1.4018186-.0121814s.3911536-1.0094397.0121814-1.4018186l-.293-.293h3.728c.683809.0021733 1.3134837-.371636 1.639-.973.3190438-.5890243.2879106-1.3058547-.081-1.865z" fill="#ecf0f1"/></g></g></svg>