<svg height="512" viewBox="0 0 60 52" width="512" xmlns="http://www.w3.org/2000/svg"><g id="Page-1" fill="none" fill-rule="evenodd"><g id="034---Recycle-Batteries" fill-rule="nonzero"><g fill="#26b99a"><path id="Shape" d="m59.539 44.408-8.1-12.939c-.2932632-.469442-.911558-.6122632-1.381-.319s-.6122632.911558-.319 1.381l8.1 12.938c.1975186.3107615.2082756.7049283.028 1.026-.1673676.3128322-.4942172.507248-.849.505h-21.604l1.293-1.293c.2527654-.2525868.3515768-.6208353.259213-.96603-.0923639-.3451946-.3618707-.6148921-.707-.7075s-.7134476.0059432-.966213.25853l-3 3c-.3903819.3904999-.3903819 1.0235001 0 1.414l3 3c.3923789.3789722 1.0160848.3735524 1.4018186-.0121814s.3911536-1.0094397.0121814-1.4018186l-1.293-1.292h21.608c1.0838262.0064642 2.0831821-.5843089 2.6-1.537.5293762-.9577948.4976008-2.1273617-.083-3.055z"/><path id="Shape" d="m27 47h-24.022c-.35478278.002248-.68163239-.1921678-.849-.505-.18027559-.3210717-.1695186-.7152385.028-1.026l13.869-22.144.432 1.842c.1261971.5379253.6645747.8716971 1.2025.7455s.8716971-.6645747.7455-1.2025l-.98-4.169c-.1262477-.5366639-.6630237-.8699124-1.2-.745l-4.169.979c-.5379253.1261971-.8716971.6645747-.7455 1.2025s.6645747.8716971 1.2025.7455l1.8-.422-13.853 22.107c-.58028654.9278217-.61167908 2.0973854-.082 3.055.5166483.9523734 1.51553174 1.5430944 2.599 1.537h24.022c.5522847 0 1-.4477153 1-1s-.4477153-1-1-1z"/><path id="Shape" d="m43.8 25.67c-.5379253-.126197-1.0763029.2075747-1.2024999.7455-.1261971.5379253.2075746 1.0763029.7454999 1.2025l4.3 1.009c.5369763.1249124 1.0737523-.2083361 1.2-.745l1.009-4.3c.0853746-.3491834-.0232362-.7173226-.2844777-.9642451s-.6349126-.3346306-.9787344-.2297286-.6048852.3862712-.6837879.7369737l-.467 1.975-14.892-23.7c-.5492271-.87579472-1.5122504-1.40534409-2.546-1.4-1.0338691-.00400062-1.9960893.52762324-2.543 1.405l-8.82 14.064c-.2765341.4667362-.1304833 1.0688387.3291649 1.3570007.4596481.288162 1.0652268.1572699 1.3648351-.2950007l8.82-14.064c.1822763-.29298638.5039535-.46992779.849-.467.3461105-.00397932.6691665.17309479.852.467l14.867 23.655z"/></g><path id="Shape" d="m28 15h4c.5522847 0 1 .4477153 1 1v3.688h-6v-3.688c0-.5522847.4477153-1 1-1z" fill="#7f8c8d"/><rect id="Rectangle-path" fill="#95a5a5" height="22" rx="2" width="14" x="23" y="19"/><path id="Shape" d="m37 31v8c-.0032948 1.1032019-.8967981 1.9967052-2 2h-10c-1.1032019-.0032948-1.9967052-.8967981-2-2v-8z" fill="#e64c3c"/><path id="Shape" d="m28 26h1v1c0 .5522847.4477153 1 1 1s1-.4477153 1-1v-1h1c.5522847 0 1-.4477153 1-1s-.4477153-1-1-1h-1v-1c0-.5522847-.4477153-1-1-1s-1 .4477153-1 1v1h-1c-.5522847 0-1 .4477153-1 1s.4477153 1 1 1z" fill="#ecf0f1"/><path id="Shape" d="m32 35h-4c-.5522847 0-1 .4477153-1 1s.4477153 1 1 1h4c.5522847 0 1-.4477153 1-1s-.4477153-1-1-1z" fill="#ecf0f1"/></g></g></svg>