<svg height="512" viewBox="0 0 60 59" width="512" xmlns="http://www.w3.org/2000/svg"><g id="Page-1" fill="none" fill-rule="evenodd"><g id="036---Bin-Lorry" fill-rule="nonzero"><path id="Shape" d="m17.957 10.04c.2128245-1.47126713-.2032277-2.96418465-1.1463157-4.11331749s-2.3261656-1.84841707-3.8106843-1.92668251c-2.896687.1440232-5.13187928 2.60273474-5 5.5-.07680922 2.4039519 1.45015566 4.5672542 3.741 5.3z" fill="#f0c419"/><path id="Shape" d="m11 0h4c.5522847 0 1 .44771525 1 1 0 1.65685425-1.3431458 3-3 3s-3-1.34314575-3-3c0-.55228475.4477153-1 1-1z" fill="#f3d55b"/><path id="Shape" d="m33.47 19.03c.3437692-.4358474.5304986-.9748965.53-1.53 0-1.3807119-1.1192881-2.5-2.5-2.5-.2661603.0009831-.5301116.048359-.78.14-.5438427-1.2971837-1.8134263-2.1409442-3.22-2.14-.3288286.0035287-.6554649.0540395-.97.15-.685194-1.3174417-2.0450338-2.1456728-3.53-2.15-.0069613-2.04231312-1.5513731-3.75139341-3.5825466-3.9645254-2.0311736-.213132-3.8967097 1.13814086-4.3274534 3.1345254-.3535659-.1074906-.7204933-.1647178-1.09-.17-1.8430647.0065661-3.4440745 1.2692182-3.88 3.06-.20489664-.0353188-.41213309-.0553739-.62-.06-1.93299662 0-3.5 1.5670034-3.5 3.5-.00431852.9434078.37889448 1.847212 1.06 2.5l12.857 1.015z" fill="#a56a43"/><path id="Shape" d="m20.251 15c-.3977982.0001929-.7578808-.2354119-.917-.6-.2026758-.2533697-.509541-.4008658-.834-.4008658s-.6313242.1474961-.834.4008658c-.2313427.4882913-.8087246.7045065-1.3038933.4882756-.4951687-.2162308-.7290216-.786697-.5281067-1.2882756.4938563-1.0138102 1.5390495-1.641083 2.666-1.6 1.1269505-.041083 2.1721437.5861898 2.666 1.6.1062705.243065.1116058.5183957.0148315.7653952-.0967743.2469996-.2877269.4454248-.5308315.5516048-.1257686.055151-.2616712.0834215-.399.083z" fill="#805333"/><path id="Shape" d="m36 47v-26c0-1.1045695-.8954305-2-2-2h-27c-2.209139 0-4 1.790861-4 4v23z" fill="#95a5a5"/><g fill="#7f8c8d"><rect id="Rectangle-path" height="19" rx="2.5" transform="matrix(-1 0 0 -1 57 65)" width="5" x="26" y="23"/><rect id="Rectangle-path" height="19" rx="2.5" transform="matrix(-1 0 0 -1 39 65)" width="5" x="17" y="23"/><rect id="Rectangle-path" height="19" rx="2.5" transform="matrix(-1 0 0 -1 21 65)" width="5" x="8" y="23"/></g><path id="Shape" d="m19.65 50h21.35l-1-4h-37c-.55228475 0-1 .4477153-1 1v2c0 .5522847.44771525 1 1 1z" fill="#2c3e50"/><circle id="Oval" cx="14" cy="52" fill="#35495e" r="6"/><circle id="Oval" cx="14" cy="52" fill="#95a5a5" r="3"/><path id="Shape" d="m54 39-14 1.5v-13.5c0-.5522847.4477153-1 1-1h7c1.6568542 0 3 1.3431458 3 3v7c0 1.6568542 1.3431458 3 3 3z" fill="#2fa8cc"/><path id="Shape" d="m54 39h3c1.1032019.0032948 1.9967052.8967981 2 2v7c-.0032948 1.1032019-.8967981 1.9967052-2 2h-17v-11z" fill="#e64c3c"/><path id="Shape" d="m44 36c-.3601643-.0004285-.6922741-.1945017-.869448-.5080746s-.172037-.698196.013448-1.0069254l3-5c.1806127-.3132279.516242-.5045637.8777878-.5004101.3615459.0041537.6926908.2031497.8660598.5204443.1733689.3172946.1619565.7034632-.0298476 1.0099658l-3 5c-.180941.3011669-.5066582.4852845-.858.485z" fill="#67b9cc"/><path id="Shape" d="m59 41v2h-3c-1.1032019-.0032948-1.9967052-.8967981-2-2v-2h3c1.1032019.0032948 1.9967052.8967981 2 2z" fill="#f0c419"/><circle id="Oval" cx="49" cy="52" fill="#35495e" r="6"/><circle id="Oval" cx="49" cy="52" fill="#95a5a5" r="3"/><path id="Shape" d="m59 59h-58c-.55228475 0-1-.4477153-1-1s.44771525-1 1-1h58c.5522847 0 1 .4477153 1 1s-.4477153 1-1 1z" fill="#a56a43"/></g></g></svg>