<svg height="512" viewBox="0 0 58 58" width="512" xmlns="http://www.w3.org/2000/svg"><g id="Page-1" fill="none" fill-rule="evenodd"><g id="037---Bulldozer-At-Landfill" fill-rule="nonzero"><path id="Shape" d="m29 22-5.481-12.788c-.3151654-.73520762-1.0380878-1.21191166-1.838-1.212h-14.681c-1.1045695 0-2 .8954305-2 2v27l24-3z" fill="#f0c419"/><path id="Shape" d="m29 22h-8l-5-14h5.68c.7990624.00260416 1.5210124.47736471 1.84 1.21z" fill="#2fa8cc"/><path id="Shape" d="m30.152 38.659 15.848-3.658v-2.002l-16.067-3.707z" fill="#f29c1f"/><path id="Shape" d="m46 34c-.5522847 0-1-.4477153-1-1v-1c.1580519-3.7116466 1.2382421-7.3254548 3.143-10.515.2892402-.4622053.8954316-.6075113 1.3627839-.3266637.4673523.2808477.6235797.8843167.3512161 1.3566637-1.7114379 2.8814337-2.6922603 6.1376816-2.857 9.485v1c0 .5522847-.4477153 1-1 1z" fill="#7f8c8d"/><path id="Shape" d="m55 46c1.4636396.0044239 2.7154841-1.0510111 2.9585186-2.4943388.2430346-1.4433277-.5941403-2.8505219-1.9785186-3.3256612 0-.06.02-.12.02-.18 0-2.209139-1.790861-4-4-4-.05 0-.09.01-.14.01-.4446618-1.769473-2.0355113-3.0100059-3.86-3.01-.0867868-.0016625-.1735973.0016764-.26.01l-1.74 1.99v1c.1631924 3.5291897 1.19357 6.9637816 3 10z" fill="#805333"/><path id="Shape" d="m49 47c-.3513418.0002845-.677059-.1838331-.858-.485-1.9044071-3.1896382-2.9842518-6.8034405-3.142-10.515v-1c0-.5522847.4477153-1 1-1s1 .4477153 1 1v1c.170644 3.3462969 1.1510483 6.6011569 2.857 9.485.1855768.3088826.19062.6937205.0132014 1.0073601-.1774186.3136397-.5098582.5075714-.8702014.5076399z" fill="#7f8c8d"/><circle id="Oval" cx="46" cy="34" fill="#95a5a5" r="3"/><path id="Shape" d="m21 22h10c1.1045695 0 2 .8954305 2 2v8c0 1.1045695-.8954305 2-2 2h-10z" fill="#e57e25"/><rect id="Rectangle-path" fill="#35495e" height="12" rx="6" width="38" y="34"/><circle id="Oval" cx="7" cy="40" fill="#95a5a5" r="2"/><circle id="Oval" cx="15" cy="40" fill="#95a5a5" r="2"/><circle id="Oval" cx="23" cy="40" fill="#95a5a5" r="2"/><circle id="Oval" cx="31" cy="40" fill="#95a5a5" r="2"/><path id="Shape" d="m17 26v3c0 .5522847-.4477153 1-1 1h-6c-.55228475 0-1-.4477153-1-1v-3z" fill="#f29c1f"/><path id="Shape" d="m17 22.96.0000015 3.04h-8.0000015v-13c0-.5522847.44771525-1 1-1h2.32c.4098038-.0003967.7783727.249279.93.63l3.39 8.48c.238241.5876627.360489 1.2158818.36 1.85z" fill="#2fa8cc"/><rect id="Rectangle-path" fill="#a56a43" height="12" rx="1" width="58" y="46"/><path id="Rectangle-path" d="m24 22h2v12h-2z" fill="#d25627"/><path id="Rectangle-path" d="m28 22h2v12h-2z" fill="#d25627"/><path id="Shape" d="m54.5 11c1.9329966 0 3.5-1.56700338 3.5-3.5s-1.5670034-3.5-3.5-3.5c-.5253247.0026457-1.0431248.12508456-1.514.358-.0704413-2.36416025-1.9658314-4.26667906-4.3297105-4.34599499-2.3638792-.07931593-4.3825343 1.69187377-4.6112895 4.04599499-1.3011213-.21310945-2.6114081.32434415-3.3881133 1.38973675s-.887549 2.47727838-.2866177 3.65082596c.6009313 1.17354759 1.8112937 1.90889139 3.129731 1.90143729z" fill="#d1d4d1"/><g fill="#805333"><path id="Shape" d="m11 51h-4c-.55228475 0-1-.4477153-1-1s.44771525-1 1-1h4c.5522847 0 1 .4477153 1 1s-.4477153 1-1 1z"/><path id="Shape" d="m15 55h-4c-.5522847 0-1-.4477153-1-1s.4477153-1 1-1h4c.5522847 0 1 .4477153 1 1s-.4477153 1-1 1z"/><path id="Shape" d="m23 51h-4c-.5522847 0-1-.4477153-1-1s.4477153-1 1-1h4c.5522847 0 1 .4477153 1 1s-.4477153 1-1 1z"/><path id="Shape" d="m27 55h-4c-.5522847 0-1-.4477153-1-1s.4477153-1 1-1h4c.5522847 0 1 .4477153 1 1s-.4477153 1-1 1z"/><path id="Shape" d="m35 51h-4c-.5522847 0-1-.4477153-1-1s.4477153-1 1-1h4c.5522847 0 1 .4477153 1 1s-.4477153 1-1 1z"/><path id="Shape" d="m39 55h-4c-.5522847 0-1-.4477153-1-1s.4477153-1 1-1h4c.5522847 0 1 .4477153 1 1s-.4477153 1-1 1z"/><path id="Shape" d="m47 51h-4c-.5522847 0-1-.4477153-1-1s.4477153-1 1-1h4c.5522847 0 1 .4477153 1 1s-.4477153 1-1 1z"/><path id="Shape" d="m51 55h-4c-.5522847 0-1-.4477153-1-1s.4477153-1 1-1h4c.5522847 0 1 .4477153 1 1s-.4477153 1-1 1z"/></g></g></g></svg>