<svg height="512" viewBox="0 0 58 58" width="512" xmlns="http://www.w3.org/2000/svg"><g id="Page-1" fill="none" fill-rule="evenodd"><g id="038---Landfill-This-Way" fill-rule="nonzero"><path id="Shape" d="m31 32v25c0 .5522847-.4477153 1-1 1h-10c-.5522847 0-1-.4477153-1-1v-25z" fill="#a56a43"/><g fill="#805333"><path id="Shape" d="m23 47c-.5522847 0-1-.4477153-1-1v-12c0-.5522847.4477153-1 1-1s1 .4477153 1 1v12c0 .5522847-.4477153 1-1 1z"/><path id="Shape" d="m28 47v11h-2v-11c0-.5522847.4477153-1 1-1s1 .4477153 1 1z"/><path id="Shape" d="m27 44c-.5522847 0-1-.4477153-1-1v-5c0-.5522847.4477153-1 1-1s1 .4477153 1 1v5c0 .5522847-.4477153 1-1 1z"/></g><path id="Shape" d="m20 0h10c.5522847 0 1 .44771525 1 1v4h-12v-4c0-.55228475.4477153-1 1-1z" fill="#a56a43"/><path id="Shape" d="m44.6 34h-42.6c-1.1045695 0-2-.8954305-2-2v-26c0-1.1045695.8954305-2 2-2h42.6c.8699933-.00003288 1.6971544.37760793 2.267 1.035l10.4 12c.9774845 1.1276573.9774845 2.8023427 0 3.93l-10.4 12c-.5698456.6573921-1.3970067 1.0350329-2.267 1.035z" fill="#f0c419"/><path id="Shape" d="m42 17c-.2651948-.0000566-.5195073-.1054506-.707-.293l-1-1c-.3789722-.3923789-.3735524-1.0160848.0121814-1.4018186s1.0094397-.3911536 1.4018186-.0121814l.293.293.293-.293c.3923789-.3789722 1.0160848-.3735524 1.4018186.0121814s.3911536 1.0094397.0121814 1.4018186l-1 1c-.1874927.1875494-.4418052.2929434-.707.293z" fill="#2fa8cc"/><path id="Shape" d="m36 13c-.2651948-.0000566-.5195073-.1054506-.707-.293l-1-1c-.3789722-.3923789-.3735524-1.0160848.0121814-1.4018186.3857338-.38573377 1.0094397-.39115361 1.4018186-.0121814l.293.293.293-.293c.3923789-.37897221 1.0160848-.37355237 1.4018186.0121814.3857338.3857338.3911536 1.0094397.0121814 1.4018186l-1 1c-.1874927.1875494-.4418052.2929434-.707.293z" fill="#2fa8cc"/><path id="Shape" d="m16.908 23.775c-3.686 1.002-6.908-1.99-6.908-5.775-.13159829-3.1732764 2.3272765-5.8556853 5.5-6 3.847 0 6.772 4.3 4.882 8.737z" fill="#2c3e50"/><path id="Shape" d="m14 8h3c.5522847 0 1 .44771525 1 1v.5c0 1.3807119-1.1192881 2.5-2.5 2.5s-2.5-1.1192881-2.5-2.5v-.5c0-.55228475.4477153-1 1-1z" fill="#35495e"/><path id="Shape" d="m8.221 29.023c-.14171094-.4873588-.21309821-.9924575-.212-1.5-.00386907-3.0367873 2.4542143-5.5020332 5.491-5.507.2003692-.000816.4006435.008864.6.029.4598775-2.3430395 2.512258-4.0339496 4.9-4.037.3428772.000546.6847501.0370795 1.02.109.2455541-2.9209941 2.7388112-5.1361157 5.6684003-5.0360614 2.9295892.1000543 5.2659068 2.4801203 5.3115997 5.4110614.0002655.1737733-.009752.3474101-.03.52 2.0332814.1746461 3.804313 1.4568653 4.605 3.334.6152811-.2383318 1.2691741-.3613816 1.929-.363 1.4586912-.0021233 2.8584814.575304 3.8914321 1.6052541 1.0329508 1.0299502 1.6144477 2.4280547 1.6165679 3.8867459.0022617.5073413-.0677754 1.0124168-.208 1.5z" fill="#a56a43"/><path id="Shape" d="m28 23c-.3668799.0006015-.7046317-.1997467-.88-.522-.2141759-.299875-.5599945-.4778494-.9285-.4778494s-.7143241.1779744-.9285.4778494c-.2639921.4854583-.8715417.6649921-1.357.401s-.6649921-.8715417-.401-1.357c.5658343-.9441624 1.5857679-1.521987 2.6865-1.521987s2.1206657.5778246 2.6865 1.521987c.1685905.3097972.1615164.6854959-.0186168.988727-.1801332.303231-.5066836.4891461-.8593832.489273z" fill="#805333"/><path id="Shape" d="m20.809 26c-.3668799.0006015-.7046317-.1997467-.88-.522-.2143946-.2998815-.560362-.4778291-.929-.4778291s-.7146054.1779476-.929.4778291c-.2639921.4854583-.8715417.6649921-1.357.401s-.6649921-.8715417-.401-1.357c.5660971-.9441254 1.5861645-1.5218762 2.687-1.5218762s2.1209029.5777508 2.687 1.5218762c.1685905.3097972.1615164.6854959-.0186168.988727-.1801332.303231-.5066836.4891461-.8593832.489273z" fill="#805333"/><path id="Shape" d="m5.011 30.027c-.55228475 0-1-.4477153-1-1s.44771525-1 1-1l40-.054c.5522847 0 1 .4477153 1 1s-.4477153 1-1 1z" fill="#805333"/></g></g></svg>