<svg height="512" viewBox="0 0 58 58" width="512" xmlns="http://www.w3.org/2000/svg"><g id="Page-1" fill="none" fill-rule="evenodd"><g id="039---Metal-Container-in-Ocean" fill-rule="nonzero"><path id="Shape" d="m46 41.81c4.58-.743 5.587-3.458 10.931-3.779.2763564-.0167598.5474403.0808883.7496293.2700268.202189.1891384.3176811.4531143.3193707.7299732v17.969c0 .5522847-.4477153 1-1 1h-56c-.55228475 0-1-.4477153-1-1v-17.968c.00168959-.2768589.11718171-.5408348.31937069-.7299732.20218898-.1891385.47327295-.2867866.74962931-.2700268 5.344.32 6.351 3.035 10.931 3.778z" fill="#3b97d3"/><path id="Rectangle-path" d="m12 5h34v19h-34z" fill="#f0c419"/><rect id="Rectangle-path" fill="#f29c1f" height="6" rx="3" width="40" x="9"/><path id="Shape" d="m16 20c-.5522847 0-1-.4477153-1-1v-9c0-.55228475.4477153-1 1-1s1 .44771525 1 1v9c0 .5522847-.4477153 1-1 1z" fill="#f3d55b"/><path id="Shape" d="m46 28v22.03c-1.4000477.6808586-2.9437869 1.0136202-4.5.97-6.25 0-6.25-4-12.51-4-6.24 0-6.24 4-12.49 4-1.5562131.0436202-3.0999523-.2891414-4.5-.97v-22.03z" fill="#f0c419"/><path id="Shape" d="m16 48c-.5522847 0-1-.4477153-1-1v-14c0-.5522847.4477153-1 1-1s1 .4477153 1 1v14c0 .5522847-.4477153 1-1 1z" fill="#f3d55b"/><path id="Shape" d="m41.5 52c-2.4385776.0414925-4.8236986-.7164358-6.791-2.158-1.6431058-1.2409998-3.6574664-1.8901342-5.716-1.842-2.0559595-.0473444-4.0675369.6018016-5.708 1.842-1.9651511 1.4413102-4.3483035 2.1992826-6.785 2.158-2.4379721.04157-4.8224828-.7163876-6.789-2.158-1.64149546-1.2404194-3.65408811-1.8895519-5.711-1.842-.55228475 0-1-.4477153-1-1s.44771525-1 1-1c2.4376424-.0414244 4.82179056.7165296 6.788 2.158 1.6418763 1.2404224 3.6547821 1.8895423 5.712 1.842 2.0559595.0473444 4.0675369-.6018016 5.708-1.842 1.9651511-1.4413102 4.3483035-2.1992826 6.785-2.158 2.4385776-.0414925 4.8236986.7164358 6.791 2.158 3.4123696 2.4559819 8.0126304 2.4559819 11.425 0 1.9673014-1.4415642 4.3524224-2.1994925 6.791-2.158.5522847 0 1 .4477153 1 1s-.4477153 1-1 1c-2.0575354-.0476115-4.0707796.6015039-5.713 1.842-1.9661716 1.4407972-4.3497737 2.1986893-6.787 2.158z" fill="#2980ba"/><rect id="Rectangle-path" fill="#f29c1f" height="6" rx="3" width="40" x="9" y="23"/></g></g></svg>