<svg height="512" viewBox="0 0 58 59" width="512" xmlns="http://www.w3.org/2000/svg"><g id="Page-1" fill="none" fill-rule="evenodd"><g id="040---Trash-Pile" fill-rule="nonzero"><g fill="#2fa8cc"><path id="Shape" d="m55 36c-.2651948-.0000566-.5195073-.1054506-.707-.293l-1-1c-.3789722-.3923789-.3735524-1.0160848.0121814-1.4018186s1.0094397-.3911536 1.4018186-.0121814l.293.293.293-.293c.3923789-.3789722 1.0160848-.3735524 1.4018186.0121814s.3911536 1.0094397.0121814 1.4018186l-1 1c-.1874927.1875494-.4418052.2929434-.707.293z"/><path id="Shape" d="m46 5c-.2651948-.00005664-.5195073-.10545063-.707-.293l-1-1c-.3789722-.39237889-.3735524-1.01608478.0121814-1.40181858.3857338-.38573379 1.0094397-.39115363 1.4018186-.01218142l.293.293.293-.293c.2510745-.25995658.6228779-.3642126.9725073-.27269716.3496295.09151544.6226744.3645604.7141899.71418984.0915154.34962943-.0127406.72143285-.2726972.97250732l-1 1c-.1874927.18754937-.4418052.29294336-.707.293z"/><path id="Shape" d="m53 4c-.2651948-.00005664-.5195073-.10545063-.707-.293l-1-1c-.3789722-.39237889-.3735524-1.01608478.0121814-1.40181858.3857338-.38573379 1.0094397-.39115363 1.4018186-.01218142l.293.293.293-.293c.3923789-.37897221 1.0160848-.37355237 1.4018186.01218142.3857338.3857338.3911536 1.00943969.0121814 1.40181858l-1 1c-.1874927.18754937-.4418052.29294336-.707.293z"/><path id="Shape" d="m26 5c-.2651948-.00005664-.5195073-.10545063-.707-.293l-1-1c-.3789722-.39237889-.3735524-1.01608478.0121814-1.40181858.3857338-.38573379 1.0094397-.39115363 1.4018186-.01218142l.293.293.293-.293c.2510745-.25995658.6228779-.3642126.9725073-.27269716.3496295.09151544.6226744.3645604.7141899.71418984.0915154.34962943-.0127406.72143285-.2726972.97250732l-1 1c-.1874927.18754937-.4418052.29294336-.707.293z"/><path id="Shape" d="m56 24c-.2651948-.0000566-.5195073-.1054506-.707-.293l-1-1c-.3789722-.3923789-.3735524-1.0160848.0121814-1.4018186s1.0094397-.3911536 1.4018186-.0121814l.293.293.293-.293c.3923789-.3789722 1.0160848-.3735524 1.4018186.0121814s.3911536 1.0094397.0121814 1.4018186l-1 1c-.1874927.1875494-.4418052.2929434-.707.293z"/><path id="Shape" d="m2 7c-.26519481-.00005664-.51950727-.10545063-.707-.293l-1-1c-.37897221-.39237889-.37355237-1.01608478.01218143-1.40181858.38573379-.38573379 1.00943968-.39115363 1.40181857-.01218142l.293.293.293-.293c.39237889-.37897221 1.01608478-.37355237 1.40181858.01218142.38573379.3857338.39115363 1.00943969.01218142 1.40181858l-1 1c-.18749273.18754937-.44180519.29294336-.707.293z"/></g><path id="Shape" d="m16.528 37.958c-2.2749399-2.0151347-3.5623455-4.9190956-3.528-7.958 0-6.08 4.92-13 11-13 8.805 0 15.176 14.513 7.707 19.968z" fill="#35495e"/><path id="Shape" d="m17 31c-.5522847 0-1-.4477153-1-1 0-3.722 2.5-7.949 5.567-9.421.4911019-.2066464 1.0579806.0080503 1.2889765.4881802.2309958.48013.0449751 1.0570549-.4229765 1.3118198-2.362 1.136-4.433 4.696-4.433 7.621 0 .5522847-.4477153 1-1 1z" fill="#547580"/><path id="Shape" d="m21 11h6c.5522847 0 1 .4477153 1 1v1c0 2.209139-1.790861 4-4 4s-4-1.790861-4-4v-1c0-.5522847.4477153-1 1-1z" fill="#3f5c6c"/><path id="Shape" d="m5.4 59h45.307c3.8556911.0561951 7.0711481-2.9352866 7.293-6.785.0581846-1.8934805-.6535464-3.7296969-1.9726603-5.0893265-1.3191139-1.3596295-3.1329656-2.1265673-5.0273397-2.1256735.0007579-2.8692746-1.5376107-5.5184751-4.03-6.94.01-.18.03-.37.03-.56.0038434-3.8066752-2.5262796-7.1507038-6.1905912-8.182019-3.6643117-1.0313152-7.5671988.5021522-9.5494088 3.752019-3.6873918-1.9821026-8.2552934-1.1523294-11.01 2-2.6652598-1.4317747-5.8719875-1.4267343-8.5327332.0134119-2.66074561 1.4401462-4.41853189 4.1221819-4.6772668 7.1365881-3.6006895.804879-6.34542513 3.7258723-6.92493333 7.3696293-.5795082 3.6437571 1.1236051 7.2721425 4.29693333 9.1543707.30037604.1724904.64165552.2609191.988.256z" fill="#a56a43"/><path id="Shape" d="m36 18c-.5522847 0-1-.4477153-1-1 .0307476-1.8308651.8702793-3.5542301 2.293-4.707.954-.954 1.707-1.707 1.707-3.293s-.753-2.339-1.707-3.293c-1.4227207-1.15276989-2.2622524-2.87613486-2.293-4.707 0-.55228475.4477153-1 1-1s1 .44771525 1 1c0 1.586.753 2.339 1.707 3.293 1.4227207 1.15276989 2.2622524 2.87613486 2.293 4.707-.0307476 1.8308651-.8702793 3.5542301-2.293 4.707-.954.954-1.707 1.707-1.707 3.293 0 .5522847-.4477153 1-1 1z" fill="#95a5a5"/><path id="Shape" d="m11 18c-.5522847 0-1-.4477153-1-1 .0307476-1.8308651.8702793-3.5542301 2.293-4.707.954-.954 1.707-1.707 1.707-3.293s-.753-2.339-1.707-3.293c-1.4227207-1.15276989-2.2622524-2.87613486-2.293-4.707 0-.55228475.4477153-1 1-1s1 .44771525 1 1c0 1.586.753 2.339 1.707 3.293 1.4227207 1.15276989 2.2622524 2.87613486 2.293 4.707-.0307476 1.8308651-.8702793 3.5542301-2.293 4.707-.954.954-1.707 1.707-1.707 3.293 0 .5522847-.4477153 1-1 1z" fill="#95a5a5"/><path id="Shape" d="m46 27c-.5522847 0-1-.4477153-1-1 .0307476-1.8308651.8702793-3.5542301 2.293-4.707.954-.954 1.707-1.707 1.707-3.293s-.753-2.339-1.707-3.293c-1.4227207-1.1527699-2.2622524-2.8761349-2.293-4.707 0-.55228475.4477153-1 1-1s1 .44771525 1 1c0 1.586.753 2.339 1.707 3.293 1.4227207 1.1527699 2.2622524 2.8761349 2.293 4.707-.0307476 1.8308651-.8702793 3.5542301-2.293 4.707-.954.954-1.707 1.707-1.707 3.293 0 .5522847-.4477153 1-1 1z" fill="#95a5a5"/><path id="Shape" d="m3 34c-.55228475 0-1-.4477153-1-1 .03074759-1.8308651.87027932-3.5542301 2.293-4.707.954-.954 1.707-1.707 1.707-3.293s-.753-2.339-1.707-3.293c-1.42272068-1.1527699-2.26225241-2.8761349-2.293-4.707 0-.5522847.44771525-1 1-1s1 .4477153 1 1c0 1.586.753 2.339 1.707 3.293 1.44725583 1.1330815 2.29280869 2.8689513 2.29280869 4.707s-.84555286 3.5739185-2.29280869 4.707c-.954.954-1.707 1.707-1.707 3.293 0 .5522847-.44771525 1-1 1z" fill="#95a5a5"/><path id="Shape" d="m13 46c-.5522847 0-1-.4477153-1-1 .0033074-3.3123376 2.6876624-5.9966926 6-6 .5522847 0 1 .4477153 1 1s-.4477153 1-1 1c-2.209139 0-4 1.790861-4 4 0 .5522847-.4477153 1-1 1z" fill="#805333"/><path id="Shape" d="m23.957 43c-.3879065-.0001454-.7407342-.2246105-.9052432-.5759056-.1645089-.3512952-.111017-.7660368.1372432-1.0640944 1.0187966-1.2229009 2.4817555-1.9908798 4.0669012-2.1349157 1.5851456-.144036 3.1625677.3476754 4.3850988 1.3669157.4241547.3540145.4810145.9848453.127 1.409s-.9848453.4810145-1.409.127c-1.6968235-1.4131917-4.2178311-1.1840092-5.632.512-.1903565.2285401-.4725678.360483-.77.36z" fill="#805333"/><path id="Shape" d="m37 52c-.3105511.0001858-.6035639-.1439188-.793-.39-1.3477178-1.7499417-3.8587349-2.0762979-5.609-.729-.2803652.2420129-.6715316.3092462-1.0166136.1747346-.3450819-.1345116-.5875575-.4487361-.6301768-.8166471-.0426192-.367911.1215986-.7292474.4267904-.9390875 2.6256121-2.0211754 6.3925414-1.531394 8.414 1.094.2299823.3018811.269263.7079315.1014108 1.0482985s-.5139081.5563884-.8934108.5577015z" fill="#805333"/><path id="Shape" d="m9 54.53c-.09972703.0001553-.19888522-.0150219-.294-.045-.25357592-.0779309-.46579541-.2534254-.58995158-.4878592-.12415616-.2344339-.15007368-.5085939-.07204842-.7621408.97543034-3.1667217 4.3332109-4.9432115 7.5-3.968.3494517.0983467.6181584.3783534.7020349.7315578.0838766.3532044-.0302526.7241243-.2981789.9690816-.2679263.2449574-.6475632.3254737-.991856.2103606-1.0139226-.3121826-2.1103327-.2087884-3.0480205.287436s-1.6398386 1.3446285-1.9519795 2.358564c-.12909831.4197037-.51689007.7060854-.956.706z" fill="#805333"/><path id="Shape" d="m45.2 50.415c-.321757-.0000292-.6238451-.1548777-.8117239-.4160848-.1878789-.261207-.2385948-.5968604-.1362761-.9019152.435925-1.3016329-.2642428-2.7104689-1.565-3.149-.3394023-.1136105-.5924125-.3996598-.6637241-.7503961-.0713116-.3507362.0499093-.7128742.318-.95s.6423218-.3132144.9817241-.1996039c2.3465226.7908009 3.6105503 3.3313801 2.826 5.68-.1350297.4097284-.517595.6866751-.949.687z" fill="#805333"/><path id="Shape" d="m41.813 40c-.053933.0001043-.1077825-.0042438-.161-.013-.5450188-.0879532-.9156534-.6009329-.828-1.146.243494-1.8940316-1.0900113-3.6285271-2.983-3.88-.359494-.0492929-.6640785-.2894555-.7958667-.6275348-.1317881-.3380793-.0700985-.7210208.1611925-1.0006102s.595887-.4119508.9526742-.345855c2.9829215.4276682 5.0578555 3.1876881 4.64 6.172-.0779772.4841865-.4955751.8403729-.986.841z" fill="#805333"/></g></g></svg>