<svg height="512" viewBox="0 0 44 58" width="512" xmlns="http://www.w3.org/2000/svg"><g id="Page-1" fill="none" fill-rule="evenodd"><g id="041---Recycle-Bin" fill-rule="nonzero"><path id="Shape" d="m28.1 54h-15.77c-1.1619004-.0001708-2.148637-.8508058-2.32-2l-6.73-46h34.72l2.39.99-6.03 41.2z" fill="#26b99a"/><path id="Shape" d="m38.06 6h-37.06c-.55228475 0-1-.44771525-1-1v-3c0-.55228475.44771525-1 1-1h37.06z" fill="#81ccb8"/><circle id="Oval" cx="40.5" cy="3.5" fill="#14a085" r="3.5"/><g fill="#ecf0f1"><path id="Shape" d="m20 28h-8l4.069-6.911.083.357c.1256448.5379253.6635747.8721447 1.2015.7465.5379253-.1256448.8721448-.6635747.7465-1.2015l-.644-2.754c-.1257913-.53707-.6627117-.8708555-1.2-.746l-2.754.644c-.5259463.1358912-.8472196.6668002-.7236041 1.1957662.1236156.5289661.6469047.8625068 1.1786041.7512338l.446-.1-4.125 7.006c-.36251268.6205384-.3670851 1.3871817-.012 2.012.3472849.6199153 1.0034408 1.0027367 1.714 1h8.02c.5522847 0 1-.4477153 1-1s-.4477153-1-1-1z"/><path id="Shape" d="m33.721 26.982-1.86-3.155c-.1767381-.3172742-.5115994-.5137853-.8747786-.513358-.3631791.0004274-.697577.197726-.873568.5154153-.1759909.3176892-.1659056.705822.0263466 1.0139427l1.881 3.157h-5.606l.293-.293c.3789722-.3923789.3735524-1.0160848-.0121814-1.4018186s-1.0094397-.3911536-1.4018186-.0121814l-2 2c-.3903819.3904999-.3903819 1.0235001 0 1.414l2 2c.3923789.3789722 1.0160848.3735524 1.4018186-.0121814s.3911536-1.0094397.0121814-1.4018186l-.293-.293h5.606c.7105592.0027367 1.3667151-.3800847 1.714-1 .3566742-.6266373.3517179-1.3960099-.013-2.018z"/><path id="Shape" d="m26.485 19.371c-.3512785-.0907615-.7241605.0158615-.9743553.27861-.2501947.2627486-.3384492.6404-.2306123.986818s.3948466.607253.7499676.681572l2.755.644c.0744641.0170829.1506018.0258036.227.026.4645771.0001574.8680764-.3196593.974-.772l.643-2.755c.111273-.5316994-.2222677-1.0549885-.7512338-1.1786041-.528966-.1236155-1.059875.1976578-1.1957662.7236041l-.075.318-4.907-8.354c-.3531176-.60338091-1.0008923-.97299357-1.7-.97-.6997783-.00257834-1.3477913.36831383-1.7.973l-2.665 4.519c-.2805606.4757933-.1222933 1.0889393.3535 1.3695.4757933.2805606 1.0889393.1222933 1.3695-.3535l2.621-4.521 4.991 8.5z"/></g><path id="Shape" d="m32.41 50-4.31 4h-15.77c-1.1619004-.0001708-2.148637-.8508058-2.32-2l-.29-2z" fill="#14a085"/><circle id="Oval" cx="33" cy="53" fill="#35495e" r="5"/><circle id="Oval" cx="33" cy="53" fill="#547580" r="2"/></g></g></svg>