<svg height="512" viewBox="0 0 48 58" width="512" xmlns="http://www.w3.org/2000/svg"><g id="Page-1" fill="none" fill-rule="evenodd"><g id="042---Paper-Shredder" fill-rule="nonzero"><path id="Shape" d="m10 15v-9l7-6h20c.5522847 0 1 .44771525 1 1v14z" fill="#f0c419"/><path id="Shape" d="m17 0v5c0 .55228475-.4477153 1-1 1h-6z" fill="#f29c1f"/><path id="Shape" d="m16 11h-1c-.5522847 0-1-.4477153-1-1 0-.55228475.4477153-1 1-1h1c.5522847 0 1 .44771525 1 1 0 .5522847-.4477153 1-1 1z" fill="#35495e"/><path id="Shape" d="m33 11h-13c-.5522847 0-1-.4477153-1-1 0-.55228475.4477153-1 1-1h13c.5522847 0 1 .44771525 1 1 0 .5522847-.4477153 1-1 1z" fill="#35495e"/><path id="Shape" d="m0 24 3.688 31.351c.17799278 1.5108576 1.45869398 2.6493064 2.98 2.649h34.664c1.521306.0003064 2.8020072-1.1381424 2.98-2.649l3.688-31.351-24-2z" fill="#35495e"/><path id="Shape" d="m48 16v8h-48v-8c.0032948-1.1032019.89679813-1.9967052 2-2h44c1.1032019.0032948 1.9967052.8967981 2 2z" fill="#95a5a5"/><path id="Shape" d="m13 14v2c0 1.1045695-.8954305 2-2 2h-4c-1.1045695 0-2-.8954305-2-2v-2z" fill="#7f8c8d"/><path id="Shape" d="m44 14v2c0 .5522847-.4477153 1-1 1s-1-.4477153-1-1v-2z" fill="#e64c3c"/><path id="Shape" d="m40 14v2c0 .5522847-.4477153 1-1 1s-1-.4477153-1-1v-2z" fill="#e64c3c"/><g fill="#f0c419"><path id="Shape" d="m10 24h4v13c0 .5522847-.4477153 1-1 1h-2c-.5522847 0-1-.4477153-1-1z"/><path id="Shape" d="m34 24h4v13c0 .5522847-.4477153 1-1 1h-2c-.5522847 0-1-.4477153-1-1z"/><path id="Shape" d="m26 24h4v13c0 .5522847-.4477153 1-1 1h-2c-.5522847 0-1-.4477153-1-1z"/><path id="Shape" d="m18 24h4v13c0 .5522847-.4477153 1-1 1h-2c-.5522847 0-1-.4477153-1-1z"/><path id="Shape" d="m45.32 46.75-1.01 8.6c-.1775253 1.5112542-1.4583547 2.6502468-2.98 2.65h-34.66c-1.52164533.0002468-2.80247473-1.1387458-2.98-2.65l-.91-7.74 6.47-3.24c.43460148-.2135486.9596586-.0875349 1.25.3l1.53 2.04 5.49-2.49c.2989391-.1394744.6477381-.1207218.93.05l4.11 2.47c.276425.1639208.6144457.1862079.91.06l5.98-2.56c.3376429-.1502449.7308365-.100132 1.02.13l2.08 1.67 5.1-1.91c.2264785-.0799865.4735215-.0799865.7 0z"/></g><path id="Shape" d="m11 55c-.1074429-.0002448-.2141442-.0178032-.316-.052l-2.051-.683c-.50327093-.1677177-.91929363-.5285066-1.15653226-1.0029839-.23723863-.4744772-.27625617-1.0237688-.10846774-1.5270161l.683-2.051c.17452198-.5246705.74132949-.808522 1.266-.634s.808522.7413295.634 1.266l-.684 2.052 2.051.684c.4645173.1559515.7476103.6255159.668666 1.1091118s-.4966689.8387558-.986666.8388882z" fill="#f29c1f"/><path id="Shape" d="m37.316 55c-.4896205-.0011079-.9064337-.3565688-.9848341-.8398729-.0784005-.4833041.2046714-.9522988.6688341-1.1081271l2.051-.684-.684-2.052c-.174522-.5246705.1093295-1.091478.634-1.266.5246705-.1745219 1.091478.1093295 1.266.634l.683 2.051c.3494916 1.0476768-.2163846 2.1803245-1.264 2.53l-2.052.683c-.1024921.0344095-.209886.0519708-.318.052z" fill="#f29c1f"/><path id="Shape" d="m17.213 55.052c-.4937987.0034457-.9161816-.3540676-.9943646-.8416498s.2112448-.9592331.6813646-1.1103502l2.052-.685-.684-2.051c-.1747981-.5246705.1088295-1.0917018.6335-1.2665.5246705-.1747981 1.0917019.1088295 1.2665.6335l.684 2.051c.1676989.5035084.1284036 1.0530245-.1092332 1.5275478-.2376368.4745234-.6541288.8351429-1.1577668 1.0024522l-2.056.688c-.1018558.0341968-.2085571.0517552-.316.052z" fill="#f29c1f"/><path id="Shape" d="m30 55c-.1074429-.0002448-.2141442-.0178032-.316-.052l-2.051-.683c-.5032709-.1677177-.9192936-.5285066-1.1565323-1.0029839-.2372386-.4744772-.2762561-1.0237688-.1084677-1.5270161l.683-2.051c.174522-.5246705.7413295-.8085219 1.266-.634.5246705.174522.808522.7413295.634 1.266l-.684 2.052 2.051.684c.4645173.1559515.7476103.6255159.668666 1.1091118s-.4966689.8387558-.986666.8388882z" fill="#f29c1f"/></g></g></svg>