<svg height="512" viewBox="0 0 44 58" width="512" xmlns="http://www.w3.org/2000/svg"><g id="Page-1" fill="none" fill-rule="evenodd"><g id="043---Bottle-Bin" fill-rule="nonzero"><path id="Shape" d="m5 15v-1.757c-.00009534-.795931.31610683-1.5592768.879-2.122l2.242-2.242c.56289317-.5627232.87909534-1.32606903.879-2.122v-2.757h4v2.757c-.0000953.79593097.3161068 1.5592768.879 2.122l2.242 2.242c.5628932.5627232.8790953 1.326069.879 2.122v1.757l-6 1z" fill="#67b9cc"/><rect id="Rectangle-path" fill="#3f5c6c" height="4" rx="1" width="6" x="8"/><path id="Shape" d="m41 19-1.8 35.205c-.1092374 2.1286972-1.8685037 3.797801-4 3.795h-26.4c-2.13333397.0026683-3.89333489-1.6693326-4-3.8l-1.8-35.2 19-1z" fill="#f0c419"/><path id="Shape" d="m29 15v-4c-.0013879-1.88816083-1.3229344-3.51820703-3.17-3.91-.4778647-.08896799-.8257724-.50394229-.83-.99v-2.1h-4v2.1c-.0042276.48605771-.3521353.90103201-.83.99-1.8470656.39179297-3.1686121 2.02183917-3.17 3.91v4l6 1z" fill="#2fa8cc"/><rect id="Rectangle-path" fill="#35495e" height="4" rx="1" width="6" x="20"/><circle id="Oval" cx="22" cy="38" fill="#955ba5" r="13"/><path id="Shape" d="m24 35v-4h-4v4c-1.1045695 0-2 .8954305-2 2v7c0 1.1045695.8954305 2 2 2h4c1.1045695 0 2-.8954305 2-2v-7c0-1.1045695-.8954305-2-2-2z" fill="#2fa8cc"/><path id="Shape" d="m25 32h-6c-.5522847 0-1-.4477153-1-1s.4477153-1 1-1h6c.5522847 0 1 .4477153 1 1s-.4477153 1-1 1z" fill="#67b9cc"/><path id="Shape" d="m27.35 15 1.64-3.55c.3288895-.7273636.9386911-1.2902574 1.69-1.56l2.97-1.1c.7456056-.27907797 1.3522605-.83906709 1.69-1.56l1.15-2.5 3.63 1.67-1.15 2.5c-.3337461.72441371-.366119 1.551722-.09 2.3l1.1 2.97c.0957493.2672025.1529897.5466703.17.83l-6.15 1z" fill="#67b9cc"/><rect id="Rectangle-path" fill="#3f5c6c" height="4" rx="1" transform="matrix(.908 .418 -.418 .908 5.157 -16.034)" width="6" x="36.145" y="1.745"/><rect id="Rectangle-path" fill="#f29c1f" height="4" rx="2" width="44" y="15"/></g></g></svg>