<svg height="512" viewBox="0 0 58 58" width="512" xmlns="http://www.w3.org/2000/svg"><g id="Page-1" fill="none" fill-rule="evenodd"><g id="044---Cardboard-Waste" fill-rule="nonzero"><path id="Shape" d="m56 6-6 44-21 2-21-2-6-44 27-2z" fill="#f0c419"/><path id="Shape" d="m29 17-3.556-5.334c-.2594319-.3894249-.7542234-.5468774-1.191-.379l-11.087 4.264c-.2837409.1089741-.5025181.341081-.5945396.6307641-.0920216.2896831-.0472977.6054945.1215396.8582359l3.307 4.96z" fill="#cb8252"/><path id="Shape" d="m29 17 3.556-5.334c.2594319-.3894249.7542234-.5468774 1.191-.379l11.087 4.264c.2837409.1089741.5025181.341081.5945396.6307641.0920216.2896831.0472977.6054945-.1215396.8582359l-3.307 4.96z" fill="#cb8252"/><path id="Shape" d="m42.0000007 25-.0000007 13.4c.000487.4128236-.2542433.7829785-.64.93l-11.36 4.37-.61.23c-.2486383.0987079-.5268212.0914824-.77-.02l-.62-.29-11.42-5.27c-.3527061-.1607551-.5793137-.5123876-.58-.9v-12.45z" fill="#a56a43"/><path id="Shape" d="m30 35v8.7l-.61.23c-.2486383.0987079-.5268212.0914824-.77-.02l-.62-.29v-8.62c0-.5522847.4477153-1 1-1s1 .4477153 1 1z" fill="#805333"/><rect id="Rectangle-path" fill="#f3d55b" height="6" rx="1" width="58"/><path id="Shape" d="m29 28 13-6-13-5-13 5z" fill="#a56a43"/><path id="Shape" d="m16 22-3.2 4c-.1918035.2400957-.2625652.5550467-.1918981.854113.0706671.2990664.274915.5490347.5538981.677887l11.129 5.137c.4174892.1928032.9126509.0760276 1.2-.283l3.509-4.386z" fill="#cb8252"/><path id="Shape" d="m42 22 3.2 4c.1918035.2400957.2625652.5550467.1918981.854113-.0706671.2990664-.274915.5490347-.5538981.677887l-11.127 5.14c-.4174892.1928032-.9126509.0760276-1.2-.283l-3.511-4.389z" fill="#cb8252"/><path id="Shape" d="m8 50h42v5c0 1.6568542-1.3431458 3-3 3h-36c-1.65685425 0-3-1.3431458-3-3z" fill="#f29c1f"/><path id="Shape" d="m50 54v1c0 1.6568542-1.3431458 3-3 3h-36c-1.65685425 0-3-1.3431458-3-3v-1z" fill="#e57e25"/></g></g></svg>