<svg height="512" viewBox="0 0 42 58" width="512" xmlns="http://www.w3.org/2000/svg"><g id="Page-1" fill="none" fill-rule="evenodd"><g id="045---Recycle-Bottle-Bag" fill-rule="nonzero"><path id="Shape" d="m15 4v2.646c.0011706.81667795.4987682 1.55060467 1.257 1.854l2.486.994c.7602635.30420808 1.2582828 1.041134 1.257 1.86l.0000025 8.646h-14.0000025v-10l3.743-1.5c.7582318-.30339533 1.2558294-1.03732205 1.257-1.854v-2.646" fill="#2980ba"/><path id="Shape" d="m24 20v-11c0-1.65685425 1.3431458-3 3-3h1v-4c0-.55228475.4477153-1 1-1h2c.5522847 0 1 .44771525 1 1v4h1c1.6568542 0 3 1.34314575 3 3v11z" fill="#2980ba"/><path id="Rectangle-path" d="m6 14h14v4h-14z" fill="#f0c419"/><path id="Rectangle-path" d="m24 11h12v7h-12z" fill="#f0c419"/><path id="Shape" d="m36 1v15c0 1.1045695-.8954305 2-2 2h-26c-1.1045695 0-2-.8954305-2-2v-15c0-.55228475-.44771525-1-1-1h-4c-.55228475 0-1 .44771525-1 1v55c0 1.1045695.8954305 2 2 2h38c1.1045695 0 2-.8954305 2-2v-55c0-.55228475-.4477153-1-1-1h-4c-.5522847 0-1 .44771525-1 1z" fill="#2fa8cc"/><circle id="Oval" cx="21" cy="38" fill="#f0c419" r="13"/><rect id="Rectangle-path" fill="#35495e" height="4" rx="1" width="6" x="10"/><path id="Shape" d="m28.7 40.161-6.141-9.328c-.3465027-.5207314-.9305199-.8336136-1.556-.8336136s-1.2094973.3128822-1.556.8336136l-6.147 9.328c-.3698226.5589636-.4021039 1.2760687-.084 1.866.3261906.6021564.9571765.9760597 1.642.973h2.142c.5522847 0 1-.4477153 1-1s-.4477153-1-1-1h-1.855l5.855-8.893 5.855 8.893h-3.441l.293-.293c.3789722-.3923789.3735524-1.0160848-.0121814-1.4018186s-1.0094397-.3911536-1.4018186-.0121814l-2 2c-.3903819.3904999-.3903819 1.0235001 0 1.414l2 2c.3923789.3789722 1.0160848.3735524 1.4018186-.0121814s.3911536-1.0094397.0121814-1.4018186l-.293-.293h3.728c.6837489.001953 1.3133191-.3717942 1.639-.973.3189986-.589385.287871-1.3064743-.081-1.866z" fill="#ecf0f1"/></g></g></svg>