<svg height="512" viewBox="0 0 58 58" width="512" xmlns="http://www.w3.org/2000/svg"><g id="Page-1" fill="none" fill-rule="evenodd"><g id="046---Litter-Picker" fill-rule="nonzero"><path id="Shape" d="m57.878 51.629-1.331 2.109.921 1.33c.2198909.3294805.1598562.7711647-.14 1.03l-2.042 1.719c-.2339754.2002225-.565558.2396966-.84.1l-2.346-1.14-1.591 1.08c-.2026139.1370752-.4568078.1739149-.69.1l-2.952-1.02c-.2111923-.0685466-.3825145-.2249237-.47-.429l-1.191-2.8c-.1314765-.2987323-.0592217-.6479639.18-.87l1.614-1.469-.3-2.16c-.0379935-.2541653.0562595-.5101565.25-.679l1.541-1.37c.2775908-.2437131.6890358-.2562955.981-.03l1.441 1.09 1.56-1.07c.2174732-.141713.4905849-.1678659.731-.07l3.222 1.3c.1689414.0693852.3073428.1971403.39.36l1.1 2.119c.1233203.245554.1088987.5377815-.038.77z" fill="#f0c419"/><path id="Shape" d="m53.252 53.379c-.062428-.0001399-.1247037-.0061666-.186-.018l-1.389-.26c-.5302772-.113685-.8732887-.6293321-.7731967-1.1623423.100092-.5330101.606802-.8890913 1.1421967-.8026577l1.39.26c.5078571.0948577.8598509.5609618.8121176 1.0753919s-.4794777.9078121-.9961176.9076081z" fill="#f29c1f"/><path id="Shape" d="m28.991 45.524 1.429 2.044 1.58-.333c.3887996-.074903.7725202.1514708.895.528l.794 2.547c.0936505.2931864.0017291.6139249-.233.813l-1.956 1.715.379 1.885c.0476339.2396019-.0168188.4878367-.175.674l-2.084 2.325c-.1450684.1681679-.3559085.2651981-.578.266l-3.042.012c-.3254509.0057892-.619018-.1947347-.732-.5l-.731-2.054-2.107-.56c-.249008-.0637358-.4483945-.2499303-.529-.494l-.666-1.951c-.1170719-.3499432.0305767-.7337457.352-.915l1.563-.905-.381-1.852c-.0463846-.254956.0350562-.5164634.218-.7l2.446-2.469c.1295363-.1286965.3008827-.2067425.483-.22l2.38-.192c.2746553-.0181201.5386117.1094905.695.336z" fill="#f0c419"/><path id="Shape" d="m27.111 52.253c-.3679081-.0001859-.706001-.202375-.8802393-.5264081s-.1564782-.7175706.0462393-1.0245919l.78-1.181c.3077596-.4507803.9201318-.571508 1.3759537-.271266.4558219.3002419.586688.9105278.2940463 1.371266l-.78 1.181c-.1849246.2815375-.4991611.4510598-.836.451z" fill="#f29c1f"/><path id="Shape" d="m16.724 51.629-1.33 2.109.92 1.33c.2198909.3294805.1598562.7711647-.14 1.03l-2.04 1.719c-.2339754.2002225-.565558.2396966-.84.1l-2.34-1.14-1.59 1.08c-.20261389.1370752-.45680783.1739149-.69.1l-2.95-1.02c-.21119231-.0685466-.38251452-.2249237-.47-.429l-1.19-2.8c-.1314765-.2987323-.0592217-.6479639.18-.87l1.61-1.469-.3-2.16c-.03799354-.2541653.05625951-.5101565.25-.679l1.54-1.37c.27726743-.2435575.68835402-.2561418.98-.03l1.44 1.09 1.56-1.07c.2171059-.1417037.4899218-.1678642.73-.07l3.22 1.3c.1689414.0693852.3073428.1971403.39.36l1.1 2.119c.1227205.2459006.1075392.5381389-.04.77z" fill="#f0c419"/><path id="Shape" d="m12.106 53.379c-.0620971-.0001372-.1240412-.0061642-.185-.018l-1.39-.26c-.3587174-.057911-.65779343-.3058468-.7811928-.6476135s-.05170093-.7235754.18727784-.9972925c.23897876-.2737171.60762626-.3962636.96291496-.320094l1.39.26c.5078571.0948577.8598509.5609618.8121176 1.0753919s-.4794777.9078121-.9961176.9076081z" fill="#f29c1f"/><path id="Shape" d="m10.394 18.721h-.02c-.5307376-.0034126-1.037933-.219547-1.408-.6l-7.3-7.431 1.428-1.4 7.3 7.431 4.906-4.821 1.4 1.428-4.906 4.817c-.3720086.3697713-.8754809.5769142-1.4.576z" fill="#35495e"/><path id="Shape" d="m8.745 13.313c-.38307165.0002063-.73259772-.2184417-.9-.563-.96363307-2.206873-1.19323454-4.6648356-.655-7.012.18995651-.4972851.73619054-.75858965 1.24257253-.59441528.50638199.16417438.79538666.6962721.65742747 1.21041528-.37558567 1.85387528-.18356469 3.7779186.551 5.521.15108059.3100855.13168882.6761414-.05130774.9685292-.18299657.2923879-.50376.4698245-.84869226.4694708z" fill="#2c3e50"/><path id="Shape" d="m34.481 32.768-17.978-18.263.497-2.505 2.357-.298 17.978 18.263-.335 2.035z" fill="#7f8c8d"/><path id="Shape" d="m41.838 41.488-3.891-3.716c-.7736304-.788159-.7619907-2.0541982.026-2.828l1.451-1.424c.788159-.7736304 2.0541982-.7619907 2.828.026l3.89 3.716 2.858-.262v-2.54l-4.591-4.43c-.9290318-.9463323-2.1959544-1.4848297-3.5220374-1.4970197s-2.602691.5029261-3.5489626 1.4320197l-2.878 2.826c-1.9699767 1.9345045-1.9990759 5.0996026-.065 7.07l4.615 4.407 1.99-.268z" fill="#95a5a5"/><rect id="Rectangle-path" fill="#35495e" height="6" rx="1" transform="matrix(.701 .714 -.714 .701 44.133 -16.59)" width="4" x="39.835" y="41.294"/><rect id="Rectangle-path" fill="#35495e" height="6" rx="1" transform="matrix(.701 .714 -.714 .701 41.27 -23.78)" width="4" x="46.971" y="34.288"/><path id="Shape" d="m19.37 10.288-9.808-9.988c-.38690089-.39399535-1.01992051-.39981519-1.414-.013l-7.848 7.705c-.39399535.38690089-.39981519 1.01992051-.013 1.414l2.1 2.14 4.293-3.163c.80373148-.59059825 1.918985-.50248471 2.62.207l5.793 5.9c.1858375.1895106.4393926.2973658.7048053.2998042s.5209067-.10074.7101947-.2868042l2.854-2.8c.1888414-.1865045.2957927-.4404313.2972933-.7058418.0015005-.2654106-.1025728-.5205304-.2892933-.7091582z" fill="#955ba5"/></g></g></svg>