<svg height="512" viewBox="0 0 58 58" width="512" xmlns="http://www.w3.org/2000/svg"><g id="Page-1" fill="none" fill-rule="evenodd"><g id="048---Electronic-Waste" fill-rule="nonzero"><path id="Shape" d="m54 14v20h-16v-20c.0032948-1.1032019.8967981-1.9967052 2-2h12c1.1032019.0032948 1.9967052.8967981 2 2z" fill="#67b9cc"/><path id="Shape" d="m54 17.46v14.54h-16v-2.1c1.56-4.54 5.6-10.71 16-12.44z" fill="#2fa8cc"/><path id="Shape" d="m34 2v24c-.0032948 1.1032019-.8967981 1.9967052-2 2h-30c-1.10320187-.0032948-1.9967052-.8967981-2-2v-24c.0032948-1.10320187.89679813-1.9967052 2-2h30c1.1045695 0 2 .8954305 2 2z" fill="#67b9cc"/><path id="Shape" d="m34 2v24c-.0032948 1.1032019-.8967981 1.9967052-2 2h-27.98c.21-4.76 2.66-24.99 29-27.72.6073989.36012863.9798768 1.01386542.98 1.72z" fill="#2fa8cc"/><path id="Rectangle-path" d="m12 27h10v6h-10z" fill="#7f8c8d"/><path id="Shape" d="m28.948 9.684c-.1748468-.52328415-.7404646-.80609307-1.264-.632l-2.537.844-2.154-1.436c-.5479124-.3653082-1.2405397-.43748803-1.852-.193l-2.8 1.119.559-2.786 2.656-1.771c.4595009-.30651804.583518-.92749909.277-1.387s-.9274991-.58351804-1.387-.277l-2.653 1.77c-.4415906.29446895-.7486327.75179622-.854 1.272l-.626 3.13-4.413-2.937c-.441463-.29247119-.9800068-.40017993-1.5-.3l-4.6.92c-.54123905.11045695-.89045695.63876095-.78 1.18s.63876095.89045695 1.18.78l4.594-.918 4.406 2.938-1.4.938c-.4415906.294469-.7486327.7517962-.854 1.272l-.926 4.59c-.0530985.2599175-.0007425.5302825.1455449.751589.1462873.2213065.3745164.3754164.6344551.428411.0657696.0137352.132813.0204396.2.02.4748929-.000378.8840215-.3347017.979-.8l.921-4.6 1.63-1.087 1.37 3.425c.2154143.5497339.6638205.9754267 1.224 1.162l2.56.853c.3394023.1128959.7132522.0361471.9807241-.201336.2674719-.237483.3879305-.599621.3160001-.95-.0719305-.350379-.3253219-.6357681-.6647242-.748664l-2.559-.853-1.457-3.643 3.583-1.433 2.156 1.438c.5122388.3450266 1.156286.4308503 1.741.232l2.536-.846c.5232841-.1748468.8060931-.7404646.632-1.264z" fill="#3b97d3"/><path id="Shape" d="m42 12 .811 3.243c.1114591.4449311.5113206.7569879.97.757h4.438c.4586794-.0000121.8585409-.3120689.97-.757l.811-3.243z" fill="#35495e"/><path id="Shape" d="m50.242 27.03-3.242-.81v-1.806l1.707-1.707c.3789722-.3923789.3735524-1.0160848-.0121814-1.4018186s-1.0094397-.3911536-1.4018186-.0121814l-1.387 1.387-3.306-2.48c-.4418278-.3313708-1.0686292-.2418278-1.4.2s-.2418278 1.0686292.2 1.4l3.6 2.7v2.223l-4 6.677c-.2844266.4735842-.1310842 1.0880734.3425 1.3725s1.0880734.1310842 1.3725-.3425l3.767-6.278 3.281.821c.0776674.0182655.1572144.0273278.237.027.5045236-.0010576.9292396-.3777768.9905039-.8785681.0612643-.5007912-.2601138-.9687839-.7495039-1.0914319z" fill="#3b97d3"/><path id="Shape" d="m34 23v3c-.0032948 1.1032019-.8967981 1.9967052-2 2h-30c-1.10320187-.0032948-1.9967052-.8967981-2-2v-3z" fill="#95a5a5"/><path id="Shape" d="m56 38-4.621 18.485c-.2226204.890621-1.0229774 1.51532-1.941 1.515h-40.876c-.91802257.00032-1.71837957-.624379-1.941-1.515l-4.621-18.485 27-1z" fill="#f29c1f"/><rect id="Rectangle-path" fill="#f0c419" height="6" rx="1" width="58" y="32"/></g></g></svg>