<svg height="512" viewBox="0 0 58 58" width="512" xmlns="http://www.w3.org/2000/svg"><g id="Page-1" fill="none" fill-rule="evenodd"><g id="049---Ripped-Jumper" fill-rule="nonzero"><path id="Shape" d="m15 53h28v3c0 1.1045695-.8954305 2-2 2h-24c-1.1045695 0-2-.8954305-2-2z" fill="#f29c1f"/><path id="Shape" d="m56.9 45.52-2.54 1.27c-.4823839.2425106-1.0426849.2782806-1.5519912.0990803-.5093063-.1792004-.9237613-.5579401-1.1480088-1.0490803l-4.66-10.37-2-4.45v8.98c0 .5522847-.4477153 1-1 1h-4c-.3668574.0018915-.7032263.2045104-.8764086.5279231-.1731823.3234128-.1553705.7156897.0464086 1.0220769l.69 1.04c.1720175.2559798.2162977.5770112.12.87l-.41 1.22c-.0999176.3055101-.0479835.6403645.13978.9012568.1877634.2608924.4887938.4164729.81022.4187432h3.48c.5522847 0 1 .4477153 1 1v4c-.0032948 1.1032019-.8967981 1.9967052-2 2h-28c-1.1032019-.0032948-1.9967052-.8967981-2-2v-20.98l-2 4.45-4.66 10.37c-.22424754.4911402-.63870254.8698799-1.1480088 1.0490803-.50930625.1792003-1.06960728.1434303-1.5519912-.0990803l-2.54-1.27c-.91321809-.4694828-1.33017382-1.5484095-.97-2.51l12.21-32.27c.408957-1.10815229 1.2935186-1.97436197 2.41-2.36 2.3656756-.77496511 4.7902837-1.35687107 7.25-1.74h14c2.4597163.38312893 4.8843244.96503489 7.25 1.74 1.1164814.38563803 2.001043 1.25184771 2.41 2.36l12.21 32.27c.3601738.9615905-.0567819 2.0405172-.97 2.51z" fill="#f0c419"/><rect id="Rectangle-path" fill="#f29c1f" height="8" rx="1" width="14" x="22"/><path id="Shape" d="m27 16v11.57c.0000552.3688869-.2029784.707846-.528235.881874-.3252565.1740279-.7199063.1548582-1.026765-.049874l-.5-.335c-.2387383-.1594049-.534468-.2085245-.8119188-.1348565s-.5098626.2630182-.6380812.5198565l-.5.995c-.1761186.3522648-.5425986.5683513-.9360946.5519467-.393496-.0164047-.7407185-.2622451-.8869054-.6279467l-.823-2.057c-.1967618-.4916416-.742686-.7446522-1.245-.577l-.788.263c-.3048053.1015206-.6398255.0504155-.9004999-.1373651s-.4152562-.4893677-.4155001-.8106349v-8.3c.000185-.3464401.1796678-.6681037.4743943-.8501945.2947265-.1820909.6627032-.1986643.9726057-.0438055l2.034 1.017c.320571.1595566.7019883.1355273 1-.063l3.962-2.641c.3064761-.205545.7012433-.2255993 1.0269713-.0521706.3257281.1734288.5294708.5121503.5300287.8811706z" fill="#e57e25"/><g fill="#f29c1f"><path id="Shape" d="m13 23v8.02l-2 4.45v-12.47c0-.5522847.4477153-1 1-1s1 .4477153 1 1z"/><path id="Shape" d="m47 23v12.47l-2-4.45v-8.02c0-.5522847.4477153-1 1-1s1 .4477153 1 1z"/><path id="Shape" d="m20 42c0-.5522847-.4477153-1-1-1v-1c0-.5522847-.4477153-1-1-1s-1 .4477153-1 1v1c-.5522847 0-1 .4477153-1 1s.4477153 1 1 1v2c-.5522847 0-1 .4477153-1 1s.4477153 1 1 1v1c0 .5522847.4477153 1 1 1s1-.4477153 1-1v-1c.5522847 0 1-.4477153 1-1s-.4477153-1-1-1v-2c.5522847 0 1-.4477153 1-1z"/><path id="Shape" d="m39 24v-2c.5522847 0 1-.4477153 1-1s-.4477153-1-1-1v-1c0-.5522847-.4477153-1-1-1s-1 .4477153-1 1v1c-.5522847 0-1 .4477153-1 1s.4477153 1 1 1v2c-.5522847 0-1 .4477153-1 1s.4477153 1 1 1v1c0 .5522847.4477153 1 1 1s1-.4477153 1-1v-1c.5522847 0 1-.4477153 1-1s-.4477153-1-1-1z"/></g></g></g></svg>