<svg height="512" viewBox="0 0 60 59" width="512" xmlns="http://www.w3.org/2000/svg"><g id="Page-1" fill="none" fill-rule="evenodd"><g id="051---Digger-At-Landfill" fill-rule="nonzero"><path id="Shape" d="m57.82 5c.1211006-.31939584.1821256-.65842344.18-1 0-1.65685425-1.3431458-3-3-3-.2359422.00404129-.4707092.03422563-.7.09-.5644722-.68976013-1.4087099-1.08977153-2.3-1.08977153s-1.7355278.4000114-2.3 1.08977153c-.2292908-.05577437-.4640578-.08595871-.7-.09-1.6568542 0-3 1.34314575-3 3-.0021256.34157656.0588994.68060416.18 1l5.82 2z" fill="#a56a43"/><path id="Shape" d="m11 36c-.5522847 0-1-.4477153-1-1v-5.764c-.00020222-.3786657-.21427059-.7247365-.553-.894l-.894-.442c-.49429485-.2468713-.69487128-.8477051-.448-1.342s.84770515-.6948713 1.342-.448l.9.448c1.0153666.5057596 1.6560054 1.5436486 1.653 2.678v5.764c0 .5522847-.4477153 1-1 1z" fill="#95a5a5"/><path id="Shape" d="m18 23h-2c-.5522847 0-1-.4477153-1-1s.4477153-1 1-1h2c.5522847 0 1 .4477153 1 1s-.4477153 1-1 1z" fill="#f0c419"/><path id="Shape" d="m37 34-19 2v-15h10.81c.7350415-.0000104 1.4108553.403174 1.76 1.05l1.65 3.06z" fill="#67b9cc"/><path id="Shape" d="m54 13.71v3.57c.0000726.4671583-.1625788.9197535-.46 1.28l-3.97 4.76c-.3638157.4329879-.5273089.9997646-.45 1.56l1.27 9.12-4.39 2-4-2 .93-11.18c.0439141-.5231159.2917406-1.0079939.69-1.35l5.68-4.87c.4418854-.3818078.6971151-.9360209.7-1.52v-1.37z" fill="#f29c1f"/><path id="Shape" d="m50.39 34h-32.39v-1h-11.523c-.87785038.0002681-1.65291202.5729458-1.911 1.412l-3.478 11.3c-.05826148.1905671-.08791789.3887258-.088.588v1.7c0 1.1045695.8954305 2 2 2h37l12.42-6.66z" fill="#f0c419"/><path id="Rectangle-path" d="m21 42h12v8h-12z" fill="#e57e25"/><circle id="Oval" cx="13" cy="50" fill="#35495e" r="8"/><circle id="Oval" cx="13" cy="50" fill="#95a5a5" r="4"/><circle id="Oval" cx="48" cy="50" fill="#35495e" r="8"/><circle id="Oval" cx="48" cy="50" fill="#95a5a5" r="4"/><path id="Shape" d="m13 39h-4c-.55228475 0-1-.4477153-1-1s.44771525-1 1-1h4c.5522847 0 1 .4477153 1 1s-.4477153 1-1 1z" fill="#f29c1f"/><path id="Shape" d="m46 5h12c.5522847 0 1 .44771525 1 1v1c0 1.85651543-.7374979 3.6369928-2.0502525 4.9497475-1.3127547 1.3127546-3.0932321 2.0502525-4.9497475 2.0502525-3.8659932 0-7-3.1340068-7-7v-1c0-.55228475.4477153-1 1-1z" fill="#f0c419"/><path id="Shape" d="m25 34v-13h-2v13h-5v1.93c-.0021877.667998.3324286 1.2921138.89 1.66l1.22.82c.5575714.3678862.8921877.992002.89 1.66v1.93h15c.5522847 0 1-.4477153 1-1v-7z" fill="#f29c1f"/><path id="Shape" d="m33 45v2h-5c-.5522847 0-1-.4477153-1-1s.4477153-1 1-1z" fill="#d25627"/><path id="Shape" d="m59 59h-58c-.55228475 0-1-.4477153-1-1s.44771525-1 1-1h58c.5522847 0 1 .4477153 1 1s-.4477153 1-1 1z" fill="#a56a43"/><path id="Shape" d="m37 34h-11.46c1.0883017-3.6686298 3.4591185-6.8238036 6.68-8.89z" fill="#2fa8cc"/></g></g></svg>