<svg height="512" viewBox="0 0 58 58" width="512" xmlns="http://www.w3.org/2000/svg"><g id="Page-1" fill="none" fill-rule="evenodd"><g id="053---Crushed-Bottle" fill-rule="nonzero"><path id="Shape" d="m26 15v38c0 2.152152-1.3771505 4.0628463-3.4188612 4.7434165s-4.2898476-.0216949-5.5811388-1.7434165c-.9442719 1.2590292-2.4262135 2-4 2s-3.05572809-.7409708-4-2c-1.29129122 1.7217216-3.53942813 2.4239867-5.58113883 1.7434165s-3.41886117-2.5912645-3.41886117-4.7434165v-38c0-3.3137085 2.6862915-6 6-6h2c1.10320187-.0032948 1.9967052-.89679813 2-2v-3l3-1 3 1v3c.0032948 1.10320187.8967981 1.9967052 2 2h2c3.3137085 0 6 2.6862915 6 6z" fill="#2fa8cc"/><path id="Shape" d="m13 3v55.0003221c-1.5734155-.001892-3.05469479-.7425316-4-2.0003221-1.29129122 1.7217216-3.53942813 2.4239867-5.58113883 1.7434165s-3.41886117-2.5912645-3.41886117-4.7434165v-38c0-3.3137085 2.6862915-6 6-6h2c1.10320187-.0032948 1.9967052-.89679813 2-2v-3z" fill="#67b9cc"/><path id="Shape" d="m57.38 26.62-1.38 1.38.32.95 1.35 4.05v.01c.2103994.6219451.0979663 1.307787-.3 1.83l-.12.16-2.25 3 2.67 5.34c.2131507.4273398.2663577.9168441.15 1.38l-.06.25-.51 2.03-.25 1 .33 1 .67 2v1.79c.0399856 2.6178225-1.8930223 4.8478851-4.49 5.18-1.7448129.179873-3.4562867-.5677109-4.51-1.97-.9442719 1.2590292-2.4262135 2-4 2s-3.0557281-.7409708-4-2c-1.0537133 1.4022891-2.7651871 2.149873-4.51 1.97-2.5969777-.3321149-4.5299856-2.5621775-4.49-5.18v-1.79l.67-2 .33-1-.25-1-.51-2.03-.06-.25c-.1163577-.4631559-.0631507-.9526602.15-1.38l2.67-5.34-2.25-3-.12-.16c-.3979663-.522213-.5103994-1.2080549-.3-1.83v-.01l1.35-4.05.32-.95-1.37-1.37-.04-.04c-.3774773-.3761733-.5897587-.8870877-.59-1.42v-2.17c0-3.3137085 2.6862915-6 6-6h2c1.1032019-.0032948 1.9967052-.8967981 2-2v-3l3-1 3 1v3c.0032948 1.1032019.8967981 1.9967052 2 2h2c3.3137085 0 6 2.6862915 6 6v2.17c-.0002413.5329123-.2125227 1.0438267-.59 1.42z" fill="#2fa8cc"/><path id="Shape" d="m45 11v47c-1.5734155-.0015699-3.0546948-.7422095-4-2-1.0537133 1.4022891-2.7651871 2.149873-4.51 1.97-2.5969777-.3321149-4.5299856-2.5621775-4.49-5.18v-1.79l1-3-.82-3.28c-.1163577-.4631559-.0631507-.9526602.15-1.38l2.67-5.34-2.37-3.16c-.3979663-.522213-.5103994-1.2080549-.3-1.83l1.67-5.01-1.41-1.41c-.3774773-.3761733-.5897587-.8870877-.59-1.42v-2.17c0-3.3137085 2.6862915-6 6-6h2c1.1032019-.0032948 1.9967052-.8967981 2-2v-3z" fill="#67b9cc"/><rect id="Rectangle-path" fill="#35495e" height="4" rx="1" width="8" x="9"/><path id="Rectangle-path" d="m13 21h13v22h-13z" fill="#f0c419"/><path id="Rectangle-path" d="m0 21h13v22h-13z" fill="#f3d55b"/><rect id="Rectangle-path" fill="#35495e" height="4" rx="1" width="8" x="41" y="8"/><g fill="#2980ba"><path id="Shape" d="m41 38c0 .5522847-.4477153 1-1 1h-5.5l.5-1-.75-1h5.75c.5522847 0 1 .4477153 1 1z"/><path id="Shape" d="m49 48c0 .5522847-.4477153 1-1 1h-15.33l.33-1-.25-1h15.25c.5522847 0 1 .4477153 1 1z"/><path id="Shape" d="m57.33 49h-5.33c-.5522847 0-1-.4477153-1-1s.4477153-1 1-1h5.25l-.25 1z"/><path id="Shape" d="m55 38 .5 1h-11.5c-.5522847 0-1-.4477153-1-1s.4477153-1 1-1h11.75z"/><path id="Shape" d="m49 34c0 .5522847-.4477153 1-1 1h-15.25l-.12-.16c-.3979663-.522213-.5103994-1.2080549-.3-1.83v-.01h15.67c.5522847 0 1 .4477153 1 1z"/><path id="Shape" d="m42.97 30.24c-.1329088.5354504-.6743509.8621055-1.21.73l-8.08-2.02.32-.95-1.37-1.37 9.61 2.4c.5354504.1329088.8621055.6743509.73 1.21z"/><path id="Shape" d="m56 28 .32.95-8.08 2.02c-.5356491.1321055-1.0770912-.1945496-1.21-.73-.1321055-.5356491.1945496-1.0770912.73-1.21l9.62-2.41z"/><path id="Shape" d="m42.2 42.98-9.96 1.99-.06-.25c-.1163577-.4631559-.0631507-.9526602.15-1.38l.24-.48 9.23-1.84c.541239-.1104569 1.069543.238761 1.18.78.1104569.541239-.238761 1.069543-.78 1.18z"/><path id="Shape" d="m57.82 44.72-.06.25-9.96-1.99c-.3501203-.0714531-.635525-.3242655-.7487049-.6632051-.11318-.3389396-.0369404-.7125135.2-.98.2369403-.2674865.5985846-.388248.9487049-.3167949l9.23 1.84.24.48c.2131507.4273398.2663577.9168441.15 1.38z"/><path id="Shape" d="m57.37 34.84-.12.16h-5.25c-.5522847 0-1-.4477153-1-1s.4477153-1 1-1h5.67v.01c.2103994.6219451.0979663 1.307787-.3 1.83z"/></g><path id="Shape" d="m26 31v2h-8.07c-.4 2.84-2.45 5-4.93 5v-12c2.48 0 4.53 2.16 4.93 5z" fill="#894b9d"/><path id="Shape" d="m13 26v12c-2.48 0-4.53-2.16-4.93-5h-8.07v-2h8.07c.4-2.84 2.45-5 4.93-5z" fill="#955ba5"/></g></g></svg>