<svg height="512" viewBox="0 0 52 58" width="512" xmlns="http://www.w3.org/2000/svg"><g id="Page-1" fill="none" fill-rule="evenodd"><g id="054---Compost-Bin" fill-rule="nonzero"><path id="Shape" d="m35 4s-3.25-4-13-4-13 4-13 4l13 1z" fill="#33907c"/><path id="Shape" d="m41 44v10h-38v-10c.0032948-1.1032019.89679813-1.9967052 2-2v-10c.0032948-1.1032019.89679813-1.9967052 2-2v-10c.0032948-1.1032019.89679813-1.9967052 2-2v-10l13-1 13 1v10c1.1011688.0081672 1.9918328.8988312 2 2v10c1.1011688.0081672 1.9918328.8988312 2 2v10c1.1011688.0081672 1.9918328.8988312 2 2z" fill="#26b99a"/><g fill="#14a085"><path id="Shape" d="m10 41c0 .5522847-.44771525 1-1 1h-4v-2h4c.55228475 0 1 .4477153 1 1z"/><path id="Shape" d="m39 40v2h-4c-.5522847 0-1-.4477153-1-1s.4477153-1 1-1z"/><path id="Shape" d="m12 29c0 .5522847-.4477153 1-1 1h-4v-2h4c.5522847 0 1 .4477153 1 1z"/><path id="Shape" d="m37 28v2h-4c-.5522847 0-1-.4477153-1-1s.4477153-1 1-1z"/><path id="Shape" d="m14 17c0 .5522847-.4477153 1-1 1h-4v-2h4c.5522847 0 1 .4477153 1 1z"/><path id="Shape" d="m35 16v2h-4c-.5522847 0-1-.4477153-1-1s.4477153-1 1-1z"/><rect id="Rectangle-path" height="4" rx="2" width="32" x="6" y="4"/></g><path id="Shape" d="m13 54 1-18h16l.999 18z" fill="#35495e"/><path id="Shape" d="m43.81 56.85c1.9921504 1.6513902 4.915142 1.5099818 6.7385805-.3259988 1.8234386-1.8359806 1.9448077-4.7598728.2798009-6.7406568s-4.5662235-2.363952-6.6883814-.8833444c-.8293183-1.1908185-2.1888566-1.9004676-3.64-1.9-1.1641093-.0008237-2.2829315.4510083-3.12 1.26-.7941429-1.3949419-2.274846-2.2574134-3.88-2.26-.08 0-.16.02-.25.02-.8546131-1.3025485-2.325136-2.066899-3.8822478-2.0179204-1.5571119.0489786-2.9766903.9042366-3.7477522 2.2579204-1.2998383-1.250625-3.2208622-1.6042305-4.8808242-.8984199-1.659962.7058107-2.7380632 2.3346347-2.7391758 4.1384199v4.5z" fill="#a56a43"/><path id="Shape" d="m32 37h-20c-.5522847 0-1-.4477153-1-1s.4477153-1 1-1h20c.5522847 0 1 .4477153 1 1s-.4477153 1-1 1z" fill="#14a085"/><rect id="Rectangle-path" fill="#3f5c6c" height="4" rx="2" width="44" y="54"/></g></g></svg>