<svg height="512" viewBox="0 0 58 59" width="512" xmlns="http://www.w3.org/2000/svg"><g id="Page-1" fill="none" fill-rule="evenodd"><g id="055---Old-Cigarette" fill-rule="nonzero"><path id="Shape" d="m35.0000068 29-.0000068 8.39c.0010438.3957982-.1174624.7826862-.34 1.11l-.33.5-2.66 4-.33.5c-.2225376.3273138-.3410438.7142018-.34 1.11v8.39h-12.0000029l.0000029-12.3c-.0007714-.4547535.1545465-.8959976.44-1.25l.36-.45 2.4-3 .36-.45c.2854535-.3540024.4407714-.7952465.44-1.25v-5.3z" fill="#f9eab0"/><path id="Shape" d="m12 34c-.5522847 0-1-.4477153-1-1 .0307476-1.8308651.8702793-3.5542301 2.293-4.707.954-.954 1.707-1.707 1.707-3.293s-.753-2.339-1.707-3.293c-1.4227207-1.1527699-2.2622524-2.8761349-2.293-4.707.0307476-1.8308651.8702793-3.5542301 2.293-4.707.954-.954 1.707-1.707 1.707-3.293s-.753-2.339-1.707-3.293c-1.4227207-1.15276989-2.2622524-2.87613486-2.293-4.707 0-.55228475.4477153-1 1-1s1 .44771525 1 1c0 1.586.753 2.339 1.707 3.293 1.4227207 1.15276989 2.2622524 2.87613486 2.293 4.707-.0307476 1.8308651-.8702793 3.5542301-2.293 4.707-.954.954-1.707 1.707-1.707 3.293s.753 2.339 1.707 3.293c1.4472558 1.1330815 2.2928087 2.8689513 2.2928087 4.707s-.8455529 3.5739185-2.2928087 4.707c-.954.954-1.707 1.707-1.707 3.293 0 .5522847-.4477153 1-1 1z" fill="#95a5a5"/><path id="Shape" d="m42 34c-.5522847 0-1-.4477153-1-1 .0307476-1.8308651.8702793-3.5542301 2.293-4.707.954-.954 1.707-1.707 1.707-3.293s-.753-2.339-1.707-3.293c-1.4227207-1.1527699-2.2622524-2.8761349-2.293-4.707.0307476-1.8308651.8702793-3.5542301 2.293-4.707.954-.954 1.707-1.707 1.707-3.293s-.753-2.339-1.707-3.293c-1.4227207-1.15276989-2.2622524-2.87613486-2.293-4.707 0-.55228475.4477153-1 1-1s1 .44771525 1 1c0 1.586.753 2.339 1.707 3.293 1.4227207 1.15276989 2.2622524 2.87613486 2.293 4.707-.0307476 1.8308651-.8702793 3.5542301-2.293 4.707-.954.954-1.707 1.707-1.707 3.293s.753 2.339 1.707 3.293c1.4472558 1.1330815 2.2928087 2.8689513 2.2928087 4.707s-.8455529 3.5739185-2.2928087 4.707c-.954.954-1.707 1.707-1.707 3.293 0 .5522847-.4477153 1-1 1z" fill="#95a5a5"/><path id="Shape" d="m55 59h-52c-1.65685425 0-3-1.3431458-3-3v-7c0-2.209139 1.790861-4 4-4h3c.55228475 0 1 .4477153 1 1v5c0 .5522847.44771525 1 1 1h40c.5522847 0 1-.4477153 1-1v-5c0-.5522847.4477153-1 1-1h3c2.209139 0 4 1.790861 4 4v7c0 1.6568542-1.3431458 3-3 3z" fill="#2fa8cc"/><path id="Shape" d="m25 1h8c1.1045695 0 2 .8954305 2 2v27h-12v-27c0-1.1045695.8954305-2 2-2z" fill="#fac176"/><path id="Shape" d="m26 40c0 .5522847-.4477153 1-1 1h-6.0000029l.0000029-.3c-.0007714-.4547535.1545465-.8959976.44-1.25l.36-.45h5.2c.5522847 0 1 .4477153 1 1z" fill="#fac176"/><path id="Shape" d="m31.67 43-.33.5c-.2225376.3273138-.3410438.7142018-.34 1.11v.39h-7c-.5522847 0-1-.4477153-1-1s.4477153-1 1-1z" fill="#fac176"/><path id="Shape" d="m35.0000068 37-.0000068.39c.0010438.3957982-.1174624.7826862-.34 1.11l-.33.5h-4.33c-.5522847 0-1-.4477153-1-1s.4477153-1 1-1z" fill="#fac176"/><path id="Shape" d="m28 35c0 .5522847-.4477153 1-1 1h-4.8l.36-.45c.2854535-.3540024.4407714-.7952465.44-1.25v-.3h4c.2652165 0 .5195704.1053568.7071068.2928932s.2928932.4418903.2928932.7071068z" fill="#fac176"/><g fill="#f18d46"><path id="Shape" d="m28 7c-.2651948-.00005664-.5195073-.10545063-.707-.293l-1-1c-.3789722-.39237889-.3735524-1.01608478.0121814-1.40181858.3857338-.38573379 1.0094397-.39115363 1.4018186-.01218142l1 1c.2859079.28599425.3714219.71603662.216678 1.08965456s-.5192821.61725909-.923678.61734544z"/><path id="Shape" d="m30 11c-.4043959-.0000863-.7689341-.2437275-.923678-.6173454-.1547439-.373618-.0692299-.80366035.216678-1.0896546l1-1c.3923789-.37897221 1.0160848-.37355237 1.4018186.01218142.3857338.3857338.3911536 1.00943969.0121814 1.40181858l-1 1c-.1874927.1875494-.4418052.2929434-.707.293z"/><path id="Shape" d="m28 15c-.2651948-.0000566-.5195073-.1054506-.707-.293l-1-1c-.3789722-.3923789-.3735524-1.0160848.0121814-1.4018186s1.0094397-.3911536 1.4018186-.0121814l1 1c.2859079.2859943.3714219.7160366.216678 1.0896546-.1547439.3736179-.5192821.6172591-.923678.6173454z"/><path id="Shape" d="m30 19c-.4043959-.0000863-.7689341-.2437275-.923678-.6173454-.1547439-.373618-.0692299-.8036603.216678-1.0896546l1-1c.3923789-.3789722 1.0160848-.3735524 1.4018186.0121814s.3911536 1.0094397.0121814 1.4018186l-1 1c-.1874927.1875494-.4418052.2929434-.707.293z"/><path id="Shape" d="m28 23c-.2651948-.0000566-.5195073-.1054506-.707-.293l-1-1c-.3789722-.3923789-.3735524-1.0160848.0121814-1.4018186s1.0094397-.3911536 1.4018186-.0121814l1 1c.2859079.2859943.3714219.7160366.216678 1.0896546-.1547439.3736179-.5192821.6172591-.923678.6173454z"/><path id="Shape" d="m30 27c-.4043959-.0000863-.7689341-.2437275-.923678-.6173454-.1547439-.373618-.0692299-.8036603.216678-1.0896546l1-1c.3923789-.3789722 1.0160848-.3735524 1.4018186.0121814s.3911536 1.0094397.0121814 1.4018186l-1 1c-.1874927.1875494-.4418052.2929434-.707.293z"/></g></g></g></svg>