<svg height="512" viewBox="0 0 58 58" width="512" xmlns="http://www.w3.org/2000/svg"><g id="Page-1" fill="none" fill-rule="evenodd"><g id="056---Car-Heading-to-Tip" fill-rule="nonzero"><rect id="Rectangle-path" fill="#f9eab0" height="10" rx="2" transform="matrix(-1 0 0 -1 43 46)" width="31" x="6" y="18"/><path id="Shape" d="m20 29c-.5522847 0-1-.4477153-1-1v-12c0-.5522847.4477153-1 1-1s1 .4477153 1 1v12c0 .5522847-.4477153 1-1 1z" fill="#fac176"/><path id="Shape" d="m27 23c-.4643791.0008998-.868272-.3180058-.9751118-.7699285-.1068397-.4519226.1114908-.9179291.5271118-1.1250715l1.448-.723v-2.382c0-.5522847.4477153-1 1-1s1 .4477153 1 1v2.382c.0030461.7585612-.4260682 1.452671-1.106 1.789l-1.447.724c-.1388389.0691972-.2918727.1051447-.447.105z" fill="#fac176"/><path id="Shape" d="m17 12c0 3.3137085-2.6862915 6-6 6s-6-2.6862915-6-6c0-3.314 2.686-7 6-7s6 3.686 6 7z" fill="#2c3e50"/><path id="Shape" d="m9 13c-.55228475 0-1-.4477153-1-1 0-1.906 1.57-4 3-4 .5522847-.02181525 1.0176848.40821525 1.0395.9605s-.4082153 1.01768475-.9605 1.0395c-.6363697.4754761-1.0310619 1.207065-1.079 2 0 .5522847-.44771525 1-1 1z" fill="#547580"/><path id="Shape" d="m9 0h4c.5522847 0 1 .44771525 1 1v1c0 1.65685425-1.3431458 3-3 3-1.65685425 0-3-1.34314575-3-3v-1c0-.55228475.44771525-1 1-1z" fill="#35495e"/><path id="Shape" d="m36 12c0 3.3137085-2.6862915 6-6 6s-6-2.6862915-6-6c0-3.314 2.686-7 6-7s6 3.686 6 7z" fill="#2c3e50"/><path id="Shape" d="m28 0h4c.5522847 0 1 .44771525 1 1v1c0 1.65685425-1.3431458 3-3 3s-3-1.34314575-3-3v-1c0-.55228475.4477153-1 1-1z" fill="#35495e"/><path id="Shape" d="m28 13c-.5522847 0-1-.4477153-1-1 0-1.906 1.57-4 3-4 .5522847-.02181525 1.0176848.40821525 1.0395.9605s-.4082153 1.01768475-.9605 1.0395c-.6363697.4754761-1.0310619 1.207065-1.079 2 0 .5522847-.4477153 1-1 1z" fill="#547580"/><path id="Shape" d="m56 39.88.0000033 8.12h-54.00012113l.00011783-10.48c-.00200452-.1758106.02157569-.3509779.07-.52l18.93-3 19 3 14.12.88c1.0574478.0635597 1.8819085.9406455 1.88 2z" fill="#e64c3c"/><path id="Shape" d="m40 37h-37.93c.05019136-.1759185.12421081-.3441445.22-.5l5.13-7.53c.36077964-.6005024 1.00945542-.9684647 1.71-.97h24.69c.5159521-.0031544 1.0121456.1981995 1.38.56.149959.1337398.2752036.2928343.37.47z" fill="#67b9cc"/><path id="Shape" d="m51 52h5c1.1032019-.0032948 1.9967052-.8967981 2-2-.0081672-1.1011688-.8988312-1.9918328-2-2h-54c-1.10320187.0032948-1.9967052.8967981-2 2-.00282307.5305905.2101411 1.0395388.59 1.41.3704612.3798589.87940947.5928231 1.41.59z" fill="#547580"/><path id="Shape" d="m56 39.88.0000033 2.12h-5.0000033c-1.1032019-.0032948-1.9967052-.8967981-2-2v-2.44l5.12.32c1.0574478.0635597 1.8819085.9406455 1.88 2z" fill="#f0c419"/><circle id="Oval" cx="45" cy="52" fill="#35495e" r="6"/><circle id="Oval" cx="11" cy="52" fill="#35495e" r="6"/><circle id="Oval" cx="11" cy="52" fill="#3f5c6c" r="2"/><circle id="Oval" cx="45" cy="52" fill="#3f5c6c" r="2"/><path id="Shape" d="m40 37h-29c2.08-4.5 15-9 24.2-8.44.149959.1337398.2752036.2928343.37.47z" fill="#2fa8cc"/><path id="Rectangle-path" d="m23 28h2v20h-2z" fill="#c03a2b"/><path id="Rectangle-path" d="m11 28h2v12h-2z" fill="#e64c3c"/></g></g></svg>