<svg height="512" viewBox="0 0 58 58" width="512" xmlns="http://www.w3.org/2000/svg"><g id="Page-1" fill="none" fill-rule="evenodd"><g id="057---Oil-Waste" fill-rule="nonzero"><circle id="Oval" cx="5" cy="54" fill="#547580" r="4"/><circle id="Oval" cx="53" cy="54" fill="#547580" r="4"/><g fill="#35495e"><path id="Shape" d="m5 55c-.55228475 0-1-.4477153-1-1v-8c0-.5522847.44771525-1 1-1s1 .4477153 1 1v8c0 .5522847-.44771525 1-1 1z"/><path id="Shape" d="m53 55c-.5522847 0-1-.4477153-1-1v-8c0-.5522847.4477153-1 1-1s1 .4477153 1 1v8c0 .5522847-.4477153 1-1 1z"/><path id="Shape" d="m47 46-1.447 2.894c-.3386882.677781-1.0313083 1.1059743-1.789 1.106h-29.528c-.7576917-.0000257-1.4503118-.428219-1.789-1.106l-1.447-2.894 18-1z"/></g><path id="Shape" d="m56 12-2 34h-50l-2-34 27-1z" fill="#f29c1f"/><path id="Shape" d="m48.143 42h-38.286c-.52356042.0015542-.95968798-.4009915-1-.923l-1.857-24c-.02149302-.2782854.07429678-.5528896.26421303-.7574294s.45667405-.3203994.73578697-.3195706h42c.2791129-.0008288.5458707.1150308.735787.3195706.1899162.2045398.285706.479144.264213.7574294l-1.853 24c-.0404207.5235513-.4789034.9266585-1.004.923z" fill="#f0c419"/><path id="Shape" d="m35 21v16c0 .5522847-.4477153 1-1 1h-10c-.5522847 0-1-.4477153-1-1v-10l3-3h2l.81-3.24c.1102928-.4461224.5104464-.7596448.97-.76h4.22c.2652165 0 .5195704.1053568.7071068.2928932s.2928932.4418903.2928932.7071068z" fill="#e64c3c"/><path id="Shape" d="m31 31c0 1.1045695-.8954305 2-2 2s-2-.8954305-2-2c.1013664-1.2791476.8582354-2.4144512 2-3 1.1417646.5855488 1.8986336 1.7208524 2 3z" fill="#35495e"/><path id="Shape" d="m23.09 26.92-2.3-2.3c-.3877236-.3900375-.3877236-1.0199625 0-1.41l1.42-1.42c.3900375-.3877236 1.0199625-.3877236 1.41 0l2.3 2.3z" fill="#3f5c6c"/><path id="Shape" d="m32 23c0 .5522847-.4477153 1-1 1h-3l.5-2h2.5c.5522847 0 1 .4477153 1 1z" fill="#c03a2b"/><path id="Shape" d="m57 8v-3c0-1.1045695-.8954305-2-2-2h-52c-1.1045695 0-2 .8954305-2 2v3l28 1z" fill="#e57e25"/><path id="Shape" d="m15 0h28c1.1045695 0 2 .8954305 2 2v6h-32v-6c0-1.1045695.8954305-2 2-2z" fill="#f29c1f"/><rect id="Rectangle-path" fill="#f0c419" height="4" rx="1" width="58" y="8"/></g></g></svg>