<svg height="512" viewBox="0 0 58 58" width="512" xmlns="http://www.w3.org/2000/svg"><g id="Page-1" fill="none" fill-rule="evenodd"><g id="058---Empty-Bin-Into-Lorry" fill-rule="nonzero"><path id="Shape" d="m50 39.99-5 2.01-5-2.01v-9c0-.5522847.4477153-1 1-1h5c1.1032019.0032948 1.9967052.8967981 2 2v6c.0032948 1.1032019.8967981 1.9967052 2 2z" fill="#2fa8cc"/><path id="Shape" d="m32.465 24c.6345114-1.0985557.7090897-2.4333017.2009084-3.5957048-.5081814-1.1624032-1.5386143-2.0140585-2.7759084-2.2942952-.333816-1.4551726-1.4532016-2.6015779-2.9-2.97 0-.05.01-.09.01-.14-.000709-.9091229-.311089-1.7908842-.88-2.5l-6.12 2.5-3.82 3.68c-.1212961.4294461-.1818839.8737567-.18 1.32-.0012615 1.5740841.7399758 3.0565588 2 4l7 1z" fill="#a56a43"/><path id="Shape" d="m54 40.99v7c0 .5522847-.4477153 1-1 1h-13v-9h13c.5522847 0 1 .4477153 1 1z" fill="#e64c3c"/><ellipse id="Oval" cx="47" cy="49.996" fill="#35495e" rx="4" ry="4.004"/><path id="Shape" d="m22 49.992h17c.5522847 0 1-.4477153 1-1v-3h-31c-.55228475 0-1 .4477153-1 1v2c0 .5522847.44771525 1 1 1z" fill="#95a5a5"/><path id="Shape" d="m36.0000305 45.992-.0000305-19.992c.0029301-.5297657-.2056052-1.0388108-.5793662-1.4142612-.3737609-.3754505-.8818603-.5862796-1.4116338-.5857388l-22.009.028c-1.6545106.003309-2.99400331 1.3454861-2.994 3l-.006 18.964z" fill="#e64c3c"/><g fill="#c03a2b"><path id="Shape" d="m28 41.992c-.5522847 0-1-.4477153-1-1v-12c0-.5522847.4477153-1 1-1s1 .4477153 1 1v12c0 .5522847-.4477153 1-1 1z"/><path id="Shape" d="m22 41.992c-.5522847 0-1-.4477153-1-1v-12c0-.5522847.4477153-1 1-1s1 .4477153 1 1v12c0 .5522847-.4477153 1-1 1z"/><path id="Shape" d="m16 41.992c-.5522847 0-1-.4477153-1-1v-12c0-.5522847.4477153-1 1-1s1 .4477153 1 1v12c0 .5522847-.4477153 1-1 1z"/></g><circle id="Oval" cx="47" cy="49.992" fill="#3f5c6c" r="1"/><rect id="Rectangle-path" fill="#547580" height="4" rx="1" width="58" y="54"/><path id="Shape" d="m54 40.99v3.01h-2c-1.1032019-.0032948-1.9967052-.8967981-2-2v-2.01h3c.5522847 0 1 .4477153 1 1z" fill="#f0c419"/><path id="Shape" d="m27.08 11.9-9.03-11.161c-.6363172-.78084597-1.7528533-.96907428-2.61-.44l-5.5 3.421c-.85348573.53224007-1.17890393 1.61554012-.76 2.53l1.28 2.78 2.52 5.46 2.21 4.8z" fill="#7f8c8d"/><path id="Shape" d="m13.493 21.349c-.4470377.0005447-.8401329-.2956799-.9628209-.7255527-.122688-.4298729.0548383-.8889559.4348209-1.1244473l15.289-9.499c.3036758-.1884576.6848246-.20059052.9998716-.0318284.3150469.1687621.5161288.4927803.5275.85s-.1686958.6933708-.4723716.8818284l-15.289 9.5c-.158379.0977389-.3408907.1493409-.527.149z" fill="#95a5a5"/><path id="Shape" d="m13.605 7.345c.7136589-.37466911 1.5480645-.44639963 2.3151978-.1990283.7671333.24737132 1.4024535.79303255 1.7628022 1.5140283.7296169 1.4590101.1596949 3.2336309-1.283 3.995l-6.86 3.687c-.32886692.1727338-.53488458.5135294-.535.885v23.773h-4.005c-1.1045695 0-2-.8954305-2-2v-24.188c-.00063085-1.1133276.61533573-2.1354472 1.6-2.655z" fill="#95a5a5"/><path id="Shape" d="m44 36.992c-.5522847 0-1-.4477153-1-1v-2c0-.5522847.4477153-1 1-1s1 .4477153 1 1v2c0 .5522847-.4477153 1-1 1z" fill="#ecf0f1"/><ellipse id="Oval" cx="18" cy="49.996" fill="#35495e" rx="4" ry="4.004"/><circle id="Oval" cx="18" cy="49.992" fill="#3f5c6c" r="1"/></g></g></svg>