<svg height="512" viewBox="0 0 60 52" width="512" xmlns="http://www.w3.org/2000/svg"><g id="Page-1" fill="none" fill-rule="evenodd"><g id="059---Recycled-Clothes" fill-rule="nonzero"><g fill="#f0c419"><path id="Shape" d="m59.538 44.407-8.1-12.938c-.2932632-.469442-.911558-.6122632-1.381-.319s-.6122632.911558-.319 1.381l8.1 12.939c.2003658.3109837.2126748.7071782.032 1.03-.1671998.3125132-.4935754.5068761-.848.505h-21.608l1.293-1.293c.3789722-.3923789.3735524-1.0160848-.0121814-1.4018186s-1.0094397-.3911536-1.4018186-.0121814l-3 3c-.3903819.3904999-.3903819 1.0235001 0 1.414l3 3c.3923789.3789722 1.0160848.3735524 1.4018186-.0121814s.3911536-1.0094397.0121814-1.4018186l-1.293-1.298h21.608c1.0838515.0075494 2.0835774-.5830579 2.6-1.536.5296459-.9585414.4974844-2.1289902-.084-3.057z"/><path id="Shape" d="m27 47h-24.022c-.35334992.0028627-.67946259-.1894207-.848-.5-.18017796-.3206345-.16980835-.7142958.027-1.025l13.868-22.149.433 1.841c.0789027.3507025.3399661.6320717.6837879.7369737s.7174929.0171939.9787344-.2297286.3698523-.6150617.2844777-.9642451l-.979-4.169c-.1262477-.5366639-.6630237-.8699124-1.2-.745l-4.169.979c-.5379253.1261971-.8716971.6645747-.7455 1.2025s.6645747.8716971 1.2025.7455l1.8-.422-13.852 22.106c-.58085592.9283767-.6122515 2.0988193-.082 3.057.51608414.9523059 1.51486428 1.5428087 2.598 1.536h24.022c.5522847 0 1-.4477153 1-1s-.4477153-1-1-1z"/><path id="Shape" d="m43.8 25.67c-.5352965-.1204335-1.0676616.2129432-1.1930396.7471032-.1253781.53416.2030618 1.0695849.7360396 1.1998968l4.3 1.01c.074718.0175747.1512435.0263013.228.026.1862729.0005226.3689219-.0514648.527-.15.2254324-.1395574.3862158-.3629276.447-.621l1.009-4.3c.126197-.5379253-.2075747-1.0763029-.7455-1.2024999-.5379253-.1261971-1.0763029.2075746-1.2025.7454999l-.469 1.975-14.891-23.7c-.5492271-.87579472-1.5122504-1.40534409-2.546-1.4-1.0333945-.00499736-1.9959608.52450861-2.545 1.4l-8.818 14.069c-.189708.3036758-.2029964.6854917-.0348595 1.0016216.1681369.3161298.4921551.5185459.85.531s.6951515-.1669458.8848595-.4706216l8.813-14.064c.1857686-.28945074.5060644-.46447273.85-.46447273s.6642314.17502199.85.46447273l14.869 23.655z"/></g><path id="Shape" d="m38.89 30.22-1.89.38-2 .4v8s-1 1-5 1-5-1-5-1v-8l-2-.4-1.89-.38c-.280336-.0550967-.5233585-.2282689-.6669567-.4752578-.1435981-.2469888-.1738571-.5438608-.0830433-.8147422l1.38-4.14c.1674758-.5033202.5268489-.920193 1-1.16l3.26-1.63h8l3.26 1.63c.4731511.239807.8325242.6566798 1 1.16l1.38 4.14c.0908138.2708814.0605548.5677534-.0830433.8147422-.1435982.2469889-.3866207.4201611-.6669567.4752578z" fill="#2fa8cc"/><path id="Shape" d="m25 28v3l-2-.4v-2.6c0-.5522847.4477153-1 1-1s1 .4477153 1 1z" fill="#2980ba"/><path id="Shape" d="m37 28v2.6l-2 .4v-3c0-.5522847.4477153-1 1-1s1 .4477153 1 1z" fill="#2980ba"/><path id="Shape" d="m26 22s0 4 4 4 4-4 4-4z" fill="#2980ba"/></g></g></svg>