<svg height="512" viewBox="0 0 58 59" width="512" xmlns="http://www.w3.org/2000/svg"><g id="Page-1" fill="none" fill-rule="evenodd"><g id="060---Recycle-Paint" fill-rule="nonzero"><path id="Shape" d="m25 12c0-.408-.152-10-10-10s-10 9.594-10 10h-2c0-.12.138-12 12-12s12 11.88 12 12z" fill="#3d324c"/><path id="Shape" d="m53 12c0-.408-.152-10-10-10s-10 9.594-10 10h-2c0-.12.138-12 12-12s12 11.88 12 12z" fill="#3d324c"/><path id="Shape" d="m27 12c0 .59-1.55 1.12-4 1.48-2.6502352.3699802-5.32417.5437859-8 .52-2.67583.0237859-5.34976476-.1500198-8-.52-2.45-.36-4-.89-4-1.48 0-1.1 5.37-2 12-2s12 .9 12 2z" fill="#bdc3c7"/><path id="Shape" d="m27 12v19h-24v-19c0 .59 1.55 1.12 4 1.48 2.12.33 4.92 1.52 8 1.52s5.88-1.19 8-1.52c2.45-.36 4-.89 4-1.48z" fill="#955ba5"/><path id="Shape" d="m23 13.48v4.52c-.0081672 1.1011688-.8988312 1.9918328-2 2-1.1032019.0032948-1.9967052.8967981-2 2v1c-.0081672 1.1011688-.8988312 1.9918328-2 2-1.1032019-.0032948-1.9967052-.8967981-2-2v-2c-.0081672-1.1011688-.8988312-1.9918328-2-2-1.1032019.0032948-1.9967052.8967981-2 2v1c-.0081672 1.1011688-.8988312 1.9918328-2 2-1.10320187-.0032948-1.9967052-.8967981-2-2v-8.52c2.65023524.3699802 5.32417.5437859 8 .52 2.67583.0237859 5.3497648-.1500198 8-.52z" fill="#ecf0f1"/><path id="Shape" d="m55 12c0 1.1-5.37 2-12 2-1.4 0-2.75-.04-4-.12-4.66-.27-8-1.01-8-1.88 0-1.1 5.37-2 12-2s12 .9 12 2z" fill="#bdc3c7"/><path id="Shape" d="m55 12v19h-24v-19c0 .87 3.34 1.61 8 1.88 1.25.08 2.6 1.12 4 1.12 6.63 0 12-1.9 12-3z" fill="#955ba5"/><path id="Shape" d="m55 12v10c-.0032948 1.1032019-.8967981 1.9967052-2 2-1.1011688-.0081672-1.9918328-.8988312-2-2v-1c-.0032948-1.1032019-.8967981-1.9967052-2-2-1.1011688.0081672-1.9918328.8988312-2 2v2c-.0032948 1.1032019-.8967981 1.9967052-2 2-1.1011688-.0081672-1.9918328-.8988312-2-2v-1c-.0032948-1.1032019-.8967981-1.9967052-2-2-1.1011688-.0081672-1.9918328-.8988312-2-2v-4.12c1.25.08 2.6.12 4 .12 6.63 0 12-.9 12-2z" fill="#ecf0f1"/><path id="Shape" d="m56 36-1.841 21.173c-.0897615 1.0338162-.9552944 1.8272575-1.993 1.827h-46.332c-1.03770563.0002575-1.90323849-.7931838-1.993-1.827l-1.841-21.173 27-1z" fill="#14a085"/><rect id="Rectangle-path" fill="#26b99a" height="6" rx="1" width="58" y="30"/><path id="Shape" d="m36.7 50.161-6.141-9.327c-.3465027-.5207314-.9305199-.8336136-1.556-.8336136s-1.2094973.3128822-1.556.8336136l-6.147 9.326c-.3693876.5591051-.4016579 1.2759668-.084 1.866.3255935.6028609.956842.9773043 1.642.974h2.142c.5522847 0 1-.4477153 1-1s-.4477153-1-1-1h-1.855l5.855-8.893 5.855 8.893h-3.441l.293-.293c.3789722-.3923789.3735524-1.0160848-.0121814-1.4018186s-1.0094397-.3911536-1.4018186-.0121814l-2 2c-.3903819.3904999-.3903819 1.0235001 0 1.414l2 2c.3923789.3789722 1.0160848.3735524 1.4018186-.0121814s.3911536-1.0094397.0121814-1.4018186l-.293-.293h3.728c.6840834.0021957 1.3139148-.372091 1.639-.974.3185975-.589127.2874749-1.3057136-.081-1.865z" fill="#ecf0f1"/></g></g></svg>