<svg height="512" viewBox="0 0 46 58" width="512" xmlns="http://www.w3.org/2000/svg"><g id="Page-1" fill="none" fill-rule="evenodd"><g id="062---Metal-Waste" fill-rule="nonzero"><path id="Shape" d="m32 4-9 1-9-1v-2c0-1.1045695.8954305-2 2-2h14c1.1045695 0 2 .8954305 2 2z" fill="#e57e25"/><path id="Shape" d="m43 8-20 1-20-1v-2c0-1.1045695.8954305-2 2-2h36c1.1045695 0 2 .8954305 2 2z" fill="#f29c1f"/><path id="Shape" d="m44 12-2 42-19 1-19-1-2-42 20-1z" fill="#f0c419"/><path id="Shape" d="m4 54h38v3c0 .5522847-.4477153 1-1 1h-36c-.55228475 0-1-.4477153-1-1z" fill="#f29c1f"/><rect id="Rectangle-path" fill="#f3d55b" height="4" rx="1" width="46" y="8"/><path id="Shape" d="m10 29c-.47489292-.000378-.88402154-.3347017-.979-.8l-2-10c-.08744-.5317506.26220517-1.0371542.79063208-1.1428396.52842692-.1056854 1.04556232.2263622 1.16936792.7508396l2 10c.1055726.5388294-.2430574 1.0619977-.781 1.172-.0657696.0137352-.132813.0204396-.2.02z" fill="#7f8c8d"/><path id="Shape" d="m34 39.73v4.27c0 1.1045695-.8954305 2-2 2s-2-.8954305-2-2v-4.27z" fill="#7f8c8d"/><path id="Shape" d="m36.848 22.47-1.875-3c-.1827389-.2923815-.5032096-.4700008-.848-.47h-4.25c-.3447904-.0000008-.6652611.1776185-.848.47l-1.875 3c-.2026698.3242708-.2026698.7357292 0 1.06l1.875 3c.1827389.2923815.5032096.4700008.848.47h4.25c.3447904.0000008.6652611-.1776185.848-.47l1.875-3c.2026698-.3242708.2026698-.7357292 0-1.06z" fill="#95a5a5"/><circle id="Oval" cx="32" cy="23" fill="#7f8c8d" r="1"/><path id="Shape" d="m36 34v4c0 1.1-1.791 2-4 2s-4-.9-4-2v-4z" fill="#95a5a5"/><ellipse id="Oval" cx="32" cy="34" fill="#bdc3c7" rx="4" ry="2"/><path id="Shape" d="m23 28v15c0 1.1-3.134 2-7 2s-7-.9-7-2v-15z" fill="#95a5a5"/><path id="Shape" d="m23 33c0 1.1-3.134 2-7 2s-7-.9-7-2v5c0 1.1 3.134 2 7 2s7-.9 7-2z" fill="#7f8c8d"/><ellipse id="Oval" cx="16" cy="28" fill="#3f5c6c" rx="7" ry="2"/></g></g></svg>