<svg height="512" viewBox="0 0 42 59" width="512" xmlns="http://www.w3.org/2000/svg"><g id="Page-1" fill="none" fill-rule="evenodd"><g id="064---Incinerator" fill-rule="nonzero"><path id="Shape" d="m37.92 22-2.77 35.16c-.0835941 1.0416439-.9550126 1.8433489-2 1.84h-24.3c-1.04498742.0033489-1.91640594-.7983561-2-1.84l-2.77-35.16 16.92-2z" fill="#3f5c6c"/><path id="Shape" d="m37.29 30h-32.58l-.31-4h33.2z" fill="#35495e"/><path id="Shape" d="m19 11c-.5522847 0-1-.4477153-1-1v-3c0-.21-.095-.321-.6-.7-.8288595-.47724016-1.3567828-1.34454278-1.4-2.3.0432172-.95545722.5711405-1.82275984 1.4-2.3.505-.379.6-.49.6-.7 0-.55228475.4477153-1 1-1s1 .44771525 1 1c-.0432172.95545722-.5711405 1.82275984-1.4 2.3-.505.379-.6.49-.6.7s.095.321.6.7c.8288595.47724016 1.3567828 1.34454278 1.4 2.3v3c0 .5522847-.4477153 1-1 1z" fill="#95a5a5"/><path id="Shape" d="m23 11c-.5522847 0-1-.4477153-1-1v-3c.0432172-.95545722.5711405-1.82275984 1.4-2.3.505-.379.6-.49.6-.7s-.095-.321-.6-.7c-.8288595-.47724016-1.3567828-1.34454278-1.4-2.3 0-.55228475.4477153-1 1-1s1 .44771525 1 1c0 .21.095.321.6.7.8288595.47724016 1.3567828 1.34454278 1.4 2.3-.0432172.95545722-.5711405 1.82275984-1.4 2.3-.505.379-.6.49-.6.7v3c0 .5522847-.4477153 1-1 1z" fill="#95a5a5"/><path id="Shape" d="m4.74 16.68-.558-2.775c-.10294401-.5113338.20441715-1.0159112.706-1.159l5.244-1.5c.4920105-.1390139 1.0096401.1154874 1.2.59l1.088 2.714-3.42 1.45z" fill="#3f5c6c"/><path id="Shape" d="m24 11.48v-2.48c0-.55228475-.4477153-1-1-1h-4c-.5522847 0-1 .44771525-1 1v2.48c-.000052.8984835-.5992592 1.6866557-1.465 1.927l-15.07 4.186c-.86574083.2403443-1.46494801 1.0285165-1.465 1.927v1.48c0 .5522847.44771525 1 1 1h40c.5522847 0 1-.4477153 1-1v-1.48c-.000052-.8984835-.5992592-1.6866557-1.465-1.927l-15.07-4.186c-.8657408-.2403443-1.464948-1.0285165-1.465-1.927z" fill="#547580"/><g fill="#2c3e50"><circle id="Oval" cx="27" cy="55" r="1"/><circle id="Oval" cx="27" cy="51" r="1"/><circle id="Oval" cx="27" cy="47" r="1"/><circle id="Oval" cx="23" cy="55" r="1"/><circle id="Oval" cx="23" cy="51" r="1"/><circle id="Oval" cx="23" cy="47" r="1"/><circle id="Oval" cx="15" cy="55" r="1"/><circle id="Oval" cx="15" cy="51" r="1"/><circle id="Oval" cx="15" cy="47" r="1"/><circle id="Oval" cx="19" cy="55" r="1"/><circle id="Oval" cx="19" cy="51" r="1"/><circle id="Oval" cx="19" cy="47" r="1"/><circle id="Oval" cx="11" cy="55" r="1"/><circle id="Oval" cx="11" cy="51" r="1"/><circle id="Oval" cx="11" cy="47" r="1"/><circle id="Oval" cx="31" cy="55" r="1"/><circle id="Oval" cx="31" cy="51" r="1"/><circle id="Oval" cx="31" cy="47" r="1"/><path id="Shape" d="m21 44c-.5522847 0-1-.4477153-1-1v-9c0-.5522847.4477153-1 1-1s1 .4477153 1 1v9c0 .5522847-.4477153 1-1 1z"/><path id="Shape" d="m14 44c-.5093591-.0004745-.9369707-.3837316-.993-.89l-1-9c-.0607513-.548971.335029-1.0432487.884-1.104s1.0432487.335029 1.104.884l1 9c.0584247.5475087-.3367459 1.0392368-.884 1.1-.0367929.0053302-.0738469.0086684-.111.01z"/><path id="Shape" d="m28 44c-.0370809-.0000044-.0741347-.0020073-.111-.006-.5472541-.0607632-.9424247-.5524913-.884-1.1l1-9c.0392992-.355122.2650685-.6623024.5922628-.8058293s.706105-.1015952.994.11c.2878951.2115951.4410364.5607073.4017372.9158293l-1 9c-.0579113.5046826-.4850057.8857558-.993.886z"/></g></g></g></svg>