<svg height="512" viewBox="0 0 58 58" width="512" xmlns="http://www.w3.org/2000/svg"><g id="Page-1" fill="none" fill-rule="evenodd"><g id="065---Trash-Compactor" fill-rule="nonzero"><path id="Shape" d="m41 0c1.1045695 0 2 .8954305 2 2v4h-4v-4c0-1.1045695.8954305-2 2-2z" fill="#35495e"/><path id="Rectangle-path" d="m19 21h6v5h-6z" fill="#3f5c6c"/><path id="Rectangle-path" d="m19 46h6v5h-6z" fill="#3f5c6c"/><rect id="Rectangle-path" fill="#547580" height="36" rx="2" width="20" y="18"/><path id="Shape" d="m6 50c-.55228475 0-1-.4477153-1-1v-25c0-.5522847.44771525-1 1-1s1 .4477153 1 1v25c0 .5522847-.44771525 1-1 1z" fill="#3f5c6c"/><path id="Shape" d="m14 50c-.5522847 0-1-.4477153-1-1v-25c0-.5522847.4477153-1 1-1s1 .4477153 1 1v25c0 .5522847-.4477153 1-1 1z" fill="#3f5c6c"/><path id="Shape" d="m20 20v4h-20v-4c.0032948-1.1032019.89679813-1.9967052 2-2h16c1.1032019.0032948 1.9967052.8967981 2 2z" fill="#95a5a5"/><path id="Shape" d="m58 15-5.417-9.029c-.3614512-.60241189-1.012471-.97100676-1.715-.971h-19.736c-.702529-.00000676-1.3535488.36858811-1.715.971l-5.417 9.029 17 1z" fill="#95a5a5"/><path id="Shape" d="m34 11h-1c-.5522847 0-1-.4477153-1-1 0-.55228475.4477153-1 1-1h1c.5522847 0 1 .44771525 1 1 0 .5522847-.4477153 1-1 1z" fill="#7f8c8d"/><path id="Shape" d="m42 11h-2c-.5522847 0-1-.4477153-1-1 0-.55228475.4477153-1 1-1h2c.5522847 0 1 .44771525 1 1 0 .5522847-.4477153 1-1 1z" fill="#7f8c8d"/><path id="Shape" d="m49 11h-1c-.5522847 0-1-.4477153-1-1 0-.55228475.4477153-1 1-1h1c.5522847 0 1 .44771525 1 1 0 .5522847-.4477153 1-1 1z" fill="#7f8c8d"/><path id="Shape" d="m24 15h34v42c0 .5522847-.4477153 1-1 1h-32c-.5522847 0-1-.4477153-1-1z" fill="#547580"/><path id="Shape" d="m54 43v10c0 .5522847-.4477153 1-1 1h-24c-.5522847 0-1-.4477153-1-1v-13l4.63 1.54c.8168404.2740405 1.3679973 1.0384186 1.37 1.9v.31l2-.5 4.2-1.05c.5136917-.1313814 1.0587198-.0483638 1.51.23l1.96 1.17.03-.02 1.94-1.16 1.57-.95c.5013125-.2970958 1.1066575-.3627357 1.66-.18z" fill="#a56a43"/><path id="Shape" d="m54 20v23l-5.13-1.71c-.5533425-.1827357-1.1586875-.1170958-1.66.18l-3.54 2.13-1.96-1.17c-.4512802-.2783638-.9963083-.3613814-1.51-.23l-6.2 1.55v-.31c-.0020027-.8615814-.5531596-1.6259595-1.37-1.9l-4.63-1.54v-20c0-.5522847.4477153-1 1-1h24c.5522847 0 1 .4477153 1 1z" fill="#35495e"/><path id="Rectangle-path" d="m39 19h4v14h-4z" fill="#7f8c8d"/><path id="Shape" d="m54 37h-26v-4h5 21z" fill="#95a5a5"/><path id="Shape" d="m32 33v-2.5c0-.8284271.6715729-1.5 1.5-1.5s1.5-.6715729 1.5-1.5.6715729-1.5 1.5-1.5h2.5v7z" fill="#547580"/><g fill="#805333"><path id="Shape" d="m36 43.25v1.67c0 .5522847-.4477153 1-1 1s-1-.4477153-1-1v-1.17z"/><path id="Shape" d="m47.86 44.92c-.1825417.2998614-.5089527.4820443-.86.48-.1792875-.001483-.3550825-.0497405-.51-.14l-2.79-1.68 1.94-1.16 1.87 1.12c.4766297.285244.633073.9020778.35 1.38z"/><path id="Shape" d="m37 49c-.4896205-.0011079-.9064337-.3565688-.9848341-.8398729-.0784005-.4833041.2046714-.9522988.6688341-1.1081271l3-1c.3394023-.1128959.7132522-.0361471.9807241.201336.2674719.237483.3879304.599621.316.95s-.3253218.6357681-.6647241.748664l-3 1c-.1020785.032839-.2087744.0490459-.316.048z"/><path id="Shape" d="m45 51c-.1543931.001545-.307047-.0326823-.446-.1l-2-1c-.4942949-.2468713-.6948713-.8477051-.448-1.342s.8477051-.6948713 1.342-.448l2 1c.4098463.2099351.6233472.6726076.5171381 1.1206772s-.5046672.7656851-.9651381.7693228z"/><path id="Shape" d="m49 49c-.4043959-.0000863-.7689341-.2437275-.923678-.6173454-.1547439-.373618-.0692299-.8036603.216678-1.0896546l1-1c.3923789-.3789722 1.0160848-.3735524 1.4018186.0121814s.3911536 1.0094397.0121814 1.4018186l-1 1c-.1874927.1875494-.4418052.2929434-.707.293z"/><path id="Shape" d="m32 51c-.4043959-.0000863-.7689341-.2437275-.923678-.6173454-.1547439-.373618-.0692299-.8036603.216678-1.0896546l1-1c.3923789-.3789722 1.0160848-.3735524 1.4018186.0121814s.3911536 1.0094397.0121814 1.4018186l-1 1c-.1874927.1875494-.4418052.2929434-.707.293z"/></g></g></g></svg>