<svg height="512" viewBox="0 0 44 58" width="512" xmlns="http://www.w3.org/2000/svg"><g id="Page-1" fill="none" fill-rule="evenodd"><g id="066---Waste-Disposal-Unit" fill-rule="nonzero"><path id="Rectangle-path" d="m6 33h32v6h-32z" fill="#7f8c8d"/><path id="Rectangle-path" d="m14 3h16v8h-16z" fill="#7f8c8d"/><path id="Rectangle-path" d="m0 13h44v18h-44z" fill="#e64c3c"/><g fill="#95a5a5"><path id="Shape" d="m3 10h38c1.6568542 0 3 1.3431458 3 3v1h-44v-1c0-1.6568542 1.34314575-3 3-3z"/><path id="Shape" d="m0 30h44v1c0 1.6568542-1.3431458 3-3 3h-38c-1.65685425 0-3-1.3431458-3-3z"/><path id="Shape" d="m38 41v14.875c.0336508 1.1387584-.8612935 2.0896367-2 2.125h-28c-1.13870651-.0353633-2.03365084-.9862416-2-2.125v-14.875z"/></g><rect id="Rectangle-path" fill="#bdc3c7" height="4" rx="1" width="36" x="4" y="38"/><circle id="Oval" cx="22" cy="50" fill="#bdc3c7" r="4"/><path id="Shape" d="m23 50c-.4043959-.0000863-.7689341-.2437275-.923678-.6173454-.1547439-.373618-.0692299-.8036603.216678-1.0896546l3-3c.3923789-.3789722 1.0160848-.3735524 1.4018186.0121814s.3911536 1.0094397.0121814 1.4018186l-3 3c-.1874927.1875494-.4418052.2929434-.707.293z" fill="#7f8c8d"/><path id="Shape" d="m11 7c-.5522847 0-1-.44771525-1-1v-4c0-.55228475.4477153-1 1-1s1 .44771525 1 1v4c0 .55228475-.4477153 1-1 1z" fill="#95a5a5"/><path id="Shape" d="m33 7c-.5522847 0-1-.44771525-1-1v-4c0-.55228475.4477153-1 1-1s1 .44771525 1 1v4c0 .55228475-.4477153 1-1 1z" fill="#95a5a5"/><rect id="Rectangle-path" fill="#bdc3c7" height="4" rx="1" width="26" x="9"/></g></g></svg>