<svg height="512" viewBox="0 0 58 58" width="512" xmlns="http://www.w3.org/2000/svg"><g id="Page-1" fill="none" fill-rule="evenodd"><g id="067---No-Littering" fill-rule="nonzero" transform="translate(-1 -1)"><circle id="Oval" cx="30" cy="30" fill="#35495e" r="27"/><path id="Shape" d="m28.924 40.584-.994-1.922c-.0784998-.1505452-.2083482-.2679764-.366-.331l-2.985-1.2c-.2222231-.0891083-.4738643-.0648762-.675.065l-1.472.954-1.329-1c-.2724991-.2030422-.6485821-.1931235-.91.024l-1.453 1.216c-.1782581.1494844-.2686087.3791254-.24.61l.254 1.949-1.512 1.316c-.2258993.1931113-.3007396.5102724-.185.784l1.082 2.54c.0797557.1853283.2346924.3278991.426.392l2.745.936c.2133988.0729897.4484707.0442505.638-.078l1.493-.968 2.173 1.052c.2540345.1228663.5559834.0894459.777-.086l1.922-1.537c.2836561-.2229591.3449727-.6280863.14-.925l-.836-1.214 1.267-1.889c.1371636-.2050931.1524718-.4683932.04-.688z" fill="#f0c419"/><path id="Shape" d="m18.95 21.78-3.31 3.05c-.4054939.3650508-.6379283.8843966-.64 1.43-.0001936.6115179.2844666 1.188232.77 1.56 1.2899062 1.0008776 3.0579184 1.1195361 4.47.3l3.21-1.84-1.45-2.28z" fill="#fdd7ad"/><path id="Shape" d="m54.49 25.02-6.29.2-10.28 7.33c-.651974.4620903-1.4894094.5742468-2.24.3l-.68.15-.76-1.59c-.3418725-.8733777-.1598136-1.8650178.47-2.56l2.26-2.33c.3349333-.3778108.4588751-.8980208.3302833-1.386268-.1285919-.4882473-.4926998-.8799174-.9702833-1.043732l-3.86-1.79c-.7134337-.3234874-1.5385396-.2863205-2.22.1l-3.19 1.83-3.06-2.23-2.11-2.94 5.2-4.8c1.1804216-1.0756883 2.8161011-1.4986443 4.37-1.13l15.54 3.87h4.35l3.65 4z" fill="#fdd7ad"/><path id="Shape" d="m24 43h-2c-.5522847 0-1-.4477153-1-1s.4477153-1 1-1h2c.5522847 0 1 .4477153 1 1s-.4477153 1-1 1z" fill="#f29c1f"/><path id="Shape" d="m50.51 9.49c-8.2955824-8.29585686-20.7716554-10.77766299-31.6105726-6.28814153-10.83891713 4.48952146-17.90610598 15.06622233-17.90610598 26.79814153s7.06718885 22.3086201 17.90610598 26.7981415c10.8389172 4.4895215 23.3149902 2.0077154 31.6105726-6.2881415 11.3199214-11.3304405 11.3199214-29.6895595 0-41.02zm-5.17 40.24c-9.9481482 7.7436965-24.106362 6.865018-33.02069-2.04931-8.91432799-8.914328-9.79300645-23.0725418-2.04931-33.02069.179545-.2210837.4448407-.3551212.7293328-.3684866.2844922-.0133654.5611858.0952095.7606672.2984866l33.65 33.65c.2032771.1994814.311852.476175.2984866.7606672-.0133654.2844921-.1474029.5497878-.3684866.7293328zm4.39-4.39c-.179545.2210837-.4448407.3551212-.7293328.3684866-.2844922.0133654-.5611858-.0952095-.7606672-.2984866l-33.65-33.65c-.2032771-.1994814-.311852-.476175-.2984866-.7606672.0133654-.2844921.1474029-.5497878.3684866-.7293328 9.9481482-7.74369645 24.106362-6.86501799 33.02069 2.04931 8.914328 8.914328 9.7930065 23.0725418 2.04931 33.02069z" fill="#e64c3c"/></g></g></svg>