<svg height="512" viewBox="0 0 58 58" width="512" xmlns="http://www.w3.org/2000/svg"><g id="Page-1" fill="none" fill-rule="evenodd"><g id="068---Clothes-Bank" fill-rule="nonzero"><path id="Shape" d="m9 7h-7c-.55228475 0-1-.44771525-1-1s.44771525-1 1-1h7c.55228475 0 1 .44771525 1 1s-.44771525 1-1 1z" fill="#e57e25"/><path id="Shape" d="m56 7h-8c-.5522847 0-1-.44771525-1-1s.4477153-1 1-1h8c.5522847 0 1 .44771525 1 1s-.4477153 1-1 1z" fill="#e57e25"/><path id="Shape" d="m15 55c0 1.6568542-1.3431458 3-3 3s-3-1.3431458-3-3l3-1z" fill="#95a5a5"/><path id="Shape" d="m49 55c-.0000001 1.6568542-1.3431458 2.9999999-3 2.9999999s-2.9999999-1.3431457-3-2.9999999l3-1z" fill="#95a5a5"/><path id="Shape" d="m56 17-2.855 36.157c-.0819039 1.0401437-.9496367 1.8425679-1.993 1.843h-44.304c-1.04336329-.0004321-1.91109606-.8028563-1.993-1.843l-2.855-36.157 27-1z" fill="#f29c1f"/><path id="Shape" d="m48.784 0h-39.568c-1.31732979-.00025632-2.48070506.85888901-2.868 2.118l-3.348 10.882 26 1 26-1-3.348-10.882c-.3872949-1.25911099-1.5506702-2.11825632-2.868-2.118z" fill="#f29c1f"/><rect id="Rectangle-path" fill="#f0c419" height="4" rx="2" width="58" y="13"/><rect id="Rectangle-path" fill="#35495e" height="6" rx="3" width="36" x="11" y="21"/><path id="Shape" d="m27.89 40.22-1.89.38-2 .4v8s-1 1-5 1-5-1-5-1v-8l-2-.4-1.89-.38c-.28033595-.0550967-.52335853-.2282689-.66695667-.4752578-.14359814-.2469888-.17385708-.5438608-.08304333-.8147422l1.38-4.14c.1674758-.5033202.5268489-.920193 1-1.16l3.26-1.63h8l3.26 1.63c.4731511.239807.8325242.6566798 1 1.16l1.38 4.14c.0908138.2708814.0605548.5677534-.0830433.8147422-.1435982.2469889-.3866207.4201611-.6669567.4752578z" fill="#ecf0f1"/><g fill="#d1d4d1"><path id="Shape" d="m14 38v3l-2-.4v-2.6c0-.5522847.4477153-1 1-1s1 .4477153 1 1z"/><path id="Shape" d="m26 38v2.6l-2 .4v-3c0-.5522847.4477153-1 1-1s1 .4477153 1 1z"/><path id="Shape" d="m15 32s0 4 4 4 4-4 4-4z"/></g><path id="Shape" d="m46 49s0 2-5 2-5-2-5-2l2-6 3-1 3 1z" fill="#35495e"/><path id="Shape" d="m49 35v3c0 .5522847-.4477153 1-1 1h-3.2l-.8 4h-6l-.8-4h-3.2c-.5522847 0-1-.4477153-1-1v-3c0-1.6568542 1.3431458-3 3-3h10c1.6568542 0 3 1.3431458 3 3z" fill="#ecf0f1"/><path id="Shape" d="m37.2 39h-2.02l-.16-.8c-.1104569-.5412391.2387609-1.0695431.78-1.18s1.0695431.2387609 1.18.78l.2 1c.0111308.0661445.0178125.1329612.02.2z" fill="#d1d4d1"/><path id="Shape" d="m46.98 38.2-.16.8h-2.02c.0021875-.0670388.0088692-.1338555.02-.2l.2-1c.0714531-.3501203.3242654-.635525.6632051-.7487049.3389396-.11318.7125135-.0369404.98.2.2674865.2369403.388248.5985846.3167949.9487049z" fill="#d1d4d1"/><path id="Shape" d="m38 32s0 4 3 4 3-4 3-4z" fill="#d1d4d1"/></g></g></svg>