<svg height="512" viewBox="0 0 60 47" width="512" xmlns="http://www.w3.org/2000/svg"><g id="Page-1" fill="none" fill-rule="evenodd"><g id="069---Skip-Lorry" fill-rule="nonzero"><path id="Shape" d="m4 28-2.958-14.19c-.10895113-.5199887-.00056592-1.0619147.3-1.5l4.939-7.42c.37222689-.55791182.99931826-.89211021 1.67-.89h28.049c1.1032019.0032948 1.9967052.89679813 2 2v7l-6 15-14 2z" fill="#f0c419"/><path id="Shape" d="m38 6v7h-36.95c.05034118-.2468358.14888979-.4813135.29-.69l4.94-7.42c.37222689-.55791182.99931826-.89211021 1.67-.89h28.05c1.1032019.0032948 1.9967052.89679813 2 2z" fill="#f29c1f"/><path id="Rectangle-path" d="m10 4h2v9h-2z" fill="#e57e25"/><path id="Rectangle-path" d="m28 4h2v9h-2z" fill="#e57e25"/><path id="Shape" d="m6.28 28 14.97-26.965c.5362685-.96649831 1.7545017-1.31526849 2.721-.779s1.3152685 1.75450169.779 2.721l-13.89 25.023z" fill="#95a5a5"/><path id="Shape" d="m38 28h-34c-1.1045695 0-2 .8954305-2 2v5l37 1z" fill="#7f8c8d"/><path id="Shape" d="m38 35v-22c0-1.1045695.8954305-2 2-2h14.265c.9952873-.0000615 1.8391668.731727 1.98 1.717l1.755 12.283v10l-10 1z" fill="#e64c3c"/><path id="Shape" d="m5 39h-3c-.55228475 0-1-.4477153-1-1v-2c0-.5522847.44771525-1 1-1h56c.5522847 0 1 .4477153 1 1v2c0 .5522847-.4477153 1-1 1z" fill="#547580"/><path id="Shape" d="m42 16v5.307c.0001565.4167554.2587604.7897189.649.936l6.842 2.566c.3367154.1262638.6933893.1909596 1.053.191h2.456c.3003227.0000613.5847717-.1348558.7747362-.3674654s.2653283-.5382796.2052638-.8325346l-1.6-8c-.0950537-.4656663-.5047314-.800097-.98-.8h-8.4c-.5522847 0-1 .4477153-1 1z" fill="#2fa8cc"/><path id="Shape" d="m44 29h-2c-.5522847 0-1-.4477153-1-1s.4477153-1 1-1h2c.5522847 0 1 .4477153 1 1s-.4477153 1-1 1z" fill="#c03a2b"/><path id="Shape" d="m49 21c-.1074429-.0002448-.2141442-.0178032-.316-.052l-3-1c-.3394023-.1128959-.5927937-.398285-.6647241-.748664s.0485281-.712517.316-.95c.2674719-.2374831.6413218-.3142319.9807241-.201336l3 1c.4707044.1512604.7602173.6237981.681208 1.1118554s-.5028219.8451181-.997208.8401446z" fill="#ecf0f1"/><path id="Shape" d="m59 47h-58c-.55228475 0-1-.4477153-1-1s.44771525-1 1-1h58c.5522847 0 1 .4477153 1 1s-.4477153 1-1 1z" fill="#a56a43"/><circle id="Oval" cx="12" cy="39" fill="#35495e" r="7"/><circle id="Oval" cx="12" cy="39" fill="#547580" r="3"/><circle id="Oval" cx="48" cy="39" fill="#35495e" r="7"/><circle id="Oval" cx="48" cy="39" fill="#547580" r="3"/></g></g></svg>