<svg height="512" viewBox="0 0 58 58" width="512" xmlns="http://www.w3.org/2000/svg"><g id="Page-1" fill="none" fill-rule="evenodd"><g id="070---No-Dumping" fill-rule="nonzero" transform="translate(-1 -1)"><circle id="Oval" cx="30" cy="30" fill="#2fa8cc" r="27"/><path id="Shape" d="m5.39 34.3c.65217474-1.4047661 2.06122841-2.3025011 3.61-2.3.36208055.0068909.72174182.060672 1.07.16-.20968534-1.0257505.0555254-2.0913172.7215638-2.8991072.6660385-.8077901 1.661524-1.2712311 2.7084362-1.2608928.1910143.0017542.3815975.018472.57.05l3.93 3.95.3 4.58c-.6530589.8932631-1.6934721 1.4209012-2.8 1.42-.1879611-.0051378-.3752169-.0252009-.56-.06.0347991.1847831.0548622.3720389.06.56.0000249 1.3897794-.8249979 2.6469571-2.1 3.2.0633835.2620445.09693.5304163.1.8-.0010977 1.4965548-.9535886 2.8268269-2.37 3.31l-5.63-2.81z" fill="#a56a43"/><path id="Shape" d="m54.45 33h-10.45v-7c0-.5522847.4477153-1 1-1h4.41c.3627199.0030131.69706.1967784.88.51z" fill="#2980ba"/><path id="Shape" d="m45.34 49.73c-9.8083844 7.6286009-23.731858 6.891526-32.68-1.73h32.51l.24.24c.2032771.1994814.311852.476175.2984866.7606672-.0133654.2844921-.1474029.5497878-.3684866.7293328z" fill="#a56a43"/><path id="Shape" d="m53 44h-33c-.5522847 0-1-.4477153-1-1v-2c0-.5522847.4477153-1 1-1h32.91z" fill="#547580"/><path id="Shape" d="m18.05 20.88-4.26 2.11c-.9881617.4919062-1.3909672 1.6913714-.9 2.68l7.11 14.33 11.48-5.69 3.78-1.88.86-.43c.4763134-.2344513.8398689-.6486592 1.0105614-1.1513579.1706924-.5026987.1345149-1.0526368-.1005614-1.5286421l-6.22-12.54c-.2362051-.4771677-.6529244-.8404565-1.1578439-1.0093887-.5049196-.1689322-1.0563575-.1295621-1.5321561.1093887l-6.29 3.12z" fill="#e64c3c"/><path id="Shape" d="m48 34c-.5522847 0-1-.4477153-1-1v-4c0-.5522847.4477153-1 1-1s1 .4477153 1 1v4c0 .5522847-.4477153 1-1 1z" fill="#bdc3c7"/><path id="Shape" d="m55 40h-11v-7h10.45l.29.53z" fill="#e64c3c"/><path id="Shape" d="m50.51 9.49c-8.2955824-8.29585686-20.7716554-10.77766299-31.6105726-6.28814153-10.83891713 4.48952146-17.90610598 15.06622233-17.90610598 26.79814153s7.06718885 22.3086201 17.90610598 26.7981415c10.8389172 4.4895215 23.3149902 2.0077154 31.6105726-6.2881415 11.3199214-11.3304405 11.3199214-29.6895595 0-41.02zm-5.17 40.24c-9.8083844 7.6286009-23.731858 6.891526-32.68-1.73-.12-.1-.23-.21-.34-.32-8.90330119-8.9189377-9.78174427-23.068299-2.05-33.02.179545-.2210837.4448407-.3551212.7293328-.3684866.2844922-.0133654.5611858.0952095.7606672.2984866l33.41 33.41.24.24c.2032771.1994814.311852.476175.2984866.7606672-.0133654.2844921-.1474029.5497878-.3684866.7293328zm4.39-4.39c-.179545.2210837-.4448407.3551212-.7293328.3684866-.2844922.0133654-.5611858-.0952095-.7606672-.2984866l-33.65-33.65c-.2032771-.1994814-.311852-.476175-.2984866-.7606672.0133654-.2844921.1474029-.5497878.3684866-.7293328 9.9481482-7.74369645 24.106362-6.86501799 33.02069 2.04931 8.914328 8.914328 9.7930065 23.0725418 2.04931 33.02069z" fill="#c03a2b"/><circle id="Oval" cx="28" cy="44" fill="#35495e" r="4"/><circle id="Oval" cx="28" cy="44" fill="#547580" r="2"/></g></g></svg>