<svg height="512" viewBox="0 0 34 58" width="512" xmlns="http://www.w3.org/2000/svg"><g id="Page-1" fill="none" fill-rule="evenodd"><g id="017---Fish-Skeleton" fill-rule="nonzero" transform="translate(-1)"><path id="Shape" d="m5.049 58c-1.13140282-.0005518-2.04844823-.9175972-2.049-2.049-.00038197-.6031488.26525443-1.1757672.726-1.565l11.566-9.786c.4493856-.3803075.70839-.9392886.708-1.528v-1.072c0-.5522847-.4477153-1-1-1h-5c-.58943059.0004203-1.1490322-.2591868-1.52936412-.7094936-.38033191-.4503068-.54266039-1.0454533-.44363588-1.6265064.19883125-.9852159 1.0751679-1.6862852 2.08-1.664h4.893c.5522847 0 1-.4477153 1-1v-2c0-.5522847-.4477153-1-1-1h-8c-.58943059.0004203-1.1490322-.2591868-1.52936412-.7094936-.38033191-.4503068-.54266039-1.0454533-.44363588-1.6265064.19883125-.9852159 1.0751679-1.6862852 2.08-1.664h7.893c.5522847 0 1-.4477153 1-1v-2c0-.5522847-.4477153-1-1-1h-5c-.58943059.0004203-1.1490322-.2591868-1.52936412-.7094936-.38033191-.4503068-.54266039-1.0454533-.44363588-1.6265064.19883125-.9852159 1.0751679-1.6862852 2.08-1.664h4.893c.5522847 0 1-.4477153 1-1v-5h4v5c0 .5522847.4477153 1 1 1h5c.5894306-.0004203 1.1490322.2591868 1.5293641.7094936s.5426604 1.0454533.4436359 1.6265064c-.1988312.9852159-1.0751679 1.6862852-2.08 1.664h-4.893c-.5522847 0-1 .4477153-1 1v2c0 .5522847.4477153 1 1 1h8c.5894306-.0004203 1.1490322.2591868 1.5293641.7094936s.5426604 1.0454533.4436359 1.6265064c-.1988312.9852159-1.0751679 1.6862852-2.08 1.664h-7.893c-.5522847 0-1 .4477153-1 1v2c0 .5522847.4477153 1 1 1h5c.5894306-.0004203 1.1490322.2591868 1.5293641.7094936s.5426604 1.0454533.4436359 1.6265064c-.1988312.9852159-1.0751679 1.6862852-2.08 1.664h-4.893c-.5522847 0-1 .4477153-1 1v1.072c-.0000957.5883619.2588814 1.1469182.708 1.527l11.566 9.787c.4607456.3892328.726382.9618512.726 1.565-.0005518 1.1314028-.9175972 2.0484482-2.049 2.049h-3.921c-2.6370362-.0001911-5.2244928-.7167016-7.486-2.073-.9498053-.5696386-2.1361947-.5696386-3.086 0-2.2620895 1.3566476-4.8502848 2.0731712-7.488 2.073z" fill="#d1d4d1"/><path id="Shape" d="m35 14.49c.0127892-.7679119-.306088-1.5040626-.875-2.02l-13.203-11.35c-.8075685-.71266016-1.8449868-1.11030167-2.922-1.12-1.0770132.00969833-2.1144315.40733984-2.922 1.12l-13.2 11.35c-.57002235.5153927-.89002534 1.2516183-.878 2.02-.09093724 1.2844068.86781684 2.4031761 2.151 2.51h29.7c1.2823824-.1078527 2.239978-1.22631 2.149-2.51z" fill="#ecf0f1"/><circle id="Oval" cx="20" cy="8" fill="#95a5a5" r="2"/></g></g></svg>