<svg height="512" viewBox="0 0 36 58" width="512" xmlns="http://www.w3.org/2000/svg"><g id="Page-1" fill="none" fill-rule="evenodd"><g id="050---Crushed-Carton" fill-rule="nonzero"><path id="Shape" d="m29 11v-9c0-1.1045695-.8954305-2-2-2h-18c-1.1045695 0-2 .8954305-2 2v9z" fill="#3f5c6c"/><path id="Shape" d="m36 16v10.59c-.0028841.2710832-.0571776.5391575-.16.79l-.31.73-2.1 4.89-.43 1 .37 1 2.17 5.79.33.87c.0882226.2227225.1323724.4604527.13.7v8.64l-18 2-18-2v-7.58c.00139629-.2787086.05922541-.5542473.17-.81l.38-.85 3.01-6.76.44-1-.4-1-3.09-7.7v-.01l-.37-.93c-.09157432-.2394945-.13900678-.493597-.14-.75v-7.61l18-2z" fill="#e64c3c"/><path id="Shape" d="m36 51v5c-.0032948 1.1032019-.8967981 1.9967052-2 2h-32c-1.10320187-.0032948-1.9967052-.8967981-2-2v-5z" fill="#547580"/><path id="Shape" d="m36 16-7-7h-7-8-7l-7 7z" fill="#547580"/><g fill="#c03a2b"><path id="Shape" d="m12.92 29.38c-.1516384.3748601-.515631.6201595-.92.62-.1311833.0034547-.2613445-.0239476-.38-.08l-11.11-4.62v-.01l-.37-.93c-.09157432-.2394945-.13900678-.493597-.14-.75v-.69l12.38 5.16c.2453158.0991768.4405976.2926112.5421018.5369731s.1007471.5192279-.0021018.7630269z"/><path id="Shape" d="m13 34c0 .5522847-.4477153 1-1 1h-8.44l.44-1-.4-1h8.4c.5522847 0 1 .4477153 1 1z"/><path id="Shape" d="m12.32 39.95-12.32 4.1v-.63c.00139629-.2787086.05922541-.5542473.17-.81l.38-.85 11.13-3.71c.5246705-.1767311 1.0932689.1053295 1.27.63s-.1053295 1.0932689-.63 1.27z"/><path id="Shape" d="m36 42.36.0000908.7-12.3200908-4.11c-.3394023-.114325-.5920313-.4010346-.6627241-.7521281s.0512905-.7132315.32-.95c.2687095-.2367686.6433218-.3121969.9827241-.1978719l11.22 3.74.33.87c.0882226.2227225.1323724.4604527.13.7z"/><path id="Shape" d="m33 34 .37 1h-17.37c-.5522847 0-1-.4477153-1-1s.4477153-1 1-1h17.43z"/><path id="Shape" d="m36 25.98v.61c-.0028841.2710832-.0571776.5391575-.16.79l-.31.73-9.33 1.87c-.0661445.0111308-.1329612.0178125-.2.02-.5137531.0005163-.9443106-.3883485-.9959422-.8995008-.0516315-.5111523.2924636-.9782648.7959422-1.0804992z"/></g><path id="Shape" d="m22 6v4c0 1.105-1.791 2-4 2s-4-.895-4-2v-4z" fill="#95a5a5"/><ellipse id="Oval" cx="18" cy="6" fill="#7f8c8d" rx="4" ry="2"/></g></g></svg>