<svg height="512" viewBox="0 0 46 58" width="512" xmlns="http://www.w3.org/2000/svg"><g id="Page-1" fill="none" fill-rule="evenodd"><g id="052---Old-Teddy-Bear" fill-rule="nonzero" transform="translate(0 -1)"><path id="Shape" d="m46 37.12c-.0017542.1910143-.018472.3815975-.05.57-.1469401.8919148-.6430037 1.6886016-1.378568 2.2140047-.7355644.5254032-1.6500726.7362675-2.541432.5859953l-5.91-1.1-2.11-.39h-.01l.8 4.01-5.61 12.23c-1.8523514.515456-3.7673002.7712313-5.69.76-2.2257529.0170048-4.43898-.3344083-6.55-1.04l-5.75-11.95.8-4.01h-.01l-2.12.39-5.9 1.1c-.89135943.1502722-1.80586758-.0605921-2.54143195-.5859953-.73556437-.5254031-1.23162791-1.3220899-1.37856805-2.2140047-.03152798-.1884025-.0482458-.3789857-.05-.57.0036327-1.360481.81792145-2.5878148 2.07-3.12l10.64-4.87h20.58l10.64 4.87c1.2520785.5321852 2.0663673 1.759519 2.07 3.12z" fill="#f0c419"/><path id="Shape" d="m36.12 39.39-2.11-.39h-.01l-.36-1.8c-.0528614-.2613539.0008454-.5329959.1491871-.7545697.1483417-.2215737.3790318-.3747269.6408129-.4254303.2587866-.0537608.5283233-.0014797.748244.145134.2199207.1466138.371848.3753089.421756.634866z" fill="#f29c1f"/><path id="Shape" d="m46 37.12c-.0017542.1910143-.018472.3815975-.05.57-.1469401.8919148-.6430037 1.6886016-1.378568 2.2140047-.7355644.5254032-1.6500726.7362675-2.541432.5859953l-4.62-.86 2.27-7.57 4.25 1.94c1.2520785.5321852 2.0663673 1.759519 2.07 3.12z" fill="#cb8252"/><path id="Shape" d="m18.54 5.12c-1.1011299-2.80543971-3.9862896-4.48600903-6.9698015-4.05982187-2.98351198.42618715-5.28275179 2.84733486-5.55437021 5.84886821-.27161841 3.00153334 1.55563454 5.79610066 4.41417171 6.75095366z" fill="#a56a43"/><path id="Shape" d="m14.99 7.65c.0083021-.04954434.011652-.09979205.01-.15 0-1.01115561-.6091054-1.92274633-1.5432914-2.30969883s-2.0094806-.17306311-2.7244756.54193188c-.7149949.71499499-.92888433 1.79028956-.5419318 2.72447553.3869525.93418598 1.2985432 1.54329142 2.3096988 1.54329142.1206222-.00005058.2410332-.01008483.36-.03z" fill="#fb7b76"/><path id="Shape" d="m35.57 13.66c2.8585372-.954853 4.6857901-3.74942032 4.4141717-6.75095366-.2716184-3.00153335-2.5708582-5.42268106-5.5543702-5.84886821-2.9835119-.42618716-5.8686716 1.25438216-6.9698015 4.05982187z" fill="#a56a43"/><path id="Shape" d="m33.14 9.97c.1189668.01991517.2393778.02994942.36.03 1.3807119 0 2.5-1.11928813 2.5-2.5s-1.1192881-2.5-2.5-2.5-2.5 1.11928813-2.5 2.5c-.001652.05020795.0016979.10045566.01.15z" fill="#fb7b76"/><path id="Shape" d="m36.6 17.933-.866.577c-.4201147.2797259-.5659277.8286691-.34 1.28l.5 1c.0697877.1386661.1060925.2917628.106.447v1.043c-.0001037.4306074.2754572.8129281.684.949l.046.015c.2686466.0895106.4872545.2878906.6023475.546612.115093.2587213.1160556.5539215.0026525.813388-.887017 1.8649463-2.291009 3.4358901-4.045 4.526-3.0789533 1.9346405-6.6542105 2.9318211-10.29 2.87-3.6357895.0618211-7.2110467-.9353595-10.29-2.87-2.9-1.91-4.71-4.62-4.71-7.63 0-5.8 6.72-17.5 15-17.5 6.371 0 11.821 6.932 13.992 12.767.1544059.4325541-.0076451.914573-.392 1.166z" fill="#cb8252"/><circle id="Oval" cx="17" cy="15" fill="#35495e" r="3"/><circle id="Oval" cx="29" cy="15" fill="#35495e" r="3"/><path id="Shape" d="m25.82 19.33c3.59.85 6.18 3.29 6.18 6.17 0 3.59-4.03 6.5-9 6.5s-9-2.91-9-6.5c0-2.88 2.59-5.32 6.18-6.17z" fill="#cf976a"/><path id="Shape" d="m12.35 37.2-.36 1.8-2.12.39.52-2.59c.0714531-.3501203.3242654-.635525.6632051-.7487049.3389396-.11318.7125135-.0369404.98.2.2674865.2369403.388248.5985846.3167949.9487049z" fill="#f29c1f"/><path id="Shape" d="m27.707 35.293c-.3904999-.3903819-1.0235001-.3903819-1.414 0-.1609223.1603795-.3298019.3125714-.506.456l-.217-.174c-.3705052-.293962-.8962882-.2881606-1.2602169.0139051s-.4664734.8177845-.2457831 1.2360949c-.9095575.4207746-1.867415.7280816-2.852.915-.1418527-.5224856-.6737537-.8371938-1.2-.71-.4368517.1133991-.7411319.5086751-.739.96-.168.01-.268.01-.273.01-.5522847 0-1 .4477153-1 1s.4477153 1 1 1c.045 0 .307 0 .711-.033l.069.275c.1109803.4449668.5104025.7574146.969.758.0822423-.0001749.1641648-.0102473.244-.03.5352153-.1342322.8605558-.6766155.727-1.212l-.018-.072c1.397542-.2713467 2.7434572-.7617215 3.988-1.453l.24.192c.4311264.3446667 1.0599801.2748438 1.405-.156.2833665-.3584251.2833665-.8645749 0-1.223.126-.111.254-.219.374-.339.3898302-.3910518.3889348-1.0240525-.002-1.414z" fill="#f29c1f"/><path id="Shape" d="m25 26c-.5522847 0-1-.4477153-1-1v-5c0-.5522847-.4477153-1-1-1s-1 .4477153-1 1v5c0 .5522847-.4477153 1-1 1s-1 .4477153-1 1 .4477153 1 1 1c.740399-.0026037 1.4533329-.2806479 2-.78.5466671.4993521 1.259601.7773963 2 .78.5522847 0 1-.4477153 1-1s-.4477153-1-1-1z" fill="#805333"/><ellipse id="Oval" cx="23" cy="20" fill="#35495e" rx="3" ry="2"/><path id="Shape" d="m33.46 45.92-4.27 9.32c-1.8523514.515456-3.7673002.7712313-5.69.76-2.2257529.0170048-4.43898-.3344083-6.55-1.04l-4.67-9.7c3.1451634 1.0145534 6.4169693 1.5834168 9.72 1.69.62.04 1.26.05 1.9.05h.1c3.1835268-.0097871 6.3561854-.3719933 9.46-1.08z" fill="#a56a43"/><path id="Shape" d="m25 51c0 .5522847-.4477153 1-1 1 0 .5522847-.4477153 1-1 1s-1-.4477153-1-1c-.5522847 0-1-.4477153-1-1s.4477153-1 1-1v-3.05c.62.04 1.26.05 1.9.05h.1v3c.5522847 0 1 .4477153 1 1z" fill="#805333"/><path id="Shape" d="m8.59 39.63-4.62.86c-.89135943.1502722-1.80586758-.0605921-2.54143195-.5859953-.73556437-.5254031-1.23162791-1.3220899-1.37856805-2.2140047-.03152798-.1884025-.0482458-.3789857-.05-.57.0036327-1.360481.81792145-2.5878148 2.07-3.12l4.25-1.94z" fill="#cb8252"/><path id="Shape" d="m18 50.467c0 4.712-3.134 8.533-7 8.533s-7-3.821-7-8.533 3.134-7.467 7-7.467 7 2.754 7 7.467z" fill="#cb8252"/><path id="Shape" d="m11 55c-1.419 0-3-1.861-3-4.533 0-2.203 1.093-3.467 3-3.467s3 1.264 3 3.467c0 2.672-1.581 4.533-3 4.533z" fill="#fb7b76"/><path id="Shape" d="m42 50.467c0 4.712-3.134 8.533-7 8.533s-7-3.821-7-8.533 3.134-7.467 7-7.467 7 2.754 7 7.467z" fill="#cb8252"/><path id="Shape" d="m35 55c-1.419 0-3-1.861-3-4.533 0-2.203 1.093-3.467 3-3.467s3 1.264 3 3.467c0 2.672-1.581 4.533-3 4.533z" fill="#fb7b76"/><g fill="#547580"><circle id="Oval" cx="16" cy="14" r="1"/><circle id="Oval" cx="28" cy="14" r="1"/></g></g></g></svg>