<svg height="512" viewBox="0 0 58 59" width="512" xmlns="http://www.w3.org/2000/svg"><g id="Page-1" fill="none" fill-rule="evenodd"><g id="061---Broken-TV" fill-rule="nonzero"><path id="Shape" d="m13 55v3c0 .5522847-.4477153 1-1 1h-8c-.55228475 0-1-.4477153-1-1v-3l5-1z" fill="#95a5a5"/><path id="Shape" d="m55 55v3c0 .5522847-.4477153 1-1 1h-8c-.5522847 0-1-.4477153-1-1v-3l5-1z" fill="#95a5a5"/><path id="Rectangle-path" d="m20.445.446h2v10.293h-2z" fill="#35495e" transform="matrix(.504 -.864 .864 .504 5.814 21.303)"/><circle id="Oval" cx="17" cy="3" fill="#95a5a5" r="3"/><path id="Shape" d="m33.216 9.648-.633-1.9 4.508-1.5c.1934292-.06423111.3624088-.1864271.484-.35l2.265-3.017 1.6 1.2-2.265 3.019c-.3655802.48944755-.8728432.85462107-1.453 1.046z" fill="#35495e"/><circle id="Oval" cx="41" cy="3" fill="#95a5a5" r="3"/><path id="Shape" d="m22 13c0-3.86599325 3.1340068-7 7-7s7 3.13400675 7 7l-7 1z" fill="#95a5a5"/><rect id="Rectangle-path" fill="#a56a43" height="42" rx="2" width="58" y="13"/><rect id="Rectangle-path" fill="#67b9cc" height="34" rx="1" width="34" x="4" y="17"/><circle id="Oval" cx="48" cy="20" fill="#f0c419" r="3"/><circle id="Oval" cx="48" cy="30" fill="#f0c419" r="3"/><path id="Shape" d="m53 47v3c0 .5522847-.4477153 1-1 1h-8c-.5522847 0-1-.4477153-1-1v-3z" fill="#35495e"/><path id="Rectangle-path" d="m43 42h10v5h-10z" fill="#2c3e50"/><path id="Shape" d="m53 38v4h-10v-4c0-.5522847.4477153-1 1-1h8c.5522847 0 1 .4477153 1 1z" fill="#35495e"/><path id="Shape" d="m38 23.38v26.62c0 .5522847-.4477153 1-1 1h-28.67c1.24-6.17 6.84-24.7 29.67-27.62z" fill="#2fa8cc"/><path id="Shape" d="m33.949 30.684c-.1748377-.5238077-.7411616-.8067458-1.265-.632l-2.1.7-1.206-3.016c-.2202705-.5498621-.6729488-.973798-1.236059-1.1575761-.5631101-.1837782-1.1787164-.1084906-1.680941.2055761l-5.461 3.416v-4.582l3.447-1.718c.4942949-.2468713.6948713-.8477051.448-1.342s-.8477051-.6948713-1.342-.448l-3.447 1.724c-.6783104.3355335-1.1071371 1.0272396-1.106 1.784v4.382l-6.4-4.8c-.4418278-.3313708-1.0686292-.2418278-1.4.2s-.2418278 1.0686292.2 1.4l6.705 5.029-8.114 4.058c-.55455005.2747125-.94914836.792461-1.067 1.4l-.904 4.513c-.05309854.2599175-.00074247.5302825.14554487.751589.14628735.2213065.37451643.3754164.63445513.428411.06576956.0137352.13281296.0204396.2.02.47489292-.000378.88402154-.3347017.979-.8l.9-4.52 7.891-3.946-.731 5.846c-.0479139.3920735.0216958.7895444.2 1.142l1.864 3.729c.2468713.4942949.8477051.6948713 1.342.448s.6948713-.8477051.448-1.342l-1.865-3.73.787-6.3 4.365 2.183.739 2.216c.1664837.5026587.5263411.9182939 1 1.155l3.63 1.815c.3197527.1596977.7004141.1366785.9985928-.0603866.2981786-.1970651.4685741-.5382372.447-.895-.0215741-.3567629-.2318401-.6749157-.5515928-.8346134l-3.629-1.814-.739-2.216c-.1664837-.5026587-.5263411-.9182939-1-1.155l-4.033-2.021 5.474-3.422 1.206 3.022c.3938845.9823801 1.4849465 1.4878017 2.489 1.153l2.105-.7c.2526672-.0837128.4615346-.2647033.5803459-.5028889.1188113-.2381857.1377616-.5139103.0526541-.7661111z" fill="#3b97d3"/></g></g></svg>